<svg width="22" height="22" viewBox="0 0 22 22" fill="none" xmlns="http://www.w3.org/2000/svg">
<path fill-rule="evenodd" clip-rule="evenodd" d="M22 11C22 17.0751 17.0751 22 11 22C4.92487 22 0 17.0751 0 11C0 4.92487 4.92487 0 11 0C17.0751 0 22 4.92487 22 11ZM15.125 8.25C15.125 10.5282 13.2782 12.375 11 12.375C8.72183 12.375 6.875 10.5282 6.875 8.25C6.875 5.97183 8.72183 4.125 11 4.125C13.2782 4.125 15.125 5.97183 15.125 8.25ZM11 21.3125C14.797 21.3125 17.875 19.25 17.875 18.5625C17.875 15.4688 14.797 13.0625 11 13.0625C7.20304 13.0625 4.125 15.4688 4.125 18.5625C4.125 18.9062 7.20304 21.3125 11 21.3125Z" fill="currentColor"/>
</svg>
