<svg width="32" height="32" viewBox="0 0 32 32" fill="none" xmlns="http://www.w3.org/2000/svg">
<path fill-rule="evenodd" clip-rule="evenodd" d="M31 16C31 24.2843 24.2843 31 16 31C7.71573 31 1 24.2843 1 16C1 7.71573 7.71573 1 16 1C24.2843 1 31 7.71573 31 16ZM16 6.75C16.6904 6.75 17.25 7.30964 17.25 8V14.75H24C24.6904 14.75 25.25 15.3096 25.25 16C25.25 16.6904 24.6904 17.25 24 17.25H17.25V24C17.25 24.6904 16.6904 25.25 16 25.25C15.3096 25.25 14.75 24.6904 14.75 24V17.25H8C7.30964 17.25 6.75 16.6904 6.75 16C6.75 15.3096 7.30964 14.75 8 14.75H14.75V8C14.75 7.30964 15.3096 6.75 16 6.75Z" fill="#00A0AB"/>
</svg>
