<svg width="22" height="20" viewBox="0 0 22 20" fill="none" xmlns="http://www.w3.org/2000/svg">
<path d="M14.7603 10.2309C13.7784 8.69665 12.1008 7.77783 10.278 7.77783C8.45521 7.77783 6.78184 8.69665 5.79574 10.2309L3.42655 13.9318C3.03382 14.5472 2.85026 15.2566 2.90148 15.9831C2.95271 16.7096 3.22591 17.3891 3.69975 17.9447C4.17359 18.5003 4.80111 18.8763 5.50973 19.0387C6.21835 19.2011 6.94832 19.1328 7.61426 18.8379L7.65694 18.8165C9.33459 18.0943 11.2556 18.0985 12.9289 18.8379C13.3601 19.0259 13.8168 19.1242 14.2821 19.1242C14.534 19.1242 14.7859 19.0943 15.0377 19.0387C15.7464 18.8763 16.3739 18.496 16.8477 17.9447C17.3215 17.3891 17.599 16.7139 17.6502 15.9831C17.7015 15.2523 17.5179 14.5472 17.1252 13.9318L14.7603 10.2309Z" fill="#00A0AB"/>
<path d="M4.06679 10.2221C4.77115 9.95286 5.30902 9.3802 5.57368 8.6195C5.82981 7.89299 5.80847 7.07674 5.51392 6.31604C5.21937 5.55534 4.69004 4.93567 4.01557 4.56814C3.30694 4.18352 2.53002 4.11941 1.82566 4.39292C0.408417 4.93567 -0.240443 6.68784 0.378535 8.29898C0.873718 9.58106 2.02203 10.3888 3.18742 10.3888C3.48196 10.3888 3.78078 10.3332 4.06679 10.2221Z" fill="#00A0AB"/>
<path d="M8.66425 7.32493C10.4358 7.32493 11.8744 5.68387 11.8744 3.66246C11.8744 1.64106 10.4358 0 8.66425 0C6.89269 0 5.4541 1.64106 5.4541 3.66246C5.4541 5.6796 6.89269 7.32493 8.66425 7.32493Z" fill="#00A0AB"/>
<path d="M14.2095 8.22261C14.4827 8.31235 14.7602 8.35509 15.0377 8.35509C16.3268 8.35509 17.5861 7.4149 18.0685 5.97043C18.346 5.13708 18.3289 4.25672 18.0173 3.49175C17.6886 2.69259 17.091 2.11138 16.3226 1.85497C15.5585 1.59855 14.726 1.70539 13.9875 2.15412C13.2832 2.58148 12.741 3.2738 12.4636 4.10715C11.8873 5.86359 12.6685 7.70978 14.2095 8.22261Z" fill="#00A0AB"/>
<path d="M20.9712 7.79449C19.7503 6.89277 17.9233 7.28166 16.8988 8.66631C15.8743 10.0509 16.0365 11.9142 17.2531 12.816C17.697 13.145 18.2221 13.3031 18.76 13.3031C19.6948 13.3031 20.6724 12.8245 21.3255 11.9441C22.35 10.5638 22.1878 8.70049 20.9712 7.79449Z" fill="#00A0AB"/>
</svg>
