<svg width="53" height="45" viewBox="0 0 53 45" fill="none" xmlns="http://www.w3.org/2000/svg">
<mask id="path-1-inside-1_19_1885" fill="white">
<path fill-rule="evenodd" clip-rule="evenodd" d="M17.8552 0C15.6461 0 13.8552 1.79086 13.8552 4V5.5192H4.98242C2.77328 5.5192 0.982422 7.31007 0.982422 9.5192V40.1587C0.982422 42.3679 2.77329 44.1587 4.98243 44.1587H48.4732C50.6823 44.1587 52.4732 42.3679 52.4732 40.1587V9.5192C52.4732 7.31006 50.6823 5.5192 48.4732 5.5192H39.6006V4C39.6006 1.79086 37.8097 0 35.6006 0H17.8552Z"/>
</mask>
<path d="M13.8552 5.5192V6.5192H14.8552V5.5192H13.8552ZM39.6006 5.5192H38.6006V6.5192H39.6006V5.5192ZM14.8552 4C14.8552 2.34315 16.1984 1 17.8552 1V-1C15.0938 -1 12.8552 1.23858 12.8552 4H14.8552ZM14.8552 5.5192V4H12.8552V5.5192H14.8552ZM4.98242 6.5192H13.8552V4.5192H4.98242V6.5192ZM1.98242 9.51921C1.98242 7.86235 3.32557 6.5192 4.98242 6.5192V4.5192C2.221 4.5192 -0.0175781 6.75778 -0.0175781 9.51921H1.98242ZM1.98242 40.1587V9.51921H-0.0175781V40.1587H1.98242ZM4.98243 43.1587C3.32557 43.1587 1.98242 41.8156 1.98242 40.1587H-0.0175781C-0.0175781 42.9202 2.22101 45.1587 4.98243 45.1587V43.1587ZM48.4732 43.1587H4.98243V45.1587H48.4732V43.1587ZM51.4732 40.1587C51.4732 41.8156 50.1301 43.1587 48.4732 43.1587V45.1587C51.2346 45.1587 53.4732 42.9202 53.4732 40.1587H51.4732ZM51.4732 9.5192V40.1587H53.4732V9.5192H51.4732ZM48.4732 6.5192C50.1301 6.5192 51.4732 7.86235 51.4732 9.5192H53.4732C53.4732 6.75778 51.2346 4.5192 48.4732 4.5192V6.5192ZM39.6006 6.5192H48.4732V4.5192H39.6006V6.5192ZM38.6006 4V5.5192H40.6006V4H38.6006ZM35.6006 1C37.2574 1 38.6006 2.34315 38.6006 4H40.6006C40.6006 1.23857 38.362 -1 35.6006 -1V1ZM17.8552 1H35.6006V-1H17.8552V1Z" fill="white" mask="url(#path-1-inside-1_19_1885)"/>
<path d="M39.2617 26C39.2617 32.9036 33.666 38.5 26.7634 38.5C19.8609 38.5 14.2651 32.9036 14.2651 26C14.2651 19.0964 19.8609 13.5 26.7634 13.5C33.666 13.5 39.2617 19.0964 39.2617 26Z" stroke="white"/>
<path d="M42.2606 13C42.2606 14.3808 43.3797 15.5 44.7602 15.5C46.1406 15.5 47.2598 14.3808 47.2598 13C47.2598 11.6192 46.1406 10.5 44.7602 10.5C43.3797 10.5 42.2606 11.6192 42.2606 13Z" stroke="white"/>
</svg>
