<svg width="83" height="87" viewBox="0 0 83 87" fill="none" xmlns="http://www.w3.org/2000/svg">
<ellipse cx="41.1662" cy="43.8" rx="41.1662" ry="40.8" fill="currentColor"/>
<ellipse cx="20.1323" cy="80.1" rx="6.91111" ry="6.9" fill="currentColor"/>
<ellipse cx="2.40386" cy="81" rx="2.40386" ry="2.4" fill="currentColor"/>
<ellipse cx="78.7264" cy="72.6" rx="3.6058" ry="3.6" fill="currentColor"/>
<ellipse cx="15.3246" cy="9.90002" rx="4.50725" ry="4.5" fill="currentColor"/>
<ellipse cx="21.334" cy="1.5" rx="1.50242" ry="1.5" fill="currentColor"/>
<path d="M58.1077 74.5014C57.9482 73.0044 55.8956 73.4104 55.2023 72.6673C54.5098 71.9249 54.3129 70.8318 54.407 69.8211C54.5004 68.8105 54.8489 67.8436 55.1147 66.8638C55.905 63.9524 55.9775 60.899 55.9646 57.8821C54.0205 57.1985 52.0767 56.5143 50.1328 55.8307C50.407 61.2562 50.7861 66.6766 51.2697 72.0877C51.3539 73.0295 51.4521 74.0064 51.9323 74.8213C52.6608 76.0578 54.2806 76.6898 55.6557 76.2745C57.0307 75.8592 58.2664 75.9976 58.1077 74.5014Z" fill="#484A50"/>
<path d="M29.3864 60.338C29.0679 61.6929 29.497 63.1361 30.2441 64.311C30.9911 65.4852 32.0334 66.4384 33.0631 67.3759C33.7354 66.8028 34.8521 66.9111 35.4628 67.5495C36.0734 68.1886 36.1563 69.2379 35.7283 70.0105C35.3003 70.783 33.9137 70.7722 33.0302 70.8131C31.624 70.8784 30.8884 70.448 29.8574 69.4911C27.216 67.0395 25.1284 64.0642 23.062 61.1134C25.0102 59.1473 24.8625 55.6485 27.0437 53.9435C28.9222 52.4752 31.5978 53.0153 33.9805 52.8955C33.7986 55.8557 30.0656 57.4502 29.3864 60.338Z" fill="#484A50"/>
<path d="M77.2389 31.0918C76.5492 35.1624 70.8046 43.5825 68.2348 47.1502C67.2405 48.5317 65.8805 49.6154 64.8625 50.979C62.7884 53.7584 62.3293 57.4797 62.8616 60.9039C63.394 64.3289 64.8194 67.5416 66.2311 70.7076C66.5738 71.4766 67.04 72.3466 67.8713 72.4879C68.3145 72.5625 68.7657 72.4033 69.2147 72.4234C70.3082 72.4721 71.12 73.6922 70.9116 74.7653C70.7026 75.8383 69.6731 76.6345 68.5868 76.7736C67.5013 76.9128 66.3999 76.4846 65.5335 75.8161C64.6671 75.1483 64.0025 74.2567 63.389 73.3515C59.8105 68.0731 57.3736 61.7216 52.174 58.0233C48.9486 55.7302 44.9501 54.7196 40.9965 54.4987C37.0429 54.277 30.4044 52.4903 27.4959 56.4303C24.5873 60.3696 21.9008 63.9609 21.7052 65.0024C21.3354 66.9706 21.996 69.0149 22.9625 70.75C23.4213 71.5734 24.8282 72.5898 25.1433 73.4778C25.8511 75.4732 23.5852 75.9186 22.6153 75.9186C20.1884 75.9186 19.8839 74.2029 19.7326 73.2468C18.9749 68.4475 16.9417 64.9415 17.563 61.8773C17.9922 59.762 18.4866 54.7798 17.6141 52.4752C17.0029 50.8614 15.7507 49.581 14.8936 48.0834C12.9545 44.6942 13.1854 40.5362 13.4727 36.6442C14.0924 28.2478 8.86328 29.8789 8.42296 12.2519C8.36714 10.0111 8.67333 7.7646 9.34657 5.6264C10.4812 2.02209 14.5257 0.0969315 13.4812 3.3885C12.4036 6.78409 11.5863 11.7613 12.3286 17.3029C13.0709 22.8439 16.4399 29.2943 19.4806 30.8881C22.5214 32.4826 35.7298 28.6043 43.9923 29.3639C47.3759 29.6745 50.7629 30.2734 54.15 30.0016C57.5366 29.7304 61.0318 28.4401 63.0484 25.7101C66.7986 28.6172 77.2389 31.0918 77.2389 31.0918Z" fill="#5B5E63"/>
<path d="M38.596 45.4194C37.8194 42.5503 35.8174 40.0341 33.1937 38.6304C32.3246 38.1649 31.303 37.7238 30.9688 36.797C30.7016 36.0568 30.9907 35.2018 31.5208 34.6194C32.0509 34.037 32.7857 33.6833 33.524 33.4079C37.7125 31.8414 42.3444 32.3743 46.8147 32.5206C51.2849 32.6662 56.1501 32.2531 59.4944 29.2886C60.3098 28.5656 61.2315 27.6367 62.2955 27.8784C62.8631 28.0075 63.297 28.4523 63.695 28.8769C66.058 31.3931 68.4201 33.91 70.7823 36.4262C68.3325 37.9913 66.6722 40.5118 65.2332 43.0359C63.7942 45.56 62.4723 48.206 60.442 50.2861C58.4117 52.3662 55.4748 53.8251 52.6213 53.2606C50.289 52.7987 48.2386 51.0543 45.8627 51.1511C44.5179 51.2056 43.1704 51.8584 41.8727 51.5012C40.7007 51.1784 39.8852 50.091 39.4603 48.9541C39.0354 47.8165 38.9131 46.5914 38.596 45.4194Z" fill="#56585B"/>
<path d="M60.8284 17.4801C62.003 17.1057 64.8315 19.4304 66.2985 22.1216C68.6873 21.7465 72.2694 22.0535 72.2694 22.0535C72.2694 22.0535 76.1115 17.1911 77.524 17.6931C79.537 18.4083 77.3875 25.1872 77.3192 26.7882C77.251 28.3892 78.0355 30.5697 76.2955 33.1928C75.6733 34.1302 72.7256 37.084 70.1881 37.4168C66.81 37.8593 60.9757 34.5843 60.5403 31.2045C60.1286 28.0112 60.9757 25.528 60.6588 24.0661C60.4526 23.1129 59.2019 17.9994 60.8284 17.4801Z" fill="#717477"/>
<path d="M67.5626 24.074C67.8256 23.8495 68.0591 23.5891 68.345 23.394C68.6302 23.1996 68.9894 23.0741 69.3235 23.1638C69.9255 23.3266 70.473 23.9513 70.7855 24.49C71.3998 25.5473 72.6678 26.1139 73.8029 26.5701C74.9387 27.0256 75.77 27.5972 76.3857 28.6531C76.9144 29.5597 76.8778 30.731 76.423 31.6764C75.9675 32.6218 75.1349 33.3512 74.1973 33.8246C73.2605 34.2987 72.2202 34.5354 71.1792 34.6782C69.5922 34.8962 67.98 34.907 66.3851 34.7564C65.426 34.666 64.4597 34.5139 63.5796 34.1244C62.6996 33.735 61.905 33.083 61.5084 32.2072C61.1557 31.4304 61.1391 30.546 61.1966 29.6945C61.2534 28.8532 61.3877 27.9853 61.8525 27.2809C62.4618 26.3571 63.5351 25.8622 64.5775 25.487C65.62 25.1119 66.7206 24.7927 67.5626 24.074Z" fill="#6B6E72"/>
<path d="M64.2095 21.0472C63.7095 19.873 62.7784 18.8875 61.6332 18.3222C61.2661 18.1415 60.7847 18.0167 60.4801 18.29C60.2323 18.5123 60.2265 18.8925 60.2474 19.2253C60.3242 20.4712 60.5031 21.7121 60.8063 22.9229C60.9701 23.5777 61.2101 24.2771 61.7783 24.6414C62.3215 24.9886 63.0715 24.9262 63.6024 24.5604C64.1341 24.1953 64.4523 23.5698 64.5292 22.93C64.6068 22.2909 64.4617 21.6396 64.2095 21.0472Z" fill="#56585B"/>
<path d="M74.106 24.5438C73.7921 24.2131 73.6858 23.7548 73.6901 23.3165C73.703 21.8791 74.7476 20.6447 75.7412 19.5329C76.2498 18.9648 77.201 17.8997 77.6184 18.2389C78.0358 18.5775 78.1515 20.1419 78.0524 21.1166C77.9532 22.0921 77.6716 23.0432 77.3914 23.9886C77.2671 24.4068 77.1148 24.8622 76.7197 25.1004C76.2807 25.3658 75.6966 25.2682 75.1966 25.1176C74.7936 24.9964 74.3848 24.8371 74.106 24.5438Z" fill="#56585B"/>
<path d="M71.8097 27.8534C72.3506 27.5349 72.9678 27.3269 73.5957 27.3348C74.2236 27.3419 74.8594 27.5801 75.2847 28.0405C75.71 28.5018 75.8946 29.1939 75.6856 29.785C75.4162 30.5446 74.6123 30.9706 73.8443 31.2195C73.4534 31.3465 71.8053 31.548 70.8915 30.0102C70.699 29.686 70.737 29.2563 70.8513 28.897C70.9971 28.4365 71.393 28.0987 71.8097 27.8534Z" fill="#56585B"/>
<path d="M71.3213 29.9427C71.3407 30.1852 72.1281 30.8551 73.159 30.8551C74.19 30.8551 74.9961 29.9097 74.9961 29.0103C74.9961 28.1108 74.0161 27.3914 72.9981 27.5987C71.988 27.8038 71.3213 29.0433 71.3213 29.9427Z" fill="#31343A"/>
<path d="M71.5479 29.8523C71.5644 30.0646 72.2548 30.6521 73.1593 30.6521C74.0631 30.6521 74.7707 29.8229 74.7707 29.0346C74.7707 28.2456 73.9108 27.6152 73.0178 27.7966C72.1319 27.9767 71.5479 29.064 71.5479 29.8523Z" fill="#59864B"/>
<path d="M72.0369 30.0647C71.8271 29.7886 71.8688 29.3984 71.9672 29.0663C71.9967 28.9673 72.0333 28.8654 72.108 28.7937C72.1827 28.7227 72.307 28.6926 72.3911 28.7528C72.4679 28.8081 72.4852 28.9163 72.4751 29.0103C72.4658 29.105 72.4363 29.1982 72.445 29.2922C72.4687 29.5332 72.728 29.6788 72.9665 29.7247C73.5671 29.8416 74.2252 29.5669 74.565 29.0584C74.491 29.4938 74.2324 29.8947 73.866 30.1415C73.4996 30.3889 73.0298 30.4786 72.598 30.3839C72.3832 30.3373 72.1698 30.2397 72.0369 30.0647Z" fill="#81AE74"/>
<path d="M72.7529 29.0892C72.7529 29.8029 72.9103 30.381 73.1042 30.381C73.2989 30.381 73.4563 29.8029 73.4563 29.0892C73.4563 28.3748 73.2989 27.7967 73.1042 27.7967C72.9103 27.7967 72.7529 28.3748 72.7529 29.0892Z" fill="black"/>
<path d="M73.3057 28.6574C73.3057 28.8446 73.4501 28.996 73.6282 28.996C73.8064 28.996 73.9508 28.8446 73.9508 28.6574C73.9508 28.4709 73.8064 28.3189 73.6282 28.3189C73.4501 28.3189 73.3057 28.4709 73.3057 28.6574Z" fill="white"/>
<path d="M68.0111 29.9414C67.9393 30.1924 67.7539 30.3969 67.547 30.5575C66.927 31.041 66.0793 31.1959 65.3113 31.0245C64.5433 30.8531 63.8607 30.3725 63.3866 29.7456C63.0561 29.3088 62.8154 28.7486 62.9512 28.2178C63.0877 27.6834 63.5842 27.3004 64.1136 27.1419C64.6431 26.9841 65.2078 27.0099 65.7596 27.0407C66.876 27.1031 67.6943 28.5685 67.8459 28.9229C67.9838 29.2456 68.1074 29.6036 68.0111 29.9414Z" fill="#56585B"/>
<path d="M67.649 29.9464C67.6296 30.1895 66.8379 30.863 65.8019 30.863C64.766 30.863 63.9556 29.9126 63.9556 29.0089C63.9556 28.1058 64.9405 27.3828 65.9643 27.5908C66.9787 27.7967 67.649 29.0426 67.649 29.9464Z" fill="#31343A"/>
<path d="M67.4133 29.8523C67.3968 30.0646 66.7064 30.6521 65.8019 30.6521C64.8981 30.6521 64.1904 29.8229 64.1904 29.0346C64.1904 28.2456 65.0504 27.6152 65.9434 27.7966C66.8292 27.9767 67.4133 29.064 67.4133 29.8523Z" fill="#59864B"/>
<path d="M64.3971 29.4293C64.3367 29.1445 64.4768 28.8561 64.6471 28.6202C64.7391 28.4932 64.8842 28.3598 65.0315 28.4129C65.1299 28.4487 65.183 28.557 65.1945 28.6603C65.206 28.7636 65.1866 28.8683 65.1874 28.9723C65.1917 29.3417 65.4661 29.6659 65.7973 29.8324C66.1278 29.998 66.5064 30.0339 66.8764 30.0533C66.5502 30.2921 66.1371 30.4083 65.7348 30.3761C65.3325 30.3431 64.9431 30.1616 64.6607 29.8732C64.5379 29.7484 64.433 29.6 64.3971 29.4293Z" fill="#81AE74"/>
<path d="M65.4043 28.996C65.4043 29.6587 65.5688 30.1953 65.7714 30.1953C65.9747 30.1953 66.1393 29.6587 66.1393 28.996C66.1393 28.3332 65.9747 27.7967 65.7714 27.7967C65.5688 27.7967 65.4043 28.3332 65.4043 28.996Z" fill="black"/>
<path d="M65.9644 28.6574C65.9644 28.8504 66.1095 29.0067 66.2876 29.0067C66.4665 29.0067 66.6117 28.8504 66.6117 28.6574C66.6117 28.4645 66.4665 28.3081 66.2876 28.3081C66.1095 28.3081 65.9644 28.4645 65.9644 28.6574Z" fill="white"/>
<path d="M66.4363 36.4657C65.8781 36.2017 65.3414 35.8574 64.9757 35.3611C64.6093 34.8647 64.4384 34.1962 64.6481 33.6167C64.855 33.0443 65.3788 32.6562 65.8752 32.3033C66.5125 31.85 67.1497 31.3967 67.7877 30.9434C68.2374 30.6228 68.7123 30.2928 69.2597 30.2211C69.9458 30.1307 70.6233 30.4671 71.1521 30.9125C71.6808 31.358 72.1047 31.9139 72.6105 32.3851C72.9819 32.7316 73.3979 33.0328 73.7284 33.4187C74.0588 33.8046 74.3017 34.3038 74.2356 34.8073C74.1494 35.4665 73.5718 35.9478 72.9898 36.2735C71.0098 37.3816 68.4889 37.4347 66.4363 36.4657Z" fill="#A7ABAE"/>
<path fill-rule="evenodd" clip-rule="evenodd" d="M71.5043 35.8546C70.7715 35.9034 70.0761 35.4049 69.3461 35.491C68.928 35.5404 68.5573 35.7771 68.1543 35.9012C67.3762 36.1415 66.4537 35.907 65.9379 35.2779C65.4221 34.6489 65.3933 33.6483 65.9257 33.0328C66.3754 32.5121 67.0989 32.3306 67.78 32.2309C68.497 32.1255 69.2226 32.0782 69.9475 32.0889C70.8987 32.104 71.8872 32.2331 72.6825 32.7538C72.9706 32.9425 73.2307 33.1842 73.3938 33.4876C73.5561 33.7903 73.6129 34.159 73.4994 34.4839C73.3722 34.8454 73.0583 35.1065 72.7443 35.3267C72.3714 35.5878 71.9583 35.8252 71.5043 35.8546Z" fill="#DADBDC"/>
<path d="M69.6529 34.283C69.6529 34.283 68.058 33.235 68.3662 32.6626C68.6737 32.0903 71.1501 32.1462 70.9956 32.8305C70.8419 33.5148 69.6529 34.283 69.6529 34.283Z" fill="black"/>
<path d="M67.4374 35.9908C67.8224 36.0884 68.1824 35.8244 68.51 35.6638C68.7966 35.5232 69.1343 35.4249 69.4511 35.3897C69.4684 35.3876 69.4856 35.3869 69.5021 35.3862C69.4978 35.3761 69.4942 35.3661 69.495 35.356C69.5086 34.9049 69.523 34.453 69.5366 34.0018C69.5395 33.9122 69.9239 33.9796 69.9203 34.1044C69.9066 34.5405 69.893 34.9766 69.8793 35.4127C70.0065 35.4385 70.1308 35.4794 70.2486 35.5311C70.6459 35.7025 71.008 35.9901 71.4613 35.8072C71.5669 35.7642 71.9175 35.922 71.7688 35.9822C71.4448 36.1128 71.1186 36.0791 70.7903 35.9815C70.3226 35.8431 69.9943 35.5182 69.4734 35.6157C68.7356 35.7534 68.1774 36.3617 67.3914 36.1623C67.1615 36.1042 67.2089 35.9335 67.4374 35.9908Z" fill="black"/>
<path fill-rule="evenodd" clip-rule="evenodd" d="M81.3653 33.7752C81.1842 33.7228 80.9752 33.6618 80.7489 33.608C80.6361 33.5793 80.5197 33.5507 80.4011 33.5205C80.2826 33.4947 80.1612 33.4682 80.0405 33.4423C79.557 33.3355 79.0684 33.2551 78.6949 33.202C78.2523 33.1396 77.8565 33.0966 77.4592 33.0651C77.2609 33.045 77.0619 33.0378 76.8571 33.0256C76.6524 33.012 76.4411 33.0098 76.2177 33.0048C75.9907 32.9969 75.7364 33.0062 75.4684 33.0105C75.3348 33.0113 75.1975 33.0227 75.0582 33.0292C74.9195 33.0378 74.7787 33.0414 74.6386 33.055C74.3577 33.0794 74.0768 33.1009 73.811 33.1353C73.6781 33.1511 73.5487 33.164 73.4245 33.1813C73.3009 33.1985 73.1816 33.2157 73.0703 33.2315C72.8964 33.2501 72.4596 33.3369 72.2879 33.3649C72.1952 33.3807 72.2297 33.3864 72.3641 33.3756C72.4316 33.3706 72.5243 33.3606 72.6385 33.3469C72.7534 33.3319 72.8892 33.3125 73.0458 33.2946C73.1349 33.2838 73.2305 33.2716 73.3332 33.2594C73.3842 33.2537 73.4374 33.2472 73.492 33.2415C73.5466 33.2365 73.6026 33.2322 73.6601 33.2272C73.8907 33.2071 74.1458 33.1827 74.4224 33.1662C74.9748 33.1239 75.5172 33.0937 76.1588 33.1002C77.0001 33.1102 77.9491 33.2042 78.715 33.3147C78.8608 33.3362 79.0203 33.3563 79.187 33.3828C79.3537 33.4108 79.529 33.4402 79.7064 33.4696C80.0613 33.5363 80.4292 33.6066 80.7661 33.6862C80.8509 33.7056 80.9342 33.7228 81.014 33.7429C81.0944 33.763 81.172 33.7831 81.2467 33.8024C81.3969 33.8411 81.5355 33.8741 81.657 33.9093C81.8983 33.9789 82.0758 34.0312 82.1484 34.0542C82.2353 34.0814 82.2202 34.0671 82.093 34.0176C82.0298 33.9925 81.9386 33.9588 81.8179 33.9172C81.7575 33.8964 81.69 33.8734 81.6146 33.8483C81.5391 33.8261 81.4558 33.8017 81.3653 33.7752Z" fill="white"/>
<path fill-rule="evenodd" clip-rule="evenodd" d="M82.1291 36.4994C82.035 36.4599 81.9337 36.4155 81.8252 36.3724C81.7175 36.3301 81.6032 36.2856 81.4854 36.239C81.2512 36.1443 80.9976 36.0547 80.7454 35.9614C80.494 35.8682 80.2382 35.7842 79.999 35.701C79.7597 35.6207 79.5334 35.5497 79.338 35.4873C78.4105 35.2004 77.6799 34.9967 76.7344 34.7736C76.256 34.6581 75.6539 34.5434 75.0504 34.4401C74.4455 34.3447 73.8392 34.26 73.3499 34.2156C73.3025 34.2105 73.2371 34.2048 73.1624 34.1976C73.0877 34.1897 73.0043 34.1833 72.9196 34.1797C72.7522 34.1704 72.5841 34.1603 72.4892 34.1553C72.3872 34.1489 72.4217 34.1618 72.5675 34.1833C72.6401 34.1941 72.74 34.207 72.865 34.2206C72.9275 34.2278 72.9957 34.2328 73.0697 34.2421C73.1437 34.2507 73.2235 34.2608 73.3082 34.2708C73.4052 34.2823 73.5094 34.2945 73.6208 34.3074C73.7321 34.3217 73.8499 34.3418 73.9742 34.3605C74.0985 34.3798 74.23 34.3977 74.3672 34.4207C74.5037 34.4444 74.6467 34.468 74.7954 34.4939C74.9441 34.5168 75.0921 34.5434 75.2401 34.5706C75.3888 34.5972 75.539 34.6237 75.6913 34.651C75.8436 34.6818 75.9988 34.7126 76.1583 34.7449C76.238 34.7614 76.3192 34.7779 76.4011 34.7951C76.4837 34.8145 76.567 34.8338 76.6518 34.8539C77.5441 35.0598 78.5384 35.351 79.3431 35.6021C79.9573 35.7907 80.7871 36.0618 81.4962 36.3208C81.8518 36.447 82.1737 36.5768 82.4287 36.6765C82.6816 36.782 82.8662 36.8602 82.9424 36.8939C83.0329 36.9348 83.0178 36.9183 82.8864 36.8494C82.7542 36.782 82.5092 36.6557 82.1291 36.4994Z" fill="white"/>
<path fill-rule="evenodd" clip-rule="evenodd" d="M79.9643 37.6227C79.6769 37.467 79.2875 37.2877 78.901 37.1005C78.7085 37.0058 78.5109 36.9212 78.3263 36.8394C78.1416 36.7591 77.9678 36.6831 77.8184 36.6171C77.73 36.5776 77.6431 36.541 77.5568 36.508C77.4714 36.4736 77.3873 36.4399 77.3047 36.4069C77.1402 36.3409 76.9799 36.2764 76.8197 36.2118C76.6602 36.1458 76.4972 36.0899 76.3298 36.0282C76.1624 35.9672 75.9907 35.9048 75.8082 35.8388C75.6243 35.77 75.4123 35.7076 75.1911 35.6366C74.9691 35.5684 74.7363 35.4931 74.5014 35.4264C74.2657 35.3611 74.0308 35.2958 73.8066 35.2342C73.6946 35.204 73.5861 35.171 73.4812 35.1445C73.3756 35.118 73.275 35.0921 73.1795 35.0685C73.0329 35.0326 72.6579 34.9408 72.5106 34.9049C72.3525 34.8648 72.609 34.9759 73.1371 35.1187C73.2118 35.1395 73.293 35.1617 73.3792 35.1861C73.4223 35.1983 73.4668 35.2105 73.5128 35.2234C73.5581 35.2378 73.6048 35.2528 73.6529 35.2679C73.8447 35.3288 74.0567 35.3948 74.288 35.463C74.52 35.5275 74.7471 35.5993 74.9834 35.6731C75.102 35.7097 75.2219 35.7477 75.3462 35.7865C75.4705 35.8259 75.5984 35.8646 75.7292 35.9134C75.9009 35.9765 76.0776 36.0418 76.2572 36.1078C76.4354 36.1745 76.6171 36.2391 76.7932 36.3137C76.9706 36.3861 77.1452 36.4571 77.3155 36.5267C77.485 36.5963 77.651 36.6608 77.8047 36.7297C78.0396 36.8308 78.3184 36.9485 78.6086 37.069C78.8953 37.1966 79.192 37.3286 79.4664 37.4512C79.5354 37.4821 79.6029 37.5115 79.6683 37.5416C79.733 37.5732 79.7955 37.6033 79.8565 37.632C79.9772 37.6901 80.0893 37.7439 80.1877 37.7913C80.3853 37.8859 80.529 37.9562 80.5879 37.9864C80.7287 38.0588 80.5462 37.9254 79.9643 37.6227Z" fill="white"/>
<path fill-rule="evenodd" clip-rule="evenodd" d="M57.6985 33.3921C57.7926 33.3692 57.8932 33.3441 58.0002 33.3175C58.1066 33.2896 58.2201 33.2709 58.3365 33.2458C58.4529 33.2214 58.5728 33.197 58.695 33.1719C58.8178 33.1518 58.9428 33.131 59.0671 33.111C59.565 33.0278 60.0672 32.979 60.4487 32.951C60.9013 32.918 61.305 32.9073 61.7081 32.9123C61.9092 32.9087 62.1104 32.923 62.3173 32.9302C62.5249 32.9352 62.7376 32.956 62.9624 32.974C63.1909 32.9876 63.4452 33.0242 63.7139 33.0521C63.849 33.0643 63.9855 33.0909 64.1249 33.1102C64.2628 33.1332 64.405 33.1475 64.5444 33.1777C64.8232 33.2315 65.1041 33.2817 65.3656 33.3505C65.4971 33.3835 65.6257 33.4108 65.7478 33.4459C65.8685 33.4818 65.9849 33.5162 66.0948 33.5492C66.2658 33.593 66.6918 33.7393 66.8592 33.7952C66.949 33.8268 66.9231 33.8031 66.7989 33.7443C66.7371 33.7149 66.6501 33.6769 66.5417 33.6317C66.4332 33.5865 66.3024 33.5349 66.1487 33.489C66.0617 33.461 65.9676 33.4309 65.8678 33.3986C65.8175 33.3821 65.7665 33.3656 65.7133 33.3477C65.6594 33.3326 65.6041 33.3175 65.5473 33.301C65.4331 33.2695 65.3131 33.2365 65.1881 33.202C65.0631 33.1647 64.9288 33.1411 64.7908 33.1102C64.2377 32.9883 63.6852 32.9259 63.0343 32.8613C62.6061 32.8212 62.1485 32.7911 61.698 32.7853C61.4731 32.7839 61.2497 32.7774 61.0327 32.7889C60.8158 32.7975 60.606 32.8011 60.4077 32.8219C60.2561 32.8362 60.0909 32.8477 59.9185 32.8685C59.7453 32.8929 59.5643 32.918 59.3803 32.9438C59.0132 33.0077 58.6332 33.0787 58.2855 33.1669C58.1985 33.1884 58.113 33.2064 58.0304 33.2286C57.9478 33.2523 57.8681 33.2745 57.7905 33.296C57.6367 33.3412 57.4938 33.3771 57.3702 33.4179C57.1216 33.4997 56.9406 33.5585 56.8644 33.5815C56.7739 33.6087 56.7962 33.613 56.9334 33.5836C57.0016 33.5686 57.0993 33.5456 57.2265 33.5119C57.2897 33.4947 57.3608 33.476 57.4391 33.4545C57.5182 33.4359 57.6044 33.4151 57.6985 33.3921Z" fill="white"/>
<path fill-rule="evenodd" clip-rule="evenodd" d="M57.1811 35.8388C57.2702 35.795 57.3672 35.7477 57.4692 35.6975C57.5705 35.6459 57.6812 35.6021 57.7932 35.5519C57.906 35.5024 58.0217 35.4508 58.1402 35.3991C58.2595 35.3525 58.3816 35.3052 58.503 35.2578C58.7444 35.1581 58.9923 35.0785 59.2236 34.9989C59.2818 34.9788 59.3386 34.9594 59.3946 34.9408C59.4507 34.9236 59.506 34.9078 59.5599 34.8913C59.6683 34.8597 59.7704 34.8296 59.8652 34.8009C60.3156 34.6725 60.7216 34.5771 61.1296 34.4989C61.3322 34.453 61.5384 34.4265 61.7489 34.3913C61.9594 34.3533 62.1785 34.3311 62.4099 34.3038C62.6434 34.2701 62.907 34.2565 63.185 34.23C63.254 34.2228 63.3244 34.2185 63.3956 34.2163C63.4667 34.2135 63.5385 34.2099 63.6111 34.207C63.6829 34.2034 63.7562 34.2006 63.8288 34.197C63.902 34.1927 63.9753 34.1905 64.0479 34.1919C64.341 34.1912 64.6341 34.1869 64.9114 34.2056C65.0508 34.2127 65.1866 34.2156 65.3159 34.2278C65.4452 34.2407 65.5695 34.2529 65.6866 34.2644C65.8677 34.2751 66.3253 34.3426 66.5049 34.3677C66.6019 34.382 66.571 34.3641 66.4352 34.3282C66.367 34.311 66.2721 34.2888 66.1536 34.2644C66.0358 34.24 65.8943 34.2127 65.7297 34.1962C65.6371 34.1848 65.5365 34.1719 65.4287 34.1589C65.3755 34.1518 65.3202 34.1446 65.2628 34.1374C65.206 34.1331 65.1471 34.1281 65.0867 34.1231C64.9653 34.1138 64.8374 34.1037 64.7045 34.093C64.5709 34.0801 64.4308 34.0829 64.285 34.0786C63.7023 34.0643 63.1319 34.1123 62.4609 34.1783C62.0205 34.2257 61.5521 34.2888 61.0951 34.377C60.8674 34.4222 60.6404 34.4624 60.4234 34.5197C60.2064 34.5735 59.9945 34.6216 59.7984 34.6847C59.6482 34.7306 59.4837 34.7772 59.3134 34.8346C59.1439 34.8963 58.9664 34.9602 58.7854 35.0254C58.6058 35.095 58.4262 35.1739 58.2466 35.2478C58.202 35.2664 58.1575 35.2851 58.1129 35.3037C58.0691 35.3245 58.0253 35.3453 57.9822 35.3654C57.896 35.4063 57.8105 35.4465 57.7264 35.4866C57.6431 35.5268 57.5605 35.5634 57.4814 35.6043C57.4038 35.6451 57.3277 35.6853 57.2544 35.7248C57.1086 35.8029 56.9721 35.8711 56.855 35.9392C56.6222 36.0762 56.4519 36.1759 56.3801 36.2154C56.2946 36.2627 56.3176 36.262 56.4498 36.2017C56.5159 36.1716 56.6093 36.1257 56.73 36.064C56.7903 36.0332 56.8578 35.998 56.9318 35.9593C57.008 35.9227 57.0906 35.8826 57.1811 35.8388Z" fill="white"/>
<path fill-rule="evenodd" clip-rule="evenodd" d="M59.9667 36.5718C60.2239 36.4449 60.5788 36.3222 60.9265 36.1838C61.0997 36.1113 61.2786 36.0575 61.4452 36.0023C61.6119 35.9478 61.7685 35.8969 61.9036 35.8524C61.9438 35.8388 61.9833 35.8258 62.0221 35.8129C62.0616 35.8022 62.1004 35.7921 62.1392 35.7814C62.2168 35.7613 62.2923 35.7412 62.367 35.7211C62.5164 35.6817 62.6608 35.6429 62.8052 35.6042C62.9489 35.5619 63.0969 35.5375 63.2471 35.5052C63.3979 35.4729 63.5531 35.4407 63.7169 35.4062C63.8829 35.3661 64.0718 35.3424 64.2694 35.3073C64.3685 35.29 64.4705 35.2721 64.5733 35.2549C64.6243 35.2456 64.6767 35.2362 64.7285 35.2276C64.7802 35.2176 64.8326 35.2097 64.8851 35.2047C65.0949 35.1803 65.3046 35.1566 65.5044 35.1337C65.6042 35.1236 65.7019 35.1093 65.7953 35.105C65.8894 35.1007 65.9792 35.0971 66.064 35.0935C66.1948 35.0863 66.5288 35.0691 66.6596 35.062C66.8011 35.0569 66.5633 35.011 66.087 35.0203C66.0195 35.0211 65.9462 35.0218 65.8686 35.0225C65.8298 35.0225 65.7896 35.0225 65.7479 35.0225C65.7062 35.0247 65.6638 35.0275 65.62 35.0304C65.4454 35.0411 65.2522 35.0541 65.0424 35.0734C64.9382 35.0849 64.8341 35.0892 64.7299 35.1086C64.6264 35.1265 64.5215 35.1444 64.4152 35.1631C64.3082 35.181 64.1997 35.1997 64.0876 35.2183C63.9763 35.2384 63.8599 35.252 63.7413 35.2807C63.5847 35.3123 63.4231 35.3453 63.26 35.3783C63.0969 35.412 62.9302 35.4371 62.7686 35.4837C62.6069 35.5253 62.446 35.5662 62.2901 35.6064C62.1349 35.6472 61.9833 35.6831 61.844 35.734C61.6299 35.805 61.3791 35.8933 61.1191 35.9858C60.8626 36.0898 60.6011 36.206 60.3568 36.3107C60.2965 36.3373 60.2361 36.3617 60.1794 36.3889C60.1226 36.4176 60.0673 36.4456 60.0148 36.4721C59.9085 36.5259 59.8108 36.5754 59.7246 36.6192C59.5522 36.7059 59.4264 36.7691 59.3733 36.7934C59.2461 36.8523 59.4437 36.8078 59.9667 36.5718Z" fill="white"/>
<path fill-rule="evenodd" clip-rule="evenodd" d="M70.7647 36.4277C70.7539 36.546 70.6304 36.6185 70.5176 36.6572C70.0125 36.8286 69.4593 36.7189 68.937 36.607C68.7775 36.5726 68.5872 36.5094 68.5541 36.3495C68.5318 36.2419 68.5987 36.1314 68.6892 36.0698C68.7804 36.0074 68.8911 35.9837 68.9995 35.9622C69.2862 35.9041 69.5786 35.8524 69.8703 35.8739C70.162 35.8954 70.458 35.9973 70.662 36.2075C70.7202 36.2677 70.7726 36.3445 70.7647 36.4277Z" fill="#DADBDC"/>
</svg>
