<svg width="83" height="88" viewBox="0 0 83 88" fill="none" xmlns="http://www.w3.org/2000/svg">
<ellipse cx="41.1448" cy="44.0523" rx="41.1448" ry="40.8445" fill="currentColor"/>
<circle cx="20.1219" cy="80.3919" r="6.90752" fill="currentColor"/>
<circle cx="2.40262" cy="81.2929" r="2.40262" fill="currentColor"/>
<circle cx="78.686" cy="72.8837" r="3.60393" fill="currentColor"/>
<circle cx="15.3169" cy="10.1153" r="4.50491" fill="currentColor"/>
<circle cx="21.3234" cy="1.70616" r="1.50164" fill="currentColor"/>
<path d="M28.4601 27.765C31.6686 29.1386 33.4668 29.5367 33.4668 29.5367C33.4668 29.5367 37.6685 23.2345 34.0803 22.5317C30.492 21.8289 23.6219 19.0531 22.879 18.8474C21.3476 18.4232 19.7712 18.8593 20.3531 20.9604C21.1524 23.8467 25.6075 26.5437 28.4601 27.765Z" fill="#FAC3B1"/>
<path d="M26.7387 35.4991C30.225 35.3347 32.0167 34.908 32.0167 34.908C32.0167 34.908 33.0466 27.404 29.5114 28.3377C25.9762 29.2714 18.5835 29.7723 17.8253 29.9114C16.2623 30.1981 15.0342 31.2785 16.4748 32.915C18.4537 35.163 23.6392 35.6452 26.7387 35.4991Z" fill="#FAC3B1"/>
<path d="M17.3368 49.6907C17.4257 49.0586 20.4451 41.4258 22.7979 38.5336C24.5814 36.3413 29.103 37.0419 31.4703 37.7539C31.0795 38.6877 30.2801 40.6816 28.6824 40.9726C26.6851 41.3363 26.3296 43.8647 24.2696 47.4426C22.9324 49.765 20.9757 51.4916 19.0673 51.2233C17.159 50.9549 17.2479 50.3228 17.3368 49.6907Z" fill="#FAC3B1"/>
<path d="M21.9837 54.6065C21.9394 54.0987 22.6049 47.6453 23.6026 45.0001C24.3588 42.9949 27.2578 42.7933 28.8297 42.9571C28.735 43.7501 28.5547 45.4377 27.6148 45.929C26.4399 46.5431 26.6171 48.5742 25.9075 51.706C25.447 53.7387 24.5107 55.4093 23.2915 55.5157C22.0723 55.6221 22.028 55.1143 21.9837 54.6065Z" fill="#FAC3B1"/>
<path d="M56.0865 83.6353C59.9407 81.7082 61.8678 79.0103 60.3261 75.1561C55.1872 68.9894 47.2987 59.5842 46.0653 58.9675C44.5236 58.1967 29.4924 57.0412 28.3362 57.8121C27.1799 58.5829 28.9373 63.4237 32.9612 67.4477C35.2737 69.7602 38.7462 71.3549 40.6697 73.9998C43.7527 78.2395 43.3676 80.1666 44.5239 82.8645C45.8453 85.9479 52.2323 85.5624 56.0865 83.6353Z" fill="#FAC3B1"/>
<rect x="26.4092" y="6.55157" width="26.9794" height="6.16673" fill="#C8C8C8"/>
<rect x="26.4092" y="12.7183" width="26.9794" height="38.542" fill="white"/>
<rect x="26.4092" y="51.2605" width="26.9794" height="6.16673" fill="#C8C8C8"/>
<path fill-rule="evenodd" clip-rule="evenodd" d="M25.6382 9.00977C25.6382 6.80063 27.429 5.00977 29.6382 5.00977H50.1593C52.3684 5.00977 54.1593 6.80063 54.1593 9.00977V58.052C54.1593 60.2611 52.3684 62.052 50.1593 62.052H29.6382C27.429 62.052 25.6382 60.2611 25.6382 58.052V9.00977ZM27.0293 12.8642C27.0293 10.655 28.8202 8.86417 31.0293 8.86417H48.7679C50.977 8.86417 52.7679 10.655 52.7679 12.8642V51.8855C52.7679 54.0946 50.977 55.8855 48.7679 55.8855H31.0293C28.8202 55.8855 27.0293 54.0946 27.0293 51.8855V12.8642ZM36.4582 6.55156C36.2453 6.55156 36.0728 6.72412 36.0728 6.93698C36.0728 7.14985 36.2453 7.32241 36.4582 7.32241H43.3393C43.5522 7.32241 43.7248 7.14985 43.7248 6.93698C43.7248 6.72412 43.5522 6.55156 43.3393 6.55156H36.4582Z" fill="#393939"/>
<path fill-rule="evenodd" clip-rule="evenodd" d="M33.8047 23.51C32.7001 23.51 31.8047 24.4054 31.8047 25.51V33.0726C31.8047 34.1772 32.7001 35.0726 33.8047 35.0726H34.5027L33.7319 37.385L39.5129 35.0726H45.9923C47.0969 35.0726 47.9923 34.1772 47.9923 33.0726V25.51C47.9923 24.4054 47.0969 23.51 45.9923 23.51H33.8047Z" fill="#DCED74"/>
<path d="M43.8977 29.5601C43.5438 30.4944 41.0962 32.5967 39.9167 33.531C38.8845 32.6745 36.6876 30.7747 36.1568 30.0272C35.4933 29.0928 35.4933 27.6915 36.1568 26.7571C36.6352 26.0834 37.4838 25.8227 38.1473 25.8226C38.8983 25.8225 39.9167 26.757 39.9167 26.757C39.9167 26.757 41.4648 25.3555 43.013 26.2899C44.2426 27.032 44.34 28.3921 43.8977 29.5601Z" fill="white"/>
<path d="M53.003 35.0731C53.5767 38.5157 54.1593 44.3226 52.6176 47.4059C51.0759 51.2601 49.5343 51.2601 46.4509 56.656C44.5387 60.0024 44.3313 65.5207 44.5238 67.4478C44.8028 70.2398 46.8363 74.386 47.2217 75.1568C47.5301 75.7735 51.4614 74.5139 55.701 77.8542C55.701 77.8542 61.0969 76.6991 60.326 75.1568C59.5552 73.6145 59.1698 73.6145 58.399 70.917C57.6283 68.2196 57.1596 67.312 59.1697 61.2817C61.0968 55.5003 61.8676 53.5728 61.8676 49.719C61.8676 47.4065 60.3259 42.0104 58.7843 37.3851C56.9278 31.8154 56.4742 27.8935 56.4717 26.9792C56.4685 25.7976 54.9302 25.8224 54.1592 26.5938C52.0421 28.7122 52.2321 30.448 53.003 35.0731Z" fill="#FAC3B1"/>
<path d="M44.6344 18.3088C44.1034 18.4605 43.7959 19.014 43.9477 19.5451C44.0994 20.0761 44.6529 20.3836 45.1839 20.2318L44.6344 18.3088ZM50.0759 23.8954C50.0759 24.4477 50.5236 24.8954 51.0759 24.8954C51.6282 24.8954 52.0759 24.4477 52.0759 23.8954H50.0759ZM45.1839 20.2318C46.1765 19.9482 47.4062 20.2191 48.42 20.949C49.4255 21.6731 50.0759 22.7449 50.0759 23.8954H52.0759C52.0759 21.9625 50.9919 20.3364 49.5886 19.326C48.1935 18.3215 46.3398 17.8215 44.6344 18.3088L45.1839 20.2318Z" fill="#DCED74"/>
<path d="M42.3162 8.36262C41.7861 8.51751 41.4819 9.07282 41.6368 9.60294C41.7917 10.1331 42.347 10.4372 42.8771 10.2824L42.3162 8.36262ZM60.0969 23.5101C60.0969 24.0624 60.5446 24.5101 61.0969 24.5101C61.6491 24.5101 62.0969 24.0624 62.0969 23.5101H60.0969ZM42.8771 10.2824C46.5592 9.20654 50.8663 10.2679 54.2891 12.7879C57.7023 15.3008 60.0969 19.1624 60.0969 23.5101H62.0969C62.0969 18.3995 59.2882 13.9848 55.4748 11.1773C51.671 8.37685 46.7279 7.07364 42.3162 8.36262L42.8771 10.2824Z" fill="#DCED74"/>
<path d="M43.855 13.5901C43.3253 13.7465 43.0227 14.3027 43.1791 14.8324C43.3355 15.362 43.8917 15.6647 44.4213 15.5083L43.855 13.5901ZM54.7008 23.5098C54.7008 24.0621 55.1485 24.5098 55.7008 24.5098C56.2531 24.5098 56.7008 24.0621 56.7008 23.5098H54.7008ZM44.4213 15.5083C46.5818 14.8704 49.1516 15.4931 51.2196 17.0316C53.2774 18.5625 54.7008 20.8999 54.7008 23.5098H56.7008C56.7008 20.146 54.8722 17.2563 52.4134 15.4269C49.9647 13.6052 46.7532 12.7344 43.855 13.5901L44.4213 15.5083Z" fill="#DCED74"/>
</svg>
