<svg width="95" height="89" viewBox="0 0 95 89" fill="none" xmlns="http://www.w3.org/2000/svg">
<ellipse cx="51.3558" cy="48.0524" rx="41.1448" ry="40.8445" fill="currentColor"/>
<circle cx="10.2111" cy="64.8707" r="6.00654" fill="currentColor"/>
<circle cx="87.3954" cy="7.50818" r="7.50818" fill="currentColor"/>
<circle cx="2.10229" cy="55.5605" r="2.10229" fill="currentColor"/>
<circle cx="13.8149" cy="77.4844" r="3.60393" fill="currentColor"/>
<circle r="1.50164" transform="matrix(1 0 0 -1 92.801 30.9337)" fill="currentColor"/>
<circle cx="83.4911" cy="18.6203" r="3.60393" fill="currentColor"/>
<path d="M74.21 56.6107C83.5345 56.6107 89.5465 56.6107 92.307 53.2366L85.5589 42.5012L49.0583 43.1146C40.9811 43.1146 24.6428 43.176 23.9066 43.4213C22.9864 43.7281 7.14057 53.0549 8.57015 54.7703C10.1039 56.6107 12.4614 56.3384 16.5452 56.6107C21.1461 56.9174 62.5543 56.6107 74.21 56.6107Z" fill="#284043"/>
<path fill-rule="evenodd" clip-rule="evenodd" d="M25.7471 59.3114C29.6434 59.3114 32.8019 56.1529 32.8019 52.2567C32.8019 48.3604 29.6434 45.2019 25.7471 45.2019C21.8509 45.2019 18.6924 48.3604 18.6924 52.2567C18.6924 56.1529 21.8509 59.3114 25.7471 59.3114ZM25.7472 57.4711C28.627 57.4711 30.9615 55.1365 30.9615 52.2567C30.9615 49.3769 28.627 47.0423 25.7472 47.0423C22.8673 47.0423 20.5328 49.3769 20.5328 52.2567C20.5328 55.1365 22.8673 57.4711 25.7472 57.4711Z" fill="#4A686B"/>
<path d="M29.7347 52.2567C29.7347 54.4589 27.9494 56.2442 25.7472 56.2442C23.545 56.2442 21.7598 54.4589 21.7598 52.2567C21.7598 50.0545 23.545 48.2692 25.7472 48.2692C27.9494 48.2692 29.7347 50.0545 29.7347 52.2567Z" fill="#284043"/>
<path fill-rule="evenodd" clip-rule="evenodd" d="M25.7471 57.4709C28.6269 57.4709 30.9615 55.1364 30.9615 52.2566C30.9615 49.3767 28.6269 47.0422 25.7471 47.0422C22.8673 47.0422 20.5327 49.3767 20.5327 52.2566C20.5327 55.1364 22.8673 57.4709 25.7471 57.4709ZM25.7471 55.6307C27.6105 55.6307 29.1211 54.1201 29.1211 52.2567C29.1211 50.3932 27.6105 48.8827 25.7471 48.8827C23.8837 48.8827 22.3731 50.3932 22.3731 52.2567C22.3731 54.1201 23.8837 55.6307 25.7471 55.6307Z" fill="#C7C7C7"/>
<path d="M25.2711 50.3548C25.315 49.7659 26.1789 49.7659 26.2228 50.3548L26.2288 50.4347C26.2553 50.7896 26.6433 50.995 26.9517 50.8175L27.1033 50.7302C27.6169 50.4345 28.1024 51.1539 27.636 51.5195V51.5195C27.3409 51.7509 27.4156 52.2165 27.7682 52.3441L27.8528 52.3747C28.4092 52.5759 28.1716 53.4089 27.592 53.2902V53.2902C27.2194 53.2139 26.9121 53.5843 27.0564 53.9362V53.9362C27.2798 54.4813 26.5083 54.8658 26.2076 54.3592L26.1615 54.2815C25.9747 53.9668 25.5167 53.9711 25.3299 54.2858V54.2858C25.0271 54.7959 24.2299 54.4428 24.4549 53.894V53.894C24.5961 53.5496 24.3068 53.1829 23.9389 53.2392V53.2392C23.3485 53.3294 23.1816 52.4681 23.7524 52.2923V52.2923C24.1031 52.1843 24.209 51.7336 23.9456 51.478V51.478C23.5214 51.066 24.0364 50.3637 24.5176 50.7075V50.7075C24.8203 50.9238 25.2434 50.7259 25.2711 50.3548V50.3548Z" fill="#E9E9E9"/>
<path fill-rule="evenodd" clip-rule="evenodd" d="M77.8907 59.3114C81.7869 59.3114 84.9454 56.1529 84.9454 52.2567C84.9454 48.3604 81.7869 45.2019 77.8907 45.2019C73.9945 45.2019 70.8359 48.3604 70.8359 52.2567C70.8359 56.1529 73.9945 59.3114 77.8907 59.3114ZM77.8906 57.4711C80.7705 57.4711 83.105 55.1365 83.105 52.2567C83.105 49.3769 80.7705 47.0423 77.8906 47.0423C75.0108 47.0423 72.6763 49.3769 72.6763 52.2567C72.6763 55.1365 75.0108 57.4711 77.8906 57.4711Z" fill="#4A686B"/>
<path fill-rule="evenodd" clip-rule="evenodd" d="M77.8906 57.4709C80.7705 57.4709 83.105 55.1364 83.105 52.2566C83.105 49.3767 80.7705 47.0422 77.8906 47.0422C75.0108 47.0422 72.6763 49.3767 72.6763 52.2566C72.6763 55.1364 75.0108 57.4709 77.8906 57.4709ZM77.8906 55.6307C79.754 55.6307 81.2646 54.1201 81.2646 52.2567C81.2646 50.3932 79.754 48.8827 77.8906 48.8827C76.0272 48.8827 74.5166 50.3932 74.5166 52.2567C74.5166 54.1201 76.0272 55.6307 77.8906 55.6307Z" fill="#C7C7C7"/>
<path d="M77.4146 50.3548C77.4586 49.7659 78.3225 49.7659 78.3664 50.3548L78.3723 50.4347C78.3988 50.7896 78.7869 50.995 79.0953 50.8175L79.2469 50.7302C79.7605 50.4345 80.246 51.1539 79.7796 51.5195V51.5195C79.4845 51.7509 79.5591 52.2165 79.9117 52.3441L79.9964 52.3747C80.5527 52.5759 80.3152 53.4089 79.7356 53.2902V53.2902C79.3629 53.2139 79.0556 53.5843 79.1999 53.9362V53.9362C79.4233 54.4813 78.6519 54.8658 78.3512 54.3592L78.305 54.2815C78.1183 53.9668 77.6602 53.9711 77.4734 54.2858V54.2858C77.1707 54.7959 76.3734 54.4428 76.5984 53.894V53.894C76.7396 53.5496 76.4504 53.1829 76.0824 53.2392V53.2392C75.4921 53.3294 75.3252 52.4681 75.8959 52.2923V52.2923C76.2467 52.1843 76.3525 51.7336 76.0892 51.478V51.478C75.6649 51.066 76.18 50.3637 76.6611 50.7075V50.7075C76.9639 50.9238 77.3869 50.7259 77.4146 50.3548V50.3548Z" fill="#E9E9E9"/>
<path d="M69.2607 55.6304H34.8025C34.1199 55.6304 33.5928 54.9465 33.6504 54.2664C33.7216 53.4252 33.7145 52.2202 33.415 50.7228C32.4334 45.8151 27.5872 43.9748 24.2132 44.5882C21.7594 45.0344 18.9989 47.3488 18.3854 50.1093C17.9485 52.0755 18.0555 53.4391 18.2971 54.4321C18.4496 55.0589 18.0805 55.7143 17.4371 55.7609C15.1221 55.9282 11.6293 55.8848 10.1037 55.6304C7.95671 55.2725 7.53118 52.2361 7.9566 50.1093C8.57016 47.0421 9.26693 46.0456 13.7844 43.668C19.6124 40.6008 29.4561 40.0537 31.8814 39.6806C35.869 39.0671 44.3897 33.9237 49.3649 32.6258C56.4198 30.7854 73.3903 30.7601 78.8108 32.6258C84.332 34.5262 91.025 37.7481 92.6137 40.6607C94.4542 44.035 94.7608 48.5756 92.9203 51.9497C91.7818 54.0368 88.9194 55.0776 86.8809 55.4608C86.2253 55.5841 85.7134 54.9746 85.8033 54.3136C86.923 46.0815 79.4165 42.8687 74.5167 45.2019C70.0944 47.3078 69.8738 51.5971 70.288 54.3869C70.3829 55.0266 69.9074 55.6304 69.2607 55.6304Z" fill="#D06262"/>
<path d="M42.6171 41.2152C47.0339 40.9698 70.2225 39.5795 81.2647 38.7615C82.3544 38.6808 83.1052 38.2681 83.1052 37.2866C83.1052 36.0597 80.0379 33.9126 75.1302 32.9924C70.2226 32.0722 61.9409 31.9325 53.6593 32.6858C45.3776 33.4391 35.869 39.6817 34.9488 40.9086C34.0286 42.1355 37.096 41.5219 42.6171 41.2152Z" fill="#4A686B"/>
<path d="M51.2055 36.0598C55.3988 35.361 66.3147 34.0051 76.3573 35.3868C77.0613 35.4836 78.8111 36.0598 78.5042 35.3868C78.1472 34.6037 73.4206 33.5624 70.2226 33.2498C67.0246 32.9371 59.1804 32.6857 54.2727 33.2498C49.8993 33.7524 43.844 36.0598 42.9239 36.98C42.4075 37.4964 47.5247 36.6733 51.2055 36.0598Z" fill="#709296"/>
<path d="M42.9236 43.054C51.5121 42.5005 73.287 41.0512 77.584 40.6606C80.958 40.3539 86.4789 40.354 86.479 39.9869C86.4791 39.7405 83.1056 39.68 76.971 39.9866C71.7331 40.2484 58.4572 41.0969 51.2054 41.5804C42.0036 42.1938 30.0412 42.8073 30.041 43.4207C30.0409 43.7875 37.0995 43.4293 42.9236 43.054Z" fill="#F69898"/>
<rect x="68.3823" y="40.7484" width="4.29419" height="1.22691" rx="0.613456" transform="rotate(-6.0712 68.3823 40.7484)" fill="#709296"/>
<rect x="51.2056" y="41.9755" width="4.29419" height="1.22691" rx="0.613456" transform="rotate(-6.0712 51.2056 41.9755)" fill="#709296"/>
<path d="M40.4406 38.422C41.611 37.943 41.8305 39.4606 42.0061 40.6748C42.1818 41.889 41.3452 42.0222 39.4057 41.9806C37.5404 41.9406 37.4965 41.6369 37.4087 41.0297C37.3209 40.4226 39.4171 38.8409 40.4406 38.422Z" fill="#F69898"/>
<path d="M30.3478 40.3541C29.7345 40.6608 26.0537 40.9675 18.9989 43.4214C15.3182 45.0147 15.0115 45.2617 12.5577 46.1819C10.1039 47.1021 11.024 46.4898 12.2509 45.2629C13.4778 44.036 15.9316 43.1158 19.6124 41.8889C23.2931 40.662 30.7002 40.1779 30.3478 40.3541Z" fill="#F69898"/>
<path d="M13.1709 53.4837C11.3305 52.8703 11.3306 53.1769 9.79691 51.9502C9.23825 51.5033 8.81538 50.3552 8.57 50.1098C8.26327 49.8031 7.95654 50.4176 7.95654 52.2579C7.95654 54.0983 8.53963 54.405 10.1036 54.405C11.944 54.405 14.7046 53.9949 13.1709 53.4837Z" fill="#4A686B"/>
<path d="M90.7731 50.4172C91.0799 49.497 92.0001 48.8836 93.227 48.5768C93.8405 48.4235 93.8405 49.19 93.5337 50.1103C93.4367 50.4013 92.9203 51.6433 92.0001 51.9501C91.0799 52.2568 90.4664 51.3374 90.7731 50.4172Z" fill="#4A686B"/>
<path d="M88.0129 40.6009C88.3196 39.9875 89.5464 39.9876 91.0801 40.2942C92.6137 40.6011 92.9205 41.828 93.2272 42.7482C93.5339 43.6684 94.1474 45.5087 93.5339 45.8155C92.9205 46.1222 92.0003 45.5086 89.8532 44.5884C87.7061 43.6682 87.7061 41.2144 88.0129 40.6009Z" fill="#B41E1E"/>
<path d="M90.2084 41.5102C90.3146 40.9781 90.9461 40.9149 91.7615 41.0938C92.5769 41.273 92.8382 42.2897 93.0737 43.0483C93.3092 43.8069 93.7802 45.324 93.4903 45.6138C93.2003 45.9036 92.6749 45.4346 91.492 44.771C90.3092 44.1073 90.1022 42.0423 90.2084 41.5102Z" fill="#F78282"/>
<path d="M14.7045 46.4283C14.3977 47.6552 13.478 47.9626 10.4103 49.1889C9.49008 49.3934 8.01813 49.5575 8.26352 48.576C8.57024 47.3491 11.2015 44.9382 12.2507 44.5885C14.0911 43.9751 15.0112 45.2014 14.7045 46.4283Z" fill="#C7C7C7"/>
</svg>
