<svg width="92" height="84" viewBox="0 0 92 84" fill="none" xmlns="http://www.w3.org/2000/svg">
<ellipse cx="44.7488" cy="41.0523" rx="41.1448" ry="40.8445" fill="currentColor"/>
<circle cx="83.1904" cy="21.531" r="8.70949" fill='currentColor'/>
<circle cx="76.8838" cy="4.41241" r="4.20458" fill="currentColor"/>
<circle r="1.20131" transform="matrix(1 0 0 -1 84.692 7.41563)" fill="currentColor"/>
<circle cx="3.60393" cy="62.0752" r="3.60393" fill="currentColor"/>
<circle cx="3.00307" cy="54.8673" r="1.20131" fill="currentColor"/>
<circle cx="78.6859" cy="75.2896" r="3.00327" fill="currentColor"/>
<circle cx="67.8741" cy="78.2929" r="4.80523" fill="currentColor"/>
<path fill-rule="evenodd" clip-rule="evenodd" d="M72.2361 63.8773C79.0712 63.8773 84.6121 58.3364 84.6121 51.5013C84.6121 44.6662 79.0712 39.1253 72.2361 39.1253C65.401 39.1253 59.8601 44.6662 59.8601 51.5013C59.8601 58.3364 65.401 63.8773 72.2361 63.8773ZM72.2367 59.3753C76.5863 59.3753 80.1123 55.8492 80.1123 51.4997C80.1123 47.1501 76.5863 43.624 72.2367 43.624C67.8871 43.624 64.3611 47.1501 64.3611 51.4997C64.3611 55.8492 67.8871 59.3753 72.2367 59.3753Z" fill="#5A5A5A"/>
<path d="M82.1368 51.5015H62.3352" stroke="#5A5A5A"/>
<path d="M77.3927 61.1134L67.0793 43.2502" stroke="#5A5A5A"/>
<path d="M77.3927 43.3418L67.0793 61.205" stroke="#5A5A5A"/>
<circle cx="72.2358" cy="51.502" r="4.9504" fill="#98AEA3"/>
<path fill-rule="evenodd" clip-rule="evenodd" d="M17.782 63.8773C24.6171 63.8773 30.158 58.3364 30.158 51.5013C30.158 44.6662 24.6171 39.1253 17.782 39.1253C10.9469 39.1253 5.40601 44.6662 5.40601 51.5013C5.40601 58.3364 10.9469 63.8773 17.782 63.8773ZM17.7826 59.3753C22.1322 59.3753 25.6583 55.8492 25.6583 51.4997C25.6583 47.1501 22.1322 43.624 17.7826 43.624C13.433 43.624 9.90699 47.1501 9.90699 51.4997C9.90699 55.8492 13.433 59.3753 17.7826 59.3753Z" fill="#5A5A5A"/>
<path d="M27.6827 51.5015H7.8811" stroke="#5A5A5A"/>
<path d="M22.9386 61.1134L12.6252 43.2502" stroke="#5A5A5A"/>
<path d="M22.9386 43.3418L12.6252 61.205" stroke="#5A5A5A"/>
<circle cx="17.7817" cy="51.502" r="4.9504" fill="#98AEA3"/>
<path d="M83.3535 38.8714C82.487 37.86 81.2441 36.6477 79.6248 36C76.6075 34.7931 71.265 35.9966 69.593 36.554C71.0792 35.2536 75.2043 32.3627 79.0675 33.7673C82.5093 35.0187 83.8432 36.9741 84.3511 38.4485C84.6221 39.2353 83.895 39.5034 83.3535 38.8714Z" fill="#59646A"/>
<path d="M55.7397 56.6171H32.3543C31.4049 56.6171 31.0003 55.4286 31.7542 54.8517C35.2404 52.1841 37.0296 50.7303 37.0296 47.4577C37.0296 41.606 34.5349 40.9153 34.5349 40.9153C28.2983 33.0643 24.0573 31.7558 22.0616 31.7558C20.0659 31.7558 18.7354 28.2665 18.3196 26.5219C23.3089 26.5219 34.2855 26.7835 38.277 27.8303C42.2684 28.8771 44.9294 30.8835 45.761 31.7558L53.9881 38.2256C55.1027 39.8975 60.1186 44.9134 63.2237 46.1492C64.7607 46.7609 69.5803 49.0076 72.6928 50.6769C73.5294 51.1256 73.2319 52.0447 72.285 51.9769C68.871 51.7326 63.5327 51.4094 60.6759 52.1586C56.6845 53.2054 57.332 56.6171 55.7397 56.6171Z" fill="#59646A"/>
<path d="M65.6915 39.8977L77.3952 33.2096C77.3952 33.2096 78.5099 32.0952 77.3952 30.4232C76.7394 29.4395 75.1659 29.8658 75.1659 29.8658L62.9048 36.5545L61.2329 38.7838L53.9877 43.2425C53.9877 43.2425 52.9845 44.0228 53.4304 44.9145C53.9877 46.0291 55.1023 45.4718 55.1023 45.4718L62.9049 40.455L65.6915 39.8977Z" fill="#98AEA3"/>
<path d="M39.3575 50.636L33.276 51.9391C32.7184 52.0586 32.1718 51.69 32.059 51.1309C31.6715 49.211 30.7273 45.1971 29.4658 44.356C27.6109 43.1195 27.2365 44.9133 25.5646 43.7986C23.8926 42.684 21.6633 39.8974 16.6474 39.8974C11.6007 39.8974 10.5169 40.4547 9.95962 40.4547C9.4023 40.4547 11.6317 38.2255 14.9756 37.6682C16.65 37.3891 18.63 37.3138 20.2871 37.3876C21.0175 37.4202 21.157 36.9591 20.5487 36.5536C19.2369 35.6791 14.4182 35.4388 12.7461 34.8815C9.89885 33.9325 12.4398 30.7292 13.8608 29.3084C16.0901 27.0791 27.7938 16.49 29.4657 17.0473C31.1377 17.6047 31.6951 20.9486 31.1377 22.0632C30.6391 23.0602 27.7936 24.2925 23.3351 25.9645C18.8765 27.6364 19.6395 29.4455 21.106 30.423C22.7782 31.5377 27.2363 32.095 35.0388 33.2096C40.6082 34.0053 45.7043 36.9305 48.1894 38.7394C48.6325 39.0619 48.6963 39.6846 48.3539 40.1125L40.5001 49.9297C40.2121 50.2899 39.8084 50.5393 39.3575 50.636Z" fill="#9CD6A1"/>
<path d="M14.9753 33.767C15.5326 33.2097 15.5326 33.2097 16.09 31.5377L16.6473 29.3084C16.7861 28.8919 16.1982 28.4936 15.8534 28.7653C15.4776 29.0614 15.0059 29.4248 14.418 29.8658C13.421 30.6135 12.1887 31.8686 12.1887 33.2097C12.1887 34.3243 14.5812 34.1611 14.9753 33.767Z" fill="#D0F4D3"/>
<path d="M32.8097 45.4707C32.2524 43.7988 31.1377 42.6842 31.1377 42.6842L41.7327 38.648C42.8911 38.2067 43.6586 39.8508 42.5765 40.4555L35.5963 44.3562L39.1064 43.4786C40.1885 43.2081 40.8342 44.6442 39.9137 45.2741L33.9243 49.372C33.9243 49.372 33.3384 47.0569 32.8097 45.4707Z" fill="#59646A"/>
<path d="M29.4658 17.0475C30.5804 17.0475 31.6951 19.2768 31.1377 19.8341L22.2206 23.178C21.4593 23.5933 20.8056 22.6274 21.4855 22.089C22.532 21.2603 23.5743 20.4594 24.4499 19.834C28.351 17.0475 28.6776 17.0475 29.4657 17.0475H29.4658Z" fill="#59646A"/>
<path d="M37.8254 54.9452H52.8731" stroke="#98AEA3" stroke-linecap="round"/>
<path d="M55.6601 31.537C57.8893 32.0944 60.6759 30.9797 63.4625 29.3078C65.3203 27.6358 70.0389 24.1811 71.8223 23.7352C73.1142 23.4122 77.1157 23.4593 80.565 23.5804C81.5719 23.6158 81.878 24.9397 80.9933 25.4218C70.5872 31.0925 54.2368 39.8969 53.4308 39.8969C52.3161 39.8969 50.0869 36.553 47.8576 34.3237C45.6283 32.0944 43.399 30.4225 41.1697 29.8652C38.9404 29.3078 33.9246 29.8652 33.9246 28.1932C33.9246 26.5212 37.2685 24.8495 41.1697 24.2922C45.071 23.7349 48.5571 24.0753 51.2015 25.9642C55.1027 28.7508 53.4308 30.9797 55.6601 31.537Z" fill="#9CD6A1"/>
<path d="M79.6123 24.0318C79.0984 24.5406 78.1243 25.2295 76.2809 25.9658C74.5025 26.6763 71.589 26.253 69.7136 25.8538C68.9363 25.6883 68.7467 24.7518 69.4149 24.3217C70.1332 23.8593 71.0123 23.3804 71.8224 23.1779C73.3461 22.797 76.8769 22.9316 79.1473 23.0947C79.7133 23.1354 80.0155 23.6326 79.6123 24.0318Z" fill="#59646A"/>
<path d="M62.3479 32.6524C65.6701 31.8219 66.5172 29.6998 66.5111 28.0442C66.5084 27.3169 65.6563 27.0967 65.1044 27.5704C63.8733 28.6269 62.034 30.0227 60.1186 30.9804C58.6437 31.7179 56.5928 31.3033 55.0494 30.7829C54.6689 30.6546 54.2614 31.2538 54.5454 31.5377C55.4266 32.4188 57.8892 33.767 62.3479 32.6524Z" fill="#59646A"/>
<path d="M21.6694 46.9623L25.4349 41.3506C25.4349 41.3506 25.6872 40.6321 24.8147 40.2765C24.3014 40.0672 23.6899 40.6394 23.6899 40.6394L19.6743 46.3958L19.4199 47.6885L17.1598 51.2852C17.1598 51.2852 16.8831 51.846 17.2817 52.0742C17.78 52.3595 18.1563 51.8557 18.1563 51.8557L20.5425 47.8994L21.6694 46.9623Z" fill="#59646A"/>
<path d="M74.6086 30.981C74.6086 30.1929 75.1659 29.308 76.2806 29.3085C79.0672 29.8659 78.5099 32.6525 77.3952 33.2098C76.2806 33.7671 74.6086 32.0957 74.6086 30.981Z" fill="#59646A"/>
<path d="M77.3953 34.1391C77.3953 33.7011 77.8989 33.2094 78.9064 33.2097C81.4249 33.5194 80.9212 35.0678 79.9138 35.3775C78.9064 35.6872 77.3953 34.7584 77.3953 34.1391Z" fill="#D57670"/>
</svg>
