<svg width="96" height="85" viewBox="0 0 96 85" fill="none" xmlns="http://www.w3.org/2000/svg">
<circle cx="49.8543" cy="44.0523" r="40.8445" fill="currentColor"/>
<circle cx="86.7944" cy="70.1807" r="8.10883" fill="currentColor"/>
<circle cx="10.5113" cy="4.70944" r="4.50491" fill="currentColor"/>
<circle cx="93.1013" cy="58.468" r="2.40262" fill="currentColor"/>
<circle cx="9.31037" cy="67.1775" r="2.70294" fill="currentColor"/>
<circle cx="4.50491" cy="56.9663" r="4.50491" fill="currentColor"/>
<circle cx="15.3168" cy="14.9205" r="3.3036" fill="currentColor"/>
<circle cx="24.3264" cy="8.31335" r="2.10229" fill="currentColor"/>
<rect x="15.3306" y="66.0999" width="73.0914" height="3.78059" rx="1.89029" fill="#BACF7B"/>
<path d="M34.8638 66.0999V52.5528M34.8638 52.5528V45.6217L46.2055 45.3066C45.4704 47.0919 43.3701 50.8515 40.8497 51.6076C38.3293 52.3637 35.8089 52.5528 34.8638 52.5528Z" stroke="#595353"/>
<path d="M34.8636 56.6973C33.0448 56.7701 29.9054 56.2582 27.9805 54.1769M27.9805 54.1769C27.1269 53.254 26.5122 52.0224 26.3573 50.3963C25.8532 45.1035 29.5078 45.2505 31.3981 45.9857C31.8501 47.8759 31.7995 52.1606 27.9805 54.1769Z" stroke="#595353"/>
<path d="M28.5629 9.12544C28.0782 9.51324 27.7171 9.9752 27.4596 10.4615C27.0174 11.2967 25.3741 12.1952 24.462 11.9477C23.0426 11.5627 21.1493 11.5468 19.1114 12.9055C17.6068 13.9086 17.128 15.8453 17.16 17.4648C17.1766 18.3071 16.3411 18.9215 15.5117 19.0691C15.0346 19.154 14.5382 19.4507 14.0707 20.1521C13.5603 20.9179 13.5338 21.8327 13.6921 22.5827C13.8143 23.1621 13.597 23.8178 13.063 24.0735C11.167 24.9813 8.7652 26.5796 9.02988 30.5488C9.22012 33.4017 11.1325 34.7861 12.5322 35.3305C13.0272 35.5231 13.3686 35.9994 13.3086 36.5272C13.2063 37.4263 13.2529 38.5205 14.3857 39.3701C15.1632 39.9532 15.8384 40.0886 16.4113 40.051C17.1208 40.0043 17.6397 40.4352 17.4989 41.1322C17.3081 42.0767 17.3143 43.2436 18.4814 44.4109C19.4099 45.3395 20.9866 45.4592 22.235 45.2695C22.781 45.1865 23.343 45.4684 23.58 45.9673C24.1632 47.195 25.369 48.9326 27.6178 49.1367C30.4264 49.3915 32.2005 48.5435 33.2752 47.5979C33.6681 47.2523 34.2567 47.1565 34.7306 47.3782C36.1844 48.0585 38.6756 48.8211 39.9046 48.8211C41.4168 48.8211 42.0049 46.8257 42.425 45.9856L50.2289 25.3843C50.2767 25.258 50.2972 25.1233 50.2971 24.9883C50.2946 22.5348 51.9872 20.0328 48.4111 15.7415C47.6767 14.8603 46.1936 14.2929 44.772 13.952C43.8698 13.7357 42.6168 11.6754 41.8967 11.0906C41.8644 11.0644 41.8305 11.0394 41.795 11.0157C41.084 10.5417 39.8858 8.58922 39.3503 7.92335C39.2452 7.79268 39.1161 7.66709 38.9595 7.54963C38.2955 7.05162 37.7773 7.04941 37.3127 7.22024C36.6812 7.45242 36.0042 7.17193 35.6171 6.62166C35.1241 5.92095 34.3186 5.45329 33.2886 5.65942C32.6511 5.78702 32.3288 6.5039 32.1686 7.27972C31.9959 8.11582 30.932 8.60283 30.0787 8.5773C29.6091 8.56325 29.092 8.70221 28.5629 9.12544Z" fill="#BACF7B"/>
<path d="M26.0424 39.9994C25.8236 39.9557 25.6185 39.8998 25.4262 39.8336C24.3989 39.4802 19.1956 36.9041 18.208 36.4516C17.7231 36.2295 17.1859 35.946 16.5909 35.589C15.3852 34.8655 14.8716 33.8651 14.697 32.9058C14.5243 31.9563 12.9376 30.7351 12.1287 30.2087C11.728 29.9479 11.3977 29.4706 11.2351 28.6577C11.0215 27.5894 9.9939 26.3006 9.54331 27.2924C9.15213 28.1535 8.94114 29.2178 9.02988 30.5485C9.22012 33.4015 11.1325 34.7858 12.5322 35.3303C13.0272 35.5228 13.3686 35.9992 13.3086 36.5269C13.2063 37.426 13.2529 38.5202 14.3857 39.3699C15.1632 39.953 15.8384 40.0884 16.4113 40.0507C17.1208 40.0041 17.6397 40.435 17.4989 41.132C17.3081 42.0765 17.3143 43.2434 18.4814 44.4107C19.4099 45.3393 20.9866 45.4589 22.235 45.2692C22.781 45.1863 23.343 45.4682 23.58 45.967C24.1632 47.1948 25.369 48.9323 27.6178 49.1364C30.4264 49.3913 32.2005 48.5432 33.2752 47.5976C33.6681 47.252 34.2567 47.1562 34.7306 47.378C36.1844 48.0582 38.6756 48.8208 39.9046 48.8208C41.2614 48.8208 41.8742 47.2146 42.2893 46.2776C42.3743 46.0858 42.4069 45.8739 42.3733 45.6668L40.5347 34.3288C40.3246 33.0686 39.9046 40.3147 33.2885 40.3147C32.4606 40.3147 31.6931 39.8916 31.0919 39.4161C30.4723 38.926 29.3236 39.0482 28.6809 39.5077C28.084 39.9344 27.2254 40.2359 26.0424 39.9994Z" fill="#8EA059"/>
<path d="M40.8496 66.4149H84.6414V33.3347L60.3827 9.07593L40.8496 28.609V66.4149Z" fill="#EBBC74"/>
<path d="M37.0693 66.0998L61.3281 66.4149V33.0197L48.7262 20.4177L37.0693 32.3896V66.0998Z" fill="#FFD594"/>
<path d="M85.2715 59.4838H58.1772V59.7988V66.7299H85.2715V59.4838Z" fill="#67502D"/>
<path d="M61.9578 59.4838H36.7539V59.8125V67.0449H61.9578V59.4838Z" fill="#937951"/>
<path d="M68.2588 44.9916V63.2644H77.3952V44.9916H68.2588Z" fill="#7A655E"/>
<path d="M65.4233 64.8396V63.2644H80.2306V64.8396H65.4233Z" fill="#5A4943"/>
<path d="M81.4913 64.8396H64.1636V66.7299H81.4913V64.8396Z" fill="#7A655E"/>
<circle cx="69.5193" cy="56.3333" r="0.630098" fill="#FFD594"/>
<path d="M51.2466 55.7032V44.9916H58.1777V55.7032H51.2466Z" fill="#9FBCC4"/>
<path d="M51.2466 55.7032V44.9916H58.1777V55.7032H51.2466Z" stroke="white"/>
<path d="M54.7119 55.7031V45.3065" stroke="white"/>
<path d="M39.9048 55.7032V44.9916H46.8359V55.7032H39.9048Z" fill="#9FBCC4"/>
<path d="M39.9048 55.7032V44.9916H46.8359V55.7032H39.9048Z" stroke="white"/>
<path d="M43.3701 55.7031V45.3065" stroke="white"/>
<path d="M45.5752 40.5809V29.8692H52.5063V40.5809H45.5752Z" fill="#9FBCC4"/>
<path d="M45.5752 40.5809V29.8692H52.5063V40.5809H45.5752Z" stroke="white"/>
<path d="M49.0405 40.5809V30.1843" stroke="white"/>
<path d="M69.519 40.5809V29.8692H76.4501V40.5809H69.519Z" fill="#9FBCC4"/>
<path d="M69.519 40.5809V29.8692H76.4501V40.5809H69.519Z" stroke="white"/>
<path d="M72.9844 40.5809V30.1843" stroke="white"/>
<path d="M33.6035 35.5401L60.3827 8.76093L87.1619 35.5401" stroke="#50413C" stroke-width="4" stroke-linecap="round" stroke-linejoin="round"/>
<path d="M33.6035 35.5401L48.7259 20.4177L63.8482 35.5401" stroke="#50413C" stroke-width="4" stroke-linecap="round" stroke-linejoin="round"/>
<circle cx="60.6979" cy="20.4177" r="2.65049" fill="#9FBCC4" stroke="white"/>
<path d="M60.6978 17.5823V22.9381" stroke="white"/>
<path d="M58.1772 20.4177H63.5331" stroke="white"/>
<path d="M39.9048 67.9902V65.527M39.9048 65.527V64.2668L36.1242 63.5795C36.3284 63.9041 37.5419 65.2177 38.242 65.3552C38.9421 65.4927 39.6422 65.527 39.9048 65.527Z" stroke="#595353"/>
<path d="M39.9047 66.0984C40.5746 66.1149 41.7309 65.9986 42.4399 65.5256M42.4399 65.5256C42.7543 65.3159 42.9807 65.036 43.0378 64.6665C43.2234 63.4638 41.8774 63.4972 41.1811 63.6642C41.0146 64.0938 41.0333 65.0674 42.4399 65.5256Z" stroke="#595353"/>
<path d="M56.917 67.9901V64.706M56.917 64.706V63.0257L53.7665 62.9493C53.9707 63.3821 54.5541 64.2936 55.2542 64.4769C55.9543 64.6602 56.6545 64.706 56.917 64.706Z" stroke="#595353"/>
<path d="M56.9174 66.098C57.5873 66.1186 58.7436 65.9732 59.4526 65.382M59.4526 65.382C59.767 65.1199 59.9934 64.77 60.0505 64.3081C60.2361 62.8047 58.8901 62.8465 58.1938 63.0553C58.0273 63.5922 58.046 64.8093 59.4526 65.382Z" stroke="#595353"/>
<path d="M48.7261 67.9901V64.706M48.7261 64.706V63.0257L51.2465 62.9493C51.0831 63.3821 50.6164 64.2936 50.0563 64.4769C49.4962 64.6602 48.9361 64.706 48.7261 64.706Z" stroke="#595353"/>
<path d="M48.726 66.098C48.19 66.1186 47.265 65.9732 46.6978 65.382M46.6978 65.382C46.4463 65.1199 46.2651 64.77 46.2195 64.3081C46.071 62.8047 47.1478 62.8465 47.7048 63.0553C47.838 63.5922 47.8231 64.8093 46.6978 65.382Z" stroke="#595353"/>
<path d="M42.4119 56.6482C41.876 56.7248 41.4621 56.842 41.1456 56.9859C40.6953 57.1906 39.4368 57.355 39.019 57.09C38.4994 56.7603 37.8307 56.5192 37.0561 56.6482C36.4668 56.7464 35.9565 57.345 35.6646 57.851C35.5442 58.0597 35.3117 58.1802 35.0791 58.1171C34.492 57.9578 33.6672 57.8091 33.2755 58.8537C32.6978 60.3949 33.0621 61.347 33.4325 61.8543C33.6292 62.1237 33.6642 62.5598 33.5237 62.8623C33.2986 63.3469 33.2255 64.0933 34.2206 64.8396C35.1388 65.5282 36.2241 64.879 36.7457 64.4758C36.9343 64.3301 37.2027 64.2981 37.4208 64.3943C38.08 64.685 39.3543 65.1083 39.8915 64.8396C40.3435 64.6137 42.1375 64.5215 42.581 64.7634C42.6279 64.789 42.6765 64.8144 42.727 64.8396C43.9193 65.4358 44.7016 64.604 45.2991 64.0982C45.4532 63.9678 45.6714 63.9687 45.852 64.0589C46.2762 64.2706 46.9839 64.5246 47.7678 64.5246C48.6121 64.5246 49.5155 64.0826 50.0335 63.7539C50.1934 63.6524 50.3956 63.6319 50.5562 63.7322C51.3576 64.2322 52.4063 65.1692 54.3838 64.8396C55.5489 64.6454 56.4772 64.1271 56.938 63.8033C57.114 63.6796 57.3391 63.6603 57.5198 63.7772C58.0494 64.1195 59.2115 64.7481 60.9998 64.5246C62.5064 64.3363 62.6621 63.6977 62.5437 63.2144C62.4655 62.8956 62.5539 62.4996 62.8248 62.3142C63.1601 62.0848 63.5202 61.7507 63.5202 61.3741C63.5202 61.1957 63.4978 61.0397 63.4613 60.904C63.3544 60.5061 63.4226 59.8057 63.6058 59.4366C63.7281 59.1901 63.7515 58.8856 63.5202 58.5386C63.215 58.0808 62.5834 58.267 62.1481 58.569C61.9448 58.7101 61.6762 58.7491 61.46 58.6286C61.203 58.4852 60.8355 58.3166 60.3697 58.2235C59.3218 58.014 58.5992 58.2227 58.0164 58.4786C57.6609 58.6348 57.2274 58.3477 57.0609 57.997C56.8725 57.6001 56.4745 57.171 55.644 56.9634C54.5554 56.6913 53.614 57.2306 53.0506 57.6861C52.768 57.9146 52.2444 57.8881 51.9364 57.6951C51.6893 57.5402 51.355 57.3876 50.9182 57.2784C49.4242 56.9049 48.7791 57.3316 48.3032 57.7594C48.0461 57.9905 47.6712 57.867 47.4828 57.577C47.2723 57.2529 46.9515 56.9634 46.5076 56.9634C46.3052 56.9634 46.1285 57.0235 45.9761 57.1197C45.5835 57.3674 44.8669 57.4053 44.5144 57.1034C44.1036 56.7516 43.459 56.4987 42.4119 56.6482Z" fill="#BACF7B"/>
<path d="M40.8369 62.3194C39.0765 62.5708 38.6335 59.8111 38.6316 60.4248L38.6316 60.4312C38.6319 60.504 38.6195 62.3191 36.7413 62.3193C35.5455 62.3194 34.4757 60.9325 33.851 59.9134C33.6182 59.5336 33.0335 59.5811 32.9901 60.0245C32.9046 60.8984 33.167 61.4907 33.4325 61.8543C33.6292 62.1237 33.6642 62.5598 33.5237 62.8623C33.2986 63.3469 33.2255 64.0933 34.2206 64.8396C35.1388 65.5282 36.2241 64.879 36.7457 64.4758C36.9342 64.3301 37.2027 64.2981 37.4208 64.3943C38.08 64.685 39.3543 65.1083 39.8915 64.8396C40.3435 64.6137 42.1375 64.5215 42.581 64.7634C42.6279 64.789 42.6765 64.8144 42.727 64.8396C43.9193 65.4358 44.7016 64.604 45.2991 64.0982C45.4532 63.9678 45.6714 63.9687 45.852 64.0589C46.2762 64.2706 46.9839 64.5246 47.7678 64.5246C48.6121 64.5246 49.5155 64.0826 50.0335 63.7539C50.1934 63.6524 50.3956 63.632 50.5562 63.7322C51.3576 64.2322 52.4063 65.1692 54.3838 64.8396C55.5489 64.6454 56.4772 64.1271 56.938 63.8033C57.114 63.6796 57.3391 63.6603 57.5198 63.7772C58.0494 64.1195 59.2115 64.7481 60.9998 64.5246C62.5064 64.3363 62.6621 63.6977 62.5437 63.2144C62.4655 62.8956 62.5539 62.4996 62.8248 62.3142C63.1601 62.0848 63.5202 61.7507 63.5202 61.3741C63.5202 60.5269 63.014 60.186 62.909 60.1244C62.8964 60.117 62.8834 60.1067 62.8691 60.1098C62.7047 60.1458 62.4976 61.7282 60.685 62.6343C59.6551 63.1492 57.9974 62.1167 57.1411 61.4905C56.8639 61.2879 56.4369 61.3848 56.2286 61.6576C55.8613 62.1386 55.1847 62.7636 54.069 62.9495C52.8907 63.1459 52.3245 62.4854 52.0651 61.96C51.9238 61.6738 51.583 61.485 51.2837 61.5959C50.7106 61.8081 49.809 62.1242 49.0282 62.3194C48.0202 62.5714 47.3257 62.4349 46.8764 62.2254C46.525 62.0616 45.9361 62.118 45.6292 62.3548C45.3168 62.5958 44.8745 62.7775 44.3025 62.6345C44.2098 62.6113 44.1222 62.5813 44.0395 62.5456C43.5457 62.3327 41.6499 62.1289 41.1289 62.2619C41.0367 62.2854 40.9395 62.3048 40.8369 62.3194Z" fill="#8EA059"/>
</svg>
