<svg width="87" height="93" viewBox="0 0 87 93" fill="none" xmlns="http://www.w3.org/2000/svg">
<ellipse cx="42.2874" cy="46.0523" rx="41.4451" ry="40.8445" fill="currentColor"/>
<circle cx="18.2612" cy="86.8968" r="4.20458" fill="currentColor"/>
<circle cx="33.5779" cy="86.5965" r="6.30687" fill="currentColor"/>
<circle cx="78.3266" cy="16.0196" r="3.60393" fill="currentColor"/>
<circle cx="68.1155" cy="7.00979" r="6.6072" fill="currentColor"/>
<circle cx="85.2341" cy="12.1153" r="1.50164" fill="currentColor"/>
<circle cx="14.3572" cy="3.10553" r="2.70294" fill="currentColor"/>
<circle cx="8.35069" cy="4.90745" r="0.900981" fill="currentColor"/>
<path fill-rule="evenodd" clip-rule="evenodd" d="M19.8606 61.5741C30.4951 61.5741 39.1161 52.9531 39.1161 42.3186C39.1161 31.684 30.4951 23.063 19.8606 23.063C9.22599 23.063 0.60498 31.684 0.60498 42.3186C0.60498 52.9531 9.22599 61.5741 19.8606 61.5741ZM19.8603 56.5507C27.7206 56.5507 34.0927 50.1786 34.0927 42.3183C34.0927 34.458 27.7206 28.0859 19.8603 28.0859C12 28.0859 5.62793 34.458 5.62793 42.3183C5.62793 50.1786 12 56.5507 19.8603 56.5507Z" fill="#2F484B"/>
<path fill-rule="evenodd" clip-rule="evenodd" d="M19.8603 56.5513C27.7206 56.5513 34.0927 50.1793 34.0927 42.3189C34.0927 34.4586 27.7206 28.0865 19.8603 28.0865C12 28.0865 5.62793 34.4586 5.62793 42.3189C5.62793 50.1793 12 56.5513 19.8603 56.5513ZM19.8606 51.5283C24.9466 51.5283 29.0697 47.4052 29.0697 42.3191C29.0697 37.233 24.9466 33.11 19.8606 33.11C14.7745 33.11 10.6514 37.233 10.6514 42.3191C10.6514 47.4052 14.7745 51.5283 19.8606 51.5283Z" fill="#F2F4FF"/>
<path d="M19.3989 35.8301C19.454 35.0794 20.5555 35.0794 20.6106 35.8301L20.8612 39.2449C20.8941 39.6933 21.3858 39.9518 21.7739 39.7248L25.0145 37.8284C25.6652 37.4476 26.2895 38.3579 25.6999 38.8277L22.9338 41.0318C22.5634 41.327 22.6582 41.9137 23.1028 42.0771L26.5206 43.3335C27.2269 43.5932 26.9239 44.6517 26.1872 44.4984L22.7887 43.791C22.3135 43.6921 21.92 44.1628 22.1015 44.6129L23.3607 47.7349C23.6424 48.4334 22.6526 48.9188 22.2728 48.2684L20.5293 45.2832C20.2949 44.8817 19.7147 44.8817 19.4802 45.2832L17.7368 48.2684C17.357 48.9188 16.3672 48.4334 16.6489 47.7349L17.933 44.5511C18.1093 44.114 17.7422 43.6513 17.2764 43.7236L13.7781 44.2671C13.0353 44.3825 12.786 43.3117 13.5033 43.0871L16.9553 42.0066C17.3926 41.8697 17.5266 41.3164 17.2005 40.9945L14.7173 38.5439C14.1827 38.0163 14.8932 37.1786 15.5009 37.62L18.1941 39.5759C18.5793 39.8556 19.122 39.6036 19.1568 39.1288L19.3989 35.8301Z" fill="white"/>
<path fill-rule="evenodd" clip-rule="evenodd" d="M63.395 53.2024C71.2553 53.2024 77.6274 46.8304 77.6274 38.9701C77.6274 31.1097 71.2553 24.7377 63.395 24.7377C55.5347 24.7377 49.1626 31.1097 49.1626 38.9701C49.1626 46.8304 55.5347 53.2024 63.395 53.2024ZM63.3952 48.1793C68.4813 48.1793 72.6044 44.0562 72.6044 38.9701C72.6044 33.884 68.4813 29.7609 63.3952 29.7609C58.3091 29.7609 54.186 33.884 54.186 38.9701C54.186 44.0562 58.3091 48.1793 63.3952 48.1793Z" fill="#CAC3D9"/>
<path fill-rule="evenodd" clip-rule="evenodd" d="M63.395 53.2024C71.2553 53.2024 77.6274 46.8304 77.6274 38.9701C77.6274 31.1097 71.2553 24.7377 63.395 24.7377C55.5347 24.7377 49.1626 31.1097 49.1626 38.9701C49.1626 46.8304 55.5347 53.2024 63.395 53.2024ZM63.3949 51.528C70.3304 51.528 75.9528 45.9056 75.9528 38.97C75.9528 32.0344 70.3304 26.412 63.3949 26.412C56.4593 26.412 50.8369 32.0344 50.8369 38.97C50.8369 45.9056 56.4593 51.528 63.3949 51.528Z" fill="#7E8BAB"/>
<path d="M62.4176 30.3381C62.6937 29.3706 64.0647 29.3706 64.3408 30.3381L65.4306 34.1569C65.5787 34.6758 66.1119 34.9836 66.6354 34.8524L70.4875 33.8868C71.4633 33.6422 72.1489 34.8296 71.4491 35.5524L68.6868 38.4056C68.3114 38.7934 68.3114 39.409 68.6868 39.7967L71.4491 42.65C72.1489 43.3728 71.4633 44.5601 70.4875 44.3155L66.6354 43.3499C66.1119 43.2187 65.5787 43.5265 65.4306 44.0455L64.3408 47.8643C64.0647 48.8317 62.6937 48.8317 62.4176 47.8643L61.3278 44.0455C61.1796 43.5265 60.6465 43.2187 60.123 43.3499L56.2709 44.3155C55.295 44.5601 54.6095 43.3728 55.3093 42.65L58.0716 39.7967C58.4469 39.409 58.4469 38.7934 58.0716 38.4056L55.3093 35.5524C54.6095 34.8296 55.295 33.6422 56.2709 33.8868L60.123 34.8524C60.6465 34.9836 61.1796 34.6758 61.3278 34.1569L62.4176 30.3381Z" fill="white"/>
<rect x="26.8354" y="42.5958" width="28.4648" height="5.02319" rx="1" fill="#5A5A5A"/>
<rect width="5.02319" height="5.02319" rx="1" transform="matrix(1 0 0 -1 30.1846 45.9444)" fill="#FEA4A4"/>
<rect x="26.8354" y="44.27" width="28.4648" height="21.7672" rx="1" fill="#C7C7C7"/>
<rect width="5.02319" height="5.02319" rx="1" transform="matrix(1 0 0 -1 46.9282 45.9444)" fill="#A4E3FE"/>
<rect x="25.1611" y="44.27" width="31.8136" height="3.3488" rx="1" fill="#8F8F8F"/>
<rect x="25.1611" y="62.6887" width="31.8136" height="3.3488" rx="1" fill="#8F8F8F"/>
<path fill-rule="evenodd" clip-rule="evenodd" d="M65.7774 51.3768C65.6563 50.6394 64.7987 50.2905 64.1972 50.7339L63.6309 51.1514C63.2023 51.4673 62.6014 51.3921 62.264 50.9802L61.8181 50.4359C61.3446 49.8579 60.4274 49.9845 60.1282 50.6693L59.8465 51.3139C59.6334 51.8018 59.0753 52.0371 58.5771 51.8491L57.9189 51.6007C57.2198 51.3369 56.4888 51.9051 56.572 52.6478L56.6504 53.3469C56.7098 53.876 56.3441 54.3588 55.8187 54.4451L55.1245 54.5591C54.3871 54.6802 54.0381 55.5378 54.4816 56.1393L54.899 56.7055C55.215 57.1341 55.1397 57.7351 54.7278 58.0725L54.1836 58.5183C53.6055 58.9919 53.7321 59.9091 54.4169 60.2083L55.0616 60.4899C55.5495 60.7031 55.7848 61.2612 55.5968 61.7594L55.3484 62.4176C55.0845 63.1167 55.6528 63.8477 56.3954 63.7644L57.0945 63.686C57.6237 63.6267 58.1065 63.9924 58.1927 64.5178L58.3067 65.212C58.4278 65.9494 59.2854 66.2983 59.8869 65.8549L60.4532 65.4375C60.8818 65.1215 61.4827 65.1968 61.8201 65.6087L62.266 66.1529C62.7395 66.731 63.6567 66.6043 63.9559 65.9196L64.2376 65.2749C64.4507 64.787 65.0088 64.5517 65.507 64.7397L66.1652 64.9881C66.8643 65.2519 67.5953 64.6837 67.5121 63.9411L67.4337 63.2419C67.3743 62.7128 67.74 62.23 68.2654 62.1437L68.9596 62.0297C69.697 61.9087 70.046 61.0511 69.6025 60.4496L69.1851 59.8833C68.8691 59.4547 68.9444 58.8537 69.3563 58.5163L69.9005 58.0705C70.4786 57.597 70.352 56.6798 69.6672 56.3806L69.0225 56.0989C68.5346 55.8857 68.2993 55.3276 68.4873 54.8295L68.7357 54.1713C68.9996 53.4721 68.4313 52.7412 67.6887 52.8244L66.9896 52.9028C66.4604 52.9621 65.9776 52.5965 65.8914 52.0711L65.7774 51.3768ZM61.0955 60.6214C62.3803 61.1441 63.8457 60.5263 64.3684 59.2414C64.8912 57.9566 64.2733 56.4913 62.9885 55.9685C61.7037 55.4458 60.2383 56.0636 59.7156 57.3484C59.1928 58.6333 59.8106 60.0986 61.0955 60.6214Z" fill="#5987AB"/>
<circle cx="62.042" cy="58.2947" r="3.18599" transform="rotate(22.1392 62.042 58.2947)" stroke="#143957" stroke-width="2"/>
<path fill-rule="evenodd" clip-rule="evenodd" d="M78.9536 51.9721C78.8799 51.7183 78.5847 51.6045 78.3597 51.7431L76.4593 52.9137C76.326 52.9958 76.1571 52.9926 76.027 52.9056L74.1722 51.664C73.9526 51.517 73.6533 51.6195 73.57 51.8703L72.8667 53.9886C72.8173 54.1372 72.6859 54.2433 72.5303 54.2602L70.3113 54.5014C70.0486 54.53 69.8853 54.8009 69.9827 55.0465L70.8055 57.1214C70.8632 57.2669 70.8307 57.4327 70.7224 57.5457L69.1775 59.1567C68.9947 59.3475 69.0437 59.66 69.2762 59.7856L71.2402 60.8461C71.3779 60.9205 71.4596 61.0684 71.4493 61.2246L71.3014 63.4517C71.2839 63.7154 71.5224 63.9232 71.7812 63.87L73.9674 63.42C74.1207 63.3884 74.2784 63.4492 74.3708 63.5755L75.6892 65.3766C75.8453 65.5898 76.1615 65.5958 76.3256 65.3886L77.711 63.6386C77.8082 63.5159 77.968 63.4611 78.12 63.4985L80.2877 64.0308C80.5443 64.0938 80.7904 63.8951 80.7829 63.6309L80.7194 61.3998C80.7149 61.2433 80.8021 61.0986 80.9426 61.0295L82.9453 60.044C83.1824 59.9273 83.2432 59.6168 83.0676 59.4193L81.5848 57.751C81.4808 57.634 81.4546 57.4671 81.5178 57.3239L82.4184 55.2816C82.525 55.0398 82.3721 54.7629 82.1106 54.7245L79.9024 54.3996C79.7475 54.3768 79.6201 54.2658 79.5765 54.1155L78.9536 51.9721ZM75.4129 60.2731C76.4551 60.6749 77.6256 60.1558 78.0274 59.1136C78.4292 58.0715 77.91 56.9009 76.8679 56.4992C75.8257 56.0974 74.6552 56.6165 74.2534 57.6587C73.8516 58.7008 74.3708 59.8713 75.4129 60.2731Z" fill="#5987AB"/>
<circle cx="76.2737" cy="58.3683" r="1.91818" transform="rotate(22.1392 76.2737 58.3683)" stroke="#143957" stroke-width="2"/>
<rect x="41.8931" y="33.3132" width="11.7208" height="1.6744" rx="0.837199" transform="rotate(-41.7461 41.8931 33.3132)" fill="#5A5A5A"/>
<rect x="31.8589" y="22.0698" width="11.7208" height="1.6744" rx="0.837199" transform="rotate(-41.7461 31.8589 22.0698)" fill="#5A5A5A"/>
<rect x="31.9937" y="19.7054" width="8.37199" height="3.3488" rx="1" transform="rotate(-41.7461 31.9937 19.7054)" fill="#5A5A5A"/>
<rect x="47.8706" y="32.4666" width="1.6744" height="8.37199" rx="0.837199" transform="rotate(-41.7461 47.8706 32.4666)" fill="#5A5A5A"/>
<circle cx="54.7984" cy="39.3835" r="1.61177" transform="rotate(-113.73 54.7984 39.3835)" stroke="#5A5A5A"/>
<path d="M42.5177 32.7557L48.8985 24.8172" stroke="#A87331" stroke-width="3" stroke-linecap="round" stroke-linejoin="round"/>
<path d="M35.8287 25.2603L42.2095 17.3219" stroke="#A87331" stroke-width="3" stroke-linecap="round" stroke-linejoin="round"/>
<path d="M38.0582 27.7584L44.439 19.8199" stroke="#A87331" stroke-width="3" stroke-linecap="round" stroke-linejoin="round"/>
<path d="M40.2882 30.2571L46.669 22.3187" stroke="#A87331" stroke-width="3" stroke-linecap="round" stroke-linejoin="round"/>
<rect x="34.3579" y="19.8402" width="5.02319" height="20.0928" rx="1" transform="rotate(-41.7461 34.3579 19.8402)" fill="#5A5A5A"/>
<path d="M33.5985 22.7616L42.209 17.3217" stroke="#FFB75C" stroke-width="3" stroke-linecap="round" stroke-linejoin="round"/>
<path d="M40.2885 30.2564L48.899 24.8165" stroke="#FFB75C" stroke-width="3" stroke-linecap="round" stroke-linejoin="round"/>
<path d="M38.057 27.758L46.6675 22.3181" stroke="#FFB75C" stroke-width="3" stroke-linecap="round" stroke-linejoin="round"/>
<path d="M35.828 25.2598L44.4385 19.8199" stroke="#FFB75C" stroke-width="3" stroke-linecap="round" stroke-linejoin="round"/>
</svg>
