<svg width="88" height="85" viewBox="0 0 88 85" fill="none" xmlns="http://www.w3.org/2000/svg">
<ellipse cx="42.947" cy="41.0523" rx="40.5442" ry="40.8445" fill="currentColor"/>
<circle r="6.6072" transform="matrix(-1 0 0 1 75.6824 13.4222)" fill="currentColor"/>
<circle r="6.6072" transform="matrix(-1 0 0 1 10.2112 78.2929)" fill="currentColor"/>
<circle r="2.10229" transform="matrix(-1 0 0 1 85.593 22.1317)" fill="currentColor"/>
<circle r="2.40262" transform="matrix(-1 0 0 1 2.40256 66.8805)" fill="currentColor"/>
<path d="M14.8008 11.6547H68.3063V72.2626H27.3485V58.2944H14.8008V11.6547Z" fill="#FFFCF2"/>
<rect x="46.5254" y="56.6371" width="21.781" height="15.6255" fill="#CDCFEB"/>
<rect x="68.3064" y="37.6971" width="8.523" height="21.3075" fill="#FFEDD8"/>
<rect x="14.8008" y="33.4357" width="22.2545" height="25.0955" fill="#EBF2E3"/>
<path d="M48.1826 11.6547L58.1261 11.6547" stroke="#8BD8D3"/>
<path d="M14.8008 49.0612V41.4852" stroke="#8BD8D3"/>
<path d="M48.3009 11.6547H14.8008V18.5204M58.126 11.6547H68.0695V39.5912M14.8008 27.7537V41.7219M68.0695 54.9799V72.0259H40.8433M33.504 72.0259H27.3485V58.5311H14.8008V48.8244" stroke="#605964" stroke-width="2"/>
<path d="M68.0696 37.6971H77.0661V59.0046H68.0696" stroke="#605964"/>
<path d="M68.3062 30.8314H51.0234" stroke="#605964"/>
<path d="M38.7124 12.1283V24.9128L44.6312 30.5948" stroke="#605964"/>
<path d="M15.0376 33.4357H37.0553" stroke="#605964"/>
<path d="M27.3486 58.5313H37.2921V48.351" stroke="#605964"/>
<path d="M68.0696 56.6371H46.5254V61.6088" stroke="#605964"/>
<path d="M46.7617 72.2627V67.5277" stroke="#605964"/>
<path d="M15.9224 57.0914V39.702H20.9709V52.2326V57.0914H15.9224Z" fill="#B6C0AE"/>
<path d="M20.4828 48.5875H16.6948V44.326H20.4828V48.5875Z" fill="#3F3535"/>
<circle cx="17.6418" cy="41.4852" r="0.947" fill="#F4F4F4"/>
<circle cx="29.9528" cy="45.9834" r="1.18375" fill="#5A8C89"/>
<circle cx="21.5066" cy="20.0433" r="1.65725" fill="#5A8C89"/>
<circle cx="72.0943" cy="40.3014" r="1.65725" fill="#5A8C89"/>
<circle cx="72.0943" cy="48.8244" r="1.65725" fill="#5A8C89"/>
<circle cx="26.4015" cy="51.192" r="1.18375" fill="#5A8C89"/>
<circle cx="33.5041" cy="51.192" r="1.18375" fill="#5A8C89"/>
<circle cx="29.9528" cy="55.4534" r="1.18375" fill="#5A8C89"/>
<path d="M20.9709 39.1411H15.9224V34.6536H20.9709V39.1411Z" fill="white"/>
<path d="M28.2632 32.4098H15.9224V28.4832H28.2632V32.4098Z" fill="#B68E65"/>
<path d="M28.2632 17.8251H15.9224V12.7766H28.2632V17.8251Z" fill="#76624E"/>
<path d="M22.5098 15.5961L17.3831 16.8554L16.9634 15.1465L22.0901 13.8872L22.5098 15.5961Z" fill="#AEBFDF"/>
<path d="M32.0833 53.7962H27.8218V47.6407H32.0833V53.7962Z" fill="#C9B9AB"/>
<path d="M30.5071 70.5542H28.8242V59.3352H30.5071V70.5542Z" fill="#B68E65"/>
<path d="M66.9688 34.6536H51.2622V31.8488H66.9688V34.6536Z" fill="#B68E65"/>
<path d="M51.497 36.2767H49.603V46.2202H51.497V36.2767Z" fill="#76624E"/>
<path d="M51.0237 44.7997V37.6972C51.0237 37.4357 50.8117 37.2237 50.5502 37.2237C50.2887 37.2237 50.0767 37.4357 50.0767 37.6972V44.7997C50.0767 45.0612 50.2887 45.2732 50.5502 45.2732C50.8117 45.2732 51.0237 45.0612 51.0237 44.7997Z" fill="#AEBFDF"/>
<path d="M60.9669 29.6475H52.9174C52.7867 29.6475 52.6807 29.7535 52.6807 29.8843C52.6807 30.015 52.7867 30.121 52.9174 30.121H60.9669C61.0977 30.121 61.2037 30.015 61.2037 29.8843C61.2037 29.7535 61.0977 29.6475 60.9669 29.6475Z" fill="#AEBFDF"/>
<path d="M65.6491 47.1673H63.8611C63.3088 47.1673 62.8611 46.7196 62.8611 46.1673V36.8033C62.8611 36.251 63.3088 35.8033 63.8611 35.8033H65.6491C66.2014 35.8033 66.6491 36.251 66.6491 36.8033V46.1673C66.6491 46.7196 66.2014 47.1673 65.6491 47.1673Z" fill="#964640"/>
<path d="M63.5712 46.6672H66.4122C66.8191 46.6672 67.149 46.9971 67.149 47.404C67.149 47.8109 66.8191 48.1407 66.4122 48.1407H63.5712C63.1643 48.1407 62.8345 47.8109 62.8345 47.404C62.8345 46.9971 63.1643 46.6672 63.5712 46.6672Z" fill="#B8706E" stroke="#B8706E"/>
<path d="M63.5712 34.8298H66.4122C66.8191 34.8298 67.149 35.1596 67.149 35.5665C67.149 35.9734 66.8191 36.3033 66.4122 36.3033H63.5712C63.1643 36.3033 62.8345 35.9734 62.8345 35.5665C62.8345 35.1596 63.1643 34.8298 63.5712 34.8298Z" fill="#B8706E" stroke="#B8706E"/>
<path d="M41.7904 22.5451H39.4229V12.6016H41.7904V22.5451Z" fill="#B68E65"/>
<path d="M66.8858 16.3897H63.5713V12.7767H66.8858V16.3897Z" fill="#76624E"/>
<path d="M49.3663 16.3897H46.0518V12.7767H49.3663V16.3897Z" fill="#76624E"/>
<path d="M62.1507 26.3332H51.2603V25.8597H62.1507V26.3332Z" fill="#B68E65"/>
<path d="M61.6774 17.8101H51.7339V25.8596H61.6774V17.8101Z" fill="#ABD0D1"/>
<path d="M61.6774 13.5486H51.7339V18.2836H61.6774V13.5486Z" fill="#F3F3F3"/>
<path d="M59.783 14.4956H58.3625C57.8395 14.4956 57.4155 14.9196 57.4155 15.4426C57.4155 15.9657 57.8395 16.3896 58.3625 16.3896H59.783C60.306 16.3896 60.73 15.9657 60.73 15.4426C60.73 14.9196 60.306 14.4956 59.783 14.4956Z" fill="#ABD0D1"/>
<path d="M60.9671 17.3367H52.4441C52.0519 17.3367 51.7339 17.6547 51.7339 18.047C51.7339 18.4392 52.0519 18.7572 52.4441 18.7572H60.9671C61.3594 18.7572 61.6774 18.4392 61.6774 18.047C61.6774 17.6547 61.3594 17.3367 60.9671 17.3367Z" fill="white"/>
<path d="M55.0482 14.4956H53.6277C53.1047 14.4956 52.6807 14.9196 52.6807 15.4426C52.6807 15.9657 53.1047 16.3896 53.6277 16.3896H55.0482C55.5712 16.3896 55.9952 15.9657 55.9952 15.4426C55.9952 14.9196 55.5712 14.4956 55.0482 14.4956Z" fill="#ABD0D1"/>
<path d="M68.0696 39.5911V48.1141" stroke="#8BD8D3"/>
<path d="M62.4811 13.8984H50.7012V12.7766H62.4811V13.8984Z" fill="#B68E65"/>
<path d="M14.8008 27.7538V18.5205" stroke="#8BD8D3"/>
<circle cx="73.7513" cy="44.326" r="2.3675" fill="#C9B9AB"/>
<path d="M46.7618 67.5277L43.4473 62.7927" stroke="#A194A8" stroke-linecap="round" stroke-linejoin="round"/>
<path d="M68.0696 55.2166L64.7551 50.4816" stroke="#A194A8" stroke-linecap="round" stroke-linejoin="round"/>
<path d="M49.8224 28.013L44.6313 30.5546" stroke="#A194A8" stroke-linecap="round" stroke-linejoin="round"/>
<path d="M65.6755 35.3298V34.8298H66.1755H66.649H67.149V35.3298V47.6407V48.1407H66.649H66.1755H65.6755V47.6407V35.3298Z" fill="#D79794" stroke="#D79794"/>
<rect x="52.4441" y="64.2133" width="14.205" height="6.629" rx="2" fill="#DBDBDB"/>
<rect x="52.9175" y="64.6866" width="12.311" height="5.682" rx="2" fill="white"/>
<rect x="63.3345" y="58.0577" width="3.3145" height="4.2615" rx="1.65725" fill="#DBDBDB"/>
<rect x="63.8076" y="58.531" width="2.3675" height="3.3145" rx="1.18375" fill="white"/>
<rect width="4.2615" height="2.3675" rx="1.18375" transform="matrix(-1 0 0 1 52.4441 58.0577)" fill="#DBDBDB"/>
<rect x="47.709" y="57.584" width="1.894" height="3.3145" rx="0.947" fill="white"/>
<rect x="47.709" y="68.001" width="4.2615" height="2.841" fill="#B68E65"/>
<circle cx="19.5356" cy="45.5099" r="0.73675" fill="#E15F4A" stroke="#E15F4A"/>
<circle cx="17.6415" cy="45.5099" r="0.73675" fill="#E15F4A" stroke="#E15F4A"/>
<circle cx="19.5356" cy="47.4039" r="0.73675" fill="#E15F4A" stroke="#E15F4A"/>
<circle cx="17.6415" cy="47.4039" r="0.73675" fill="#E15F4A" stroke="#E15F4A"/>
<rect x="64.9917" y="59.9516" width="1.4205" height="0.4735" rx="0.23675" fill="#BDBDBD"/>
<rect x="64.9917" y="59.9516" width="1.4205" height="0.4735" rx="0.23675" fill="#BDBDBD"/>
<rect x="64.9917" y="59.9516" width="1.4205" height="0.4735" rx="0.23675" fill="#BDBDBD"/>
<rect x="64.0444" y="67.0541" width="1.894" height="0.947" rx="0.4735" fill="#BDBDBD"/>
<rect x="64.0444" y="67.0541" width="1.894" height="0.947" rx="0.4735" fill="#BDBDBD"/>
<rect x="64.0444" y="67.0541" width="1.894" height="0.947" rx="0.4735" fill="#BDBDBD"/>
<rect x="47.9458" y="59.0046" width="0.4735" height="0.4735" rx="0.23675" fill="#BDBDBD"/>
<rect x="47.9458" y="59.0046" width="0.4735" height="0.4735" rx="0.23675" fill="#BDBDBD"/>
<rect x="47.9458" y="59.0046" width="0.4735" height="0.4735" rx="0.23675" fill="#BDBDBD"/>
</svg>
