<svg width="93" height="85" viewBox="0 0 93 85" fill="none" xmlns="http://www.w3.org/2000/svg">
<ellipse cx="47.7522" cy="44.0523" rx="41.1448" ry="40.8445" fill="currentColor"/>
<circle cx="6.90752" cy="28.1349" r="6.90752" fill="currentColor"/>
<circle cx="14.1156" cy="14.3199" r="3.3036" fill="currentColor"/>
<circle cx="6.9074" cy="14.9206" r="1.50164" fill="currentColor"/>
<circle cx="75.3821" cy="76.1873" r="6.90752" fill="currentColor"/>
<circle cx="89.1972" cy="71.9827" r="3.3036" fill="currentColor"/>
<circle cx="75.3822" cy="13.1186" r="7.50818" fill="currentColor"/>
<circle cx="72.3791" cy="1.70616" r="1.50164" fill="currentColor"/>
<rect x="16.2178" y="15.9622" width="1.31328" height="13.7895" rx="0.656642" transform="rotate(-72.2638 16.2178 15.9622)" fill="#504751"/>
<rect x="27.9009" y="20.3884" width="2.62657" height="7.22306" rx="1.31328" transform="rotate(-72.2638 27.9009 20.3884)" fill="#F8F8F8"/>
<rect x="29.8027" y="23.0643" width="6.56642" height="7.8797" rx="3.28321" transform="rotate(-72.2638 29.8027 23.0643)" fill="#C9C9C9"/>
<rect x="32.355" y="28.017" width="14.4461" height="5.25313" rx="2.62657" transform="rotate(-72.2638 32.355 28.017)" fill="#8C898C"/>
<rect x="33.231" y="31.7446" width="21.0125" height="5.90977" rx="2.95489" transform="rotate(-72.2638 33.231 31.7446)" fill="#504751"/>
<path d="M63.8243 68.8562C67.2389 69.1188 67.4354 66.1204 67.1071 64.5883L70.3902 45.8738C73.0168 43.1378 78.4669 37.2718 79.2549 35.6958C80.2398 33.7259 79.5832 31.4277 79.9115 31.4277C80.2398 31.4277 82.0276 31.025 82.2098 30.1144C82.5381 28.4728 81.7876 26.1745 81.2248 25.1896C80.2867 23.5479 76.9566 21.9063 76.9566 21.9063C70.6091 19.827 56.6007 15.0116 56.6007 15.0116C56.6007 15.0116 55.8489 16.4028 53.6459 15.6683C51.6766 15.0116 52.0049 13.3703 52.0049 13.3703C52.0049 13.3703 49.3783 12.3874 46.7518 11.7308C44.1253 11.0741 42.9137 13.2175 40.1853 19.2801C37.2303 25.8463 36.0179 31.8912 37.8871 34.3828C38.8722 35.6961 44.9022 37.5885 47.7366 38.6509C50.3636 39.6357 49.7061 37.9943 52.0044 38.6509C53.843 39.1763 57.8047 41.0586 59.5557 41.9341C58.2424 45.1079 54.8936 52.7031 52.0044 57.6935C50.2938 60.6482 49.0491 61.962 49.7061 63.9316C50.3632 65.9013 59.2278 68.5279 59.2278 68.5279C59.2278 68.5279 60.4098 68.5935 63.8243 68.8562Z" fill="#DFF6B8"/>
<path d="M73.0175 46.2045L67.436 44.2346L59.228 68.5304C59.4469 68.6398 60.9353 69.0557 65.1378 69.8436C70.3909 70.8286 71.2111 68.0439 71.7042 63.6055C72.3609 57.6958 73.0175 46.2045 73.0175 46.2045Z" fill="#3E383F"/>
<path d="M79.9122 32.7434L76.9573 31.7584L67.436 44.2346C67.9832 44.4535 69.6686 45.4166 72.0325 46.2045C74.9874 47.1895 76.4723 45.5674 77.9423 42.9213C79.5839 39.9664 80.0217 35.4794 79.9122 32.7434Z" fill="#504751"/>
<path d="M60.8692 41.9363C60.6066 41.411 56.82 39.7475 54.9595 38.9814C54.3028 38.9814 54.6312 39.9664 55.6161 41.608C56.6011 43.2496 56.2728 44.2346 55.6161 45.5479C54.9595 46.8611 53.3179 50.4727 53.3179 51.4576C53.3179 52.2456 55.2878 52.6615 56.2728 52.7709C56.9294 50.801 58.571 46.4672 59.8843 44.8912C61.5259 42.9213 61.1976 42.593 60.8692 41.9363Z" fill="#3E383F"/>
<circle cx="65.1377" cy="50.4727" r="3.28321" fill="#C3D5A6"/>
<circle cx="65.1374" cy="50.4727" r="1.96992" fill="#504751"/>
<path d="M64.4807 29.1318L40.8416 20.9238L38.5434 21.2521L36.2451 27.8186L37.2301 30.1168L61.1975 38.9815C62.073 39.2004 64.2181 38.8501 65.794 35.6983C67.3699 32.5464 65.5751 30.0074 64.4807 29.1318Z" fill="#C3D5A6"/>
<path d="M44.4531 26.8336L46.0947 22.5654L60.2125 27.4902L58.8992 31.7584L44.4531 26.8336Z" fill="#504751"/>
<path d="M61.0908 30.3688L65.2447 31.8345" stroke="#3E383F" stroke-linecap="round"/>
<path d="M59.228 36.0266L63.1679 37.3399" stroke="#3E383F" stroke-linecap="round"/>
<path d="M59.8843 34.0566L63.8241 35.3699" stroke="#3E383F" stroke-linecap="round"/>
<path d="M60.541 32.0867L64.4809 33.4" stroke="#3E383F" stroke-linecap="round"/>
</svg>
