<svg width="87" height="83" viewBox="0 0 87 83" fill="none" xmlns="http://www.w3.org/2000/svg">
<ellipse cx="43.469" cy="42.0523" rx="41.1448" ry="40.8445" fill="currentColor"/>
<circle cx="79.1432" cy="76.2251" r="6.09331" transform="rotate(4.39871 79.1432 76.2251)" fill="currentColor"/>
<circle cx="65.7757" cy="78.1487" r="4.30193" transform="rotate(4.39871 65.7757 78.1487)" fill="currentColor"/>
<circle cx="23.5638" cy="4.42804" r="4.11781" transform="rotate(4.39871 23.5638 4.42804)" fill="currentColor"/>
<circle cx="7.14722" cy="8.34722" r="6.65635" transform="rotate(4.39871 7.14722 8.34722)" fill="currentColor"/>
<circle cx="14.0383" cy="1.50956" r="1.39979" transform="rotate(4.39871 14.0383 1.50956)" fill="currentColor"/>
<path d="M85.8808 48.0283C84.734 43.5134 77.3713 41.5747 62.9463 39.6386C53.3296 38.563 33.5716 38.3482 26.228 40.9296C17.0484 44.1565 7.03607 47.3693 6.54331 53.1912C5.88782 60.9356 26.8694 70.7842 43.2616 68.68C58.3427 66.7441 88.5035 58.3541 85.8808 48.0283Z" fill="#D27A3B"/>
<path d="M85.8775 47.3294C84.3823 42.8469 77.3539 39.4667 62.9294 37.5011C53.3131 36.409 33.5559 36.1909 26.2125 38.8118C17.0333 42.0879 7.19853 47.3289 6.54287 52.5707C5.88721 57.8125 27.524 69.7773 43.9156 67.6409C58.9961 65.6755 88.5002 55.1923 85.8775 47.3294Z" fill="#F29F64"/>
<path d="M61.5554 55.8096C51.7401 57.7872 39.3075 57.3917 31.4553 55.8096C28.1836 55.1504 21.6402 52.8431 19.677 50.5361C15.7506 45.922 16.6427 42.1472 22.2948 30.7604C28.839 17.5766 35.3818 13.7768 47.8139 12.3031C60.9014 10.7517 68.7536 15.7496 75.2971 22.8495C82.5879 30.7604 82.6618 42.9478 80.5315 47.2402C78.5686 51.1953 72.7611 53.5519 61.5554 55.8096Z" fill="#F29F64"/>
<path d="M61.5733 55.8029C51.7669 57.7904 39.3453 57.3929 31.5001 55.8029C28.2313 55.1405 21.6938 52.8217 19.7323 50.5031C15.8095 45.866 17.7567 41.8887 17.7567 41.8887C25.6019 20.0253 8.9528 62.3667 51.7526 55.1367C87.0559 49.1731 68.7651 15.5433 75.3028 22.6786C82.5872 30.6288 82.6609 42.877 80.5326 47.1907C78.5714 51.1656 72.7692 53.5339 61.5733 55.8029Z" fill="#D27A3B"/>
<path d="M45.1483 33.5025C47.7349 30.8289 52.2615 25.4827 61.3148 22.1397C70.3682 19.4672 74.2349 20.6042 76.8204 23.2791C78.1137 24.6172 77.467 26.6223 74.2482 25.4827C71.1285 24.3783 69.0748 24.8133 62.6082 27.4869C56.1415 30.1605 53.5545 34.1721 50.3212 38.8509C47.3856 43.0989 46.4412 42.5259 43.2083 40.855C40.6217 39.518 42.5616 36.1762 45.1483 33.5025Z" fill="#D27A3B"/>
<path d="M45.1509 32.4321C47.7397 29.7597 52.27 24.416 61.3309 21.0746C70.3918 18.4034 73.9298 19.4604 76.2166 22.4117C78.8054 25.7527 76.8917 24.9562 74.275 24.4161C71.0387 23.7481 69.0974 23.747 62.6253 26.4193C56.1533 29.0916 53.5641 33.1013 50.3281 37.7778C47.3901 42.0238 46.4449 41.4512 43.2093 39.781C40.6205 38.4447 42.5621 35.1044 45.1509 32.4321Z" fill="#FFB987"/>
<path d="M32.0469 59.2977C29.5322 59.2977 22.6167 53.5243 20.7307 52.2413C18.2159 49.6751 19.4733 45.1852 23.2454 38.1288C27.0175 31.0724 28.2748 27.2232 38.3337 19.5254C48.3926 11.8275 64.5514 12.4199 64.5514 14.2912C64.5514 14.9522 61.2633 14.2114 57.3484 14.9533C46.8714 16.9386 42.1058 22.0913 37.0764 32.3552C32.0469 42.619 34.5616 51.5998 34.5616 54.1658C34.5616 56.7317 34.5616 59.2977 32.0469 59.2977Z" fill="#D27A3B"/>
<path d="M30.1736 59.2976C27.604 59.2976 20.5375 53.3905 18.6103 52.0778C16.0407 49.4522 17.3255 44.8583 21.1799 37.6385C25.0344 30.4187 26.3192 26.4804 36.5977 18.6043C46.8762 10.7281 58.5085 11.3455 62.8101 13.2118C67.3638 15.1874 62.2595 13.7266 55.8699 14.6662C47.8481 15.8457 40.4521 21.2296 35.3129 31.7311C30.1736 42.2327 32.7433 51.4215 32.7433 54.0469C32.7433 56.6722 32.7433 59.2976 30.1736 59.2976Z" fill="#FFB987"/>
</svg>
