<svg width="87" height="88" viewBox="0 0 87 88" fill="none" xmlns="http://www.w3.org/2000/svg">
<ellipse cx="45.9502" cy="46.851" rx="40.5442" ry="40.8445" fill="currentColor"/>
<circle r="7.50818" transform="matrix(-1 0 0 1 12.9144 15.9174)" fill="currentColor"/>
<circle r="3.00327" transform="matrix(-1 0 0 1 18.0199 83.4909)" fill="currentColor"/>
<circle r="2.70294" transform="matrix(-1 0 0 1 2.70306 23.1252)" fill="currentColor"/>
<circle r="5.70622" transform="matrix(-1 0 0 1 79.587 5.70622)" fill="currentColor"/>
<circle r="3.00327" transform="matrix(-1 0 0 1 68.475 4.80527)" fill="currentColor"/>
<rect x="9.69019" y="69.7989" width="71.4272" height="4.08155" rx="2" fill="currentColor"/>
<path d="M21.7149 47.7474C22.0591 47.0854 22.7432 46.6701 23.4893 46.6701H68.3096C69.071 46.6701 69.7664 47.1024 70.1032 47.7852L80.7147 69.2949C81.3704 70.6241 80.4032 72.1798 78.9211 72.1798H12.3042C10.8036 72.1798 9.83748 70.5885 10.5298 69.2571L21.7149 47.7474Z" fill="white"/>
<rect x="22.7751" y="48.5306" width="1.72104" height="1.04078" rx="0.5" fill="#5A5A5A" stroke="#5A5A5A"/>
<rect x="26.1765" y="48.5306" width="1.72104" height="1.04078" rx="0.5" fill="#5A5A5A" stroke="#5A5A5A"/>
<rect x="35.7" y="48.5306" width="1.72104" height="1.04078" rx="0.5" fill="#5A5A5A" stroke="#5A5A5A"/>
<rect x="39.1013" y="48.5306" width="1.72104" height="1.04078" rx="0.5" fill="#5A5A5A" stroke="#5A5A5A"/>
<rect x="29.5779" y="48.5306" width="1.72104" height="1.04078" rx="0.5" fill="#5A5A5A" stroke="#5A5A5A"/>
<rect x="32.9788" y="48.5306" width="1.04078" height="1.04078" rx="0.5" fill="#5A5A5A" stroke="#5A5A5A"/>
<rect x="62.9104" y="48.5306" width="1.72104" height="1.04078" rx="0.5" fill="#5A5A5A" stroke="#5A5A5A"/>
<rect x="66.3118" y="48.5306" width="1.72104" height="1.04078" rx="0.5" fill="#5A5A5A" stroke="#5A5A5A"/>
<rect x="42.5027" y="48.5306" width="1.72104" height="1.04078" rx="0.5" fill="#5A5A5A" stroke="#5A5A5A"/>
<rect x="45.9041" y="48.5306" width="1.72104" height="1.04078" rx="0.5" fill="#5A5A5A" stroke="#5A5A5A"/>
<rect x="56.1077" y="48.5306" width="1.72104" height="1.04078" rx="0.5" fill="#5A5A5A" stroke="#5A5A5A"/>
<rect x="59.509" y="48.5306" width="1.72104" height="1.04078" rx="0.5" fill="#5A5A5A" stroke="#5A5A5A"/>
<rect x="49.3049" y="48.5306" width="1.72104" height="1.04078" rx="0.5" fill="#5A5A5A" stroke="#5A5A5A"/>
<rect x="52.7063" y="48.5306" width="1.72104" height="1.04078" rx="0.5" fill="#5A5A5A" stroke="#5A5A5A"/>
<rect x="21.7546" y="51.2516" width="1.72104" height="1.04078" rx="0.5" fill="#5A5A5A" stroke="#5A5A5A"/>
<rect x="24.8157" y="51.2516" width="1.72104" height="1.04078" rx="0.5" fill="#5A5A5A" stroke="#5A5A5A"/>
<rect x="35.0198" y="51.2516" width="1.72104" height="1.04078" rx="0.5" fill="#5A5A5A" stroke="#5A5A5A"/>
<rect x="38.4211" y="51.2516" width="1.72104" height="1.04078" rx="0.5" fill="#5A5A5A" stroke="#5A5A5A"/>
<rect x="28.217" y="51.2516" width="1.72104" height="1.04078" rx="0.5" fill="#5A5A5A" stroke="#5A5A5A"/>
<rect x="31.6184" y="51.2516" width="1.72104" height="1.04078" rx="0.5" fill="#5A5A5A" stroke="#5A5A5A"/>
<rect x="62.2302" y="51.2516" width="1.72104" height="1.04078" rx="0.5" fill="#5A5A5A" stroke="#5A5A5A"/>
<rect x="65.6316" y="51.2516" width="3.76181" height="1.04078" rx="0.5" fill="#5A5A5A" stroke="#5A5A5A"/>
<rect x="41.8225" y="51.2516" width="1.72104" height="1.04078" rx="0.5" fill="#5A5A5A" stroke="#5A5A5A"/>
<rect x="45.2234" y="51.2516" width="1.72104" height="1.04078" rx="0.5" fill="#5A5A5A" stroke="#5A5A5A"/>
<rect x="55.4275" y="51.2516" width="1.72104" height="1.04078" rx="0.5" fill="#5A5A5A" stroke="#5A5A5A"/>
<rect x="58.8289" y="51.2516" width="1.72104" height="1.04078" rx="0.5" fill="#5A5A5A" stroke="#5A5A5A"/>
<rect x="48.6248" y="51.2516" width="1.72104" height="1.04078" rx="0.5" fill="#5A5A5A" stroke="#5A5A5A"/>
<rect x="52.0261" y="51.2516" width="1.72104" height="1.04078" rx="0.5" fill="#5A5A5A" stroke="#5A5A5A"/>
<rect x="18.0134" y="59.4148" width="2.4013" height="1.04078" rx="0.5" fill="#5A5A5A" stroke="#5A5A5A"/>
<rect x="22.7751" y="59.4148" width="1.72104" height="1.04078" rx="0.5" fill="#5A5A5A" stroke="#5A5A5A"/>
<rect x="33.9993" y="59.4148" width="1.72104" height="1.04078" rx="0.5" fill="#5A5A5A" stroke="#5A5A5A"/>
<rect x="37.4006" y="59.4148" width="1.72104" height="1.04078" rx="0.5" fill="#5A5A5A" stroke="#5A5A5A"/>
<rect x="26.5164" y="59.4148" width="1.72104" height="1.04078" rx="0.5" fill="#5A5A5A" stroke="#5A5A5A"/>
<rect x="30.2581" y="59.4148" width="1.72104" height="1.04078" rx="0.5" fill="#5A5A5A" stroke="#5A5A5A"/>
<rect x="62.9104" y="59.4148" width="2.4013" height="1.04078" rx="0.5" fill="#5A5A5A" stroke="#5A5A5A"/>
<rect x="66.9919" y="59.4148" width="5.80259" height="1.04078" rx="0.5" fill="#5A5A5A" stroke="#5A5A5A"/>
<rect x="41.1418" y="59.4148" width="1.72104" height="1.04078" rx="0.5" fill="#5A5A5A" stroke="#5A5A5A"/>
<rect x="44.8835" y="59.4148" width="1.72104" height="1.04078" rx="0.5" fill="#5A5A5A" stroke="#5A5A5A"/>
<rect x="55.7678" y="59.4148" width="1.72104" height="1.04078" rx="0.5" fill="#5A5A5A" stroke="#5A5A5A"/>
<rect x="59.509" y="59.4148" width="1.72104" height="1.04078" rx="0.5" fill="#5A5A5A" stroke="#5A5A5A"/>
<rect x="48.6248" y="59.4148" width="1.72104" height="1.04078" rx="0.5" fill="#5A5A5A" stroke="#5A5A5A"/>
<rect x="52.3665" y="59.4148" width="1.72104" height="1.04078" rx="0.5" fill="#5A5A5A" stroke="#5A5A5A"/>
<rect x="15.9724" y="62.1358" width="1.72104" height="1.04078" rx="0.5" fill="#5A5A5A" stroke="#5A5A5A"/>
<rect x="19.3738" y="62.1358" width="2.4013" height="1.04078" rx="0.5" fill="#5A5A5A" stroke="#5A5A5A"/>
<rect x="32.2986" y="62.1358" width="2.4013" height="1.04078" rx="0.5" fill="#5A5A5A" stroke="#5A5A5A"/>
<rect x="23.4553" y="62.1358" width="2.4013" height="1.04078" rx="0.5" fill="#5A5A5A" stroke="#5A5A5A"/>
<rect x="27.5369" y="62.1358" width="3.08155" height="1.04078" rx="0.5" fill="#5A5A5A" stroke="#5A5A5A"/>
<rect x="68.3523" y="62.1358" width="3.08155" height="1.04078" rx="0.5" fill="#5A5A5A" stroke="#5A5A5A"/>
<rect x="72.9541" y="62.6562" width="2.04078" height="0.680259" rx="0.34013" fill="#5A5A5A" stroke="#5A5A5A" stroke-width="0.680259"/>
<rect x="36.7205" y="62.1358" width="17.367" height="1.04078" rx="0.5" fill="#5A5A5A" stroke="#5A5A5A"/>
<rect x="60.8694" y="62.1358" width="2.4013" height="1.04078" rx="0.5" fill="#5A5A5A" stroke="#5A5A5A"/>
<rect x="64.7911" y="62.6562" width="2.04078" height="0.680259" rx="0.34013" fill="#5A5A5A" stroke="#5A5A5A" stroke-width="0.680259"/>
<rect x="56.1077" y="62.1358" width="3.08155" height="1.04078" rx="0.5" fill="#5A5A5A" stroke="#5A5A5A"/>
<rect x="20.3943" y="53.9727" width="2.4013" height="1.04078" rx="0.5" fill="#5A5A5A" stroke="#5A5A5A"/>
<rect x="24.8157" y="53.9727" width="1.72104" height="1.04078" rx="0.5" fill="#5A5A5A" stroke="#5A5A5A"/>
<rect x="35.0198" y="53.9727" width="1.72104" height="1.04078" rx="0.5" fill="#5A5A5A" stroke="#5A5A5A"/>
<rect x="38.4211" y="53.9727" width="1.72104" height="1.04078" rx="0.5" fill="#5A5A5A" stroke="#5A5A5A"/>
<rect x="28.217" y="53.9727" width="1.72104" height="1.04078" rx="0.5" fill="#5A5A5A" stroke="#5A5A5A"/>
<rect x="31.6184" y="53.9727" width="1.72104" height="1.04078" rx="0.5" fill="#5A5A5A" stroke="#5A5A5A"/>
<rect x="62.9104" y="53.9727" width="2.4013" height="1.04078" rx="0.5" fill="#5A5A5A" stroke="#5A5A5A"/>
<rect x="41.8225" y="53.9727" width="1.72104" height="1.04078" rx="0.5" fill="#5A5A5A" stroke="#5A5A5A"/>
<rect x="45.2234" y="53.9727" width="1.72104" height="1.04078" rx="0.5" fill="#5A5A5A" stroke="#5A5A5A"/>
<rect x="55.4275" y="53.9727" width="1.72104" height="1.04078" rx="0.5" fill="#5A5A5A" stroke="#5A5A5A"/>
<rect x="58.8289" y="53.9727" width="2.4013" height="1.04078" rx="0.5" fill="#5A5A5A" stroke="#5A5A5A"/>
<rect x="48.6248" y="53.9727" width="1.72104" height="1.04078" rx="0.5" fill="#5A5A5A" stroke="#5A5A5A"/>
<rect x="52.0261" y="53.9727" width="1.72104" height="1.04078" rx="0.5" fill="#5A5A5A" stroke="#5A5A5A"/>
<rect x="19.0334" y="56.6937" width="4.44207" height="1.04078" rx="0.5" fill="#5A5A5A" stroke="#5A5A5A"/>
<rect x="25.4963" y="56.6937" width="1.72104" height="1.04078" rx="0.5" fill="#5A5A5A" stroke="#5A5A5A"/>
<rect x="35.7" y="56.6937" width="2.4013" height="1.04078" rx="0.5" fill="#5A5A5A" stroke="#5A5A5A"/>
<rect x="39.7815" y="56.6937" width="1.72104" height="1.04078" rx="0.5" fill="#5A5A5A" stroke="#5A5A5A"/>
<rect x="28.8972" y="56.6937" width="1.72104" height="1.04078" rx="0.5" fill="#5A5A5A" stroke="#5A5A5A"/>
<rect x="32.2986" y="56.6937" width="1.72104" height="1.04078" rx="0.5" fill="#5A5A5A" stroke="#5A5A5A"/>
<rect x="64.9509" y="56.6937" width="1.72104" height="1.04078" rx="0.5" fill="#5A5A5A" stroke="#5A5A5A"/>
<mask id="path-82-inside-1_63_930" fill="white">
<path fill-rule="evenodd" clip-rule="evenodd" d="M68.5051 55.3141H67.4123C66.904 55.3141 66.4919 54.902 66.4919 54.3937C66.4919 53.8854 66.904 53.4734 67.4123 53.4734H69.4716C69.4827 53.473 69.4939 53.4728 69.5051 53.4728H70.0218C70.0331 53.4728 70.0442 53.473 70.0554 53.4734H70.1017C70.61 53.4734 71.022 53.8854 71.022 54.3937C71.022 54.4075 71.0217 54.4212 71.0211 54.4348C71.0216 54.4474 71.0218 54.4601 71.0218 54.4728V57.0746C71.0218 57.6268 70.5741 58.0746 70.0218 58.0746H69.5051C68.9528 58.0746 68.5051 57.6268 68.5051 57.0746V55.3141Z"/>
</mask>
<path fill-rule="evenodd" clip-rule="evenodd" d="M68.5051 55.3141H67.4123C66.904 55.3141 66.4919 54.902 66.4919 54.3937C66.4919 53.8854 66.904 53.4734 67.4123 53.4734H69.4716C69.4827 53.473 69.4939 53.4728 69.5051 53.4728H70.0218C70.0331 53.4728 70.0442 53.473 70.0554 53.4734H70.1017C70.61 53.4734 71.022 53.8854 71.022 54.3937C71.022 54.4075 71.0217 54.4212 71.0211 54.4348C71.0216 54.4474 71.0218 54.4601 71.0218 54.4728V57.0746C71.0218 57.6268 70.5741 58.0746 70.0218 58.0746H69.5051C68.9528 58.0746 68.5051 57.6268 68.5051 57.0746V55.3141Z" fill="#5A5A5A"/>
<path d="M68.5051 55.314H69.5051V54.314H68.5051V55.314ZM69.4716 53.4733V54.4733H69.4881L69.5045 54.4728L69.4716 53.4733ZM70.0554 53.4733L70.0224 54.4728L70.0389 54.4733H70.0554V53.4733ZM71.0211 54.4347L70.0221 54.3909L70.0203 54.4315L70.0218 54.4721L71.0211 54.4347ZM68.5051 54.314H67.4123V56.314H68.5051V54.314ZM67.4123 54.314C67.4563 54.314 67.4919 54.3497 67.4919 54.3937H65.4919C65.4919 55.4543 66.3517 56.314 67.4123 56.314V54.314ZM67.4919 54.3937C67.4919 54.4377 67.4563 54.4733 67.4123 54.4733V52.4733C66.3517 52.4733 65.4919 53.3331 65.4919 54.3937H67.4919ZM67.4123 54.4733H69.4716V52.4733H67.4123V54.4733ZM69.5045 54.4728L69.5051 54.4728V52.4728C69.4829 52.4728 69.4608 52.4731 69.4386 52.4739L69.5045 54.4728ZM69.5051 54.4728H70.0218V52.4728H69.5051V54.4728ZM70.0218 54.4728L70.0224 54.4728L70.0883 52.4739C70.0662 52.4731 70.0441 52.4728 70.0218 52.4728V54.4728ZM70.0554 54.4733H70.1017V52.4733H70.0554V54.4733ZM70.1017 54.4733C70.0577 54.4733 70.022 54.4377 70.022 54.3937H72.022C72.022 53.3331 71.1623 52.4733 70.1017 52.4733V54.4733ZM70.022 54.3937C70.022 54.3928 70.0221 54.3919 70.0221 54.3909L72.0202 54.4786C72.0214 54.4504 72.022 54.4221 72.022 54.3937H70.022ZM70.0218 54.4721L70.0218 54.4728H72.0218C72.0218 54.4476 72.0214 54.4224 72.0204 54.3974L70.0218 54.4721ZM70.0218 54.4728V57.0745H72.0218V54.4728H70.0218ZM70.0218 57.0745L70.0218 57.0745V59.0745C71.1264 59.0745 72.0218 58.1791 72.0218 57.0745H70.0218ZM70.0218 57.0745H69.5051V59.0745H70.0218V57.0745ZM69.5051 57.0745H69.5051H67.5051C67.5051 58.1791 68.4006 59.0745 69.5051 59.0745V57.0745ZM69.5051 57.0745V55.314H67.5051V57.0745H69.5051Z" fill="#5A5A5A" mask="url(#path-82-inside-1_63_930)"/>
<rect x="43.1829" y="56.6937" width="1.72104" height="1.04078" rx="0.5" fill="#5A5A5A" stroke="#5A5A5A"/>
<rect x="46.5842" y="56.6937" width="2.4013" height="1.04078" rx="0.5" fill="#5A5A5A" stroke="#5A5A5A"/>
<rect x="57.4685" y="56.6937" width="1.72104" height="1.04078" rx="0.5" fill="#5A5A5A" stroke="#5A5A5A"/>
<rect x="60.8694" y="56.6937" width="2.4013" height="1.04078" rx="0.5" fill="#5A5A5A" stroke="#5A5A5A"/>
<rect x="50.6658" y="56.6937" width="1.72104" height="1.04078" rx="0.5" fill="#5A5A5A" stroke="#5A5A5A"/>
<rect x="54.0671" y="56.6937" width="1.72104" height="1.04078" rx="0.5" fill="#5A5A5A" stroke="#5A5A5A"/>
<path d="M36.9551 65.5514C37.1315 65.234 37.4661 65.0371 37.8293 65.0371H51.9287C52.3075 65.0371 52.6537 65.2511 52.8231 65.5899L54.8843 69.7122C55.2167 70.3771 54.7332 71.1594 53.9899 71.1594H35.5391C34.7766 71.1594 34.2947 70.3403 34.665 69.6738L36.9551 65.5514Z" fill="#8F8F8F"/>
<rect x="22.2751" y="17.4189" width="46.9379" height="29.2511" rx="2" fill="#8F8F8F"/>
<rect x="24.3157" y="18.7795" width="42.8563" height="26.5301" rx="2" fill="#A3E9CB"/>
</svg>
