<svg width="82" height="88" viewBox="0 0 82 88" fill="none" xmlns="http://www.w3.org/2000/svg">
<ellipse cx="41" cy="44.4599" rx="41" ry="40.7007" fill="currentColor"/>
<circle cx="20.0507" cy="80.6715" r="6.88321" fill="currentColor"/>
<circle cx="2.39416" cy="81.5693" r="2.39416" fill="currentColor"/>
<circle cx="78.4086" cy="73.1898" r="3.59124" fill="currentColor"/>
<circle cx="15.263" cy="10.6424" r="4.48905" fill="currentColor"/>
<circle cx="21.2478" cy="2.26277" r="1.49635" fill="currentColor"/>
<path d="M58.8541 74.2271H21.978C19.7384 74.2271 17.9229 72.4113 17.9229 70.1719V15.6124C17.9229 14.4287 18.8824 13.4691 20.066 13.4691H60.7662C61.9498 13.4691 62.9094 14.4287 62.9094 15.6124V70.1719C62.9094 72.4113 61.0937 74.2271 58.8541 74.2271Z" fill="#D2F0EA"/>
<path d="M62.9094 66.3362H17.9229V70.1719C17.9229 72.4113 19.7384 74.2271 21.978 74.2271H58.8541C61.0937 74.2271 62.9094 72.4113 62.9094 70.1719V66.3362Z" fill="#A9C4BE"/>
<path d="M62.9094 28.5914H17.9229V27.8924H62.9094V28.5914Z" fill="#839B97"/>
<path d="M62.9094 66.3362H17.9229V65.6378H62.9094V66.3362Z" fill="#839B97"/>
<path d="M54.8064 46.1687C54.8064 54.1162 48.3636 60.5588 40.4158 60.5588C32.4682 60.5588 26.0254 54.1162 26.0254 46.1687C26.0254 38.2205 32.4682 31.7779 40.4158 31.7779C48.3636 31.7779 54.8064 38.2205 54.8064 46.1687Z" fill="#A9C4BE"/>
<path d="M51.4349 46.1687C51.4349 52.2541 46.5016 57.1872 40.4159 57.1872C34.3303 57.1872 29.397 52.2541 29.397 46.1687C29.397 40.0827 34.3303 35.1495 40.4159 35.1495C46.5016 35.1495 51.4349 40.0827 51.4349 46.1687Z" fill="#8ED9CC"/>
<path d="M40.416 35.6754C34.6303 35.6754 29.9232 40.3827 29.9232 46.1686C29.9232 51.954 34.6303 56.6613 40.416 56.6613C46.2019 56.6613 50.909 51.954 50.909 46.1686C50.909 40.3827 46.2019 35.6754 40.416 35.6754ZM40.416 57.713C34.05 57.713 28.8711 52.5347 28.8711 46.1686C28.8711 39.8026 34.05 34.6231 40.416 34.6231C46.782 34.6231 51.9613 39.8026 51.9613 46.1686C51.9613 52.5347 46.782 57.713 40.416 57.713Z" fill="#839B97"/>
<path d="M52.7926 46.1687C52.7926 48.7561 51.7138 50.8538 50.3831 50.8538C49.0525 50.8538 47.9736 48.7561 47.9736 46.1687C47.9736 43.5807 49.0525 41.483 50.3831 41.483C51.7138 41.483 52.7926 43.5807 52.7926 46.1687Z" fill="#839B97"/>
<path d="M53.8444 46.1687C53.8444 48.7561 52.7656 50.8538 51.4349 50.8538C50.1042 50.8538 49.0254 48.7561 49.0254 46.1687C49.0254 43.5807 50.1042 41.483 51.4349 41.483C52.7656 41.483 53.8444 43.5807 53.8444 46.1687Z" fill="#A9C4BE"/>
<path d="M33.2578 22.2254H20.9541V23.9544C20.9541 24.8649 21.6922 25.6028 22.6027 25.6028H31.6093C32.5197 25.6028 33.2578 24.8649 33.2578 23.9544V22.2254Z" fill="#A9C4BE"/>
<path d="M60.1974 20.5365C60.1974 22.8907 58.2894 24.7986 55.9355 24.7986C53.5813 24.7986 51.6733 22.8907 51.6733 20.5365C51.6733 18.1828 53.5813 16.2743 55.9355 16.2743C58.2894 16.2743 60.1974 18.1828 60.1974 20.5365Z" fill="#A9C4BE"/>
<path d="M59.3052 20.5365C59.3052 22.3975 57.7964 23.9064 55.9354 23.9064C54.0742 23.9064 52.5654 22.3975 52.5654 20.5365C52.5654 18.6755 54.0742 17.1666 55.9354 17.1666C57.7964 17.1666 59.3052 18.6755 59.3052 20.5365Z" fill="#FAFDFE"/>
<path d="M34.0797 43.3896C33.9451 43.3896 33.8104 43.3382 33.7077 43.2359C33.5024 43.0301 33.5024 42.6975 33.7077 42.4917L36.9453 39.2538C37.151 39.0487 37.4839 39.0487 37.6893 39.2538C37.8946 39.4596 37.8946 39.7923 37.6893 39.998L34.4514 43.2359C34.3487 43.3382 34.2144 43.3896 34.0797 43.3896Z" fill="white"/>
<path d="M32.8151 49.5105C32.6805 49.5105 32.5458 49.4591 32.4431 49.3568C32.2377 49.151 32.2377 48.8183 32.4431 48.6126L37.2489 43.8069C37.4543 43.6017 37.7872 43.6017 37.9928 43.8069C38.1982 44.0127 38.1982 44.3453 37.9928 44.5511L33.187 49.3568C33.0843 49.4591 32.9497 49.5105 32.8151 49.5105Z" fill="white"/>
<path d="M40.0997 42.2769C39.9651 42.2769 39.8304 42.2255 39.7278 42.1226C39.5224 41.9168 39.5224 41.5842 39.7278 41.379L41.6501 39.4563C41.8555 39.2511 42.1884 39.2511 42.394 39.4563C42.5994 39.662 42.5994 39.9947 42.394 40.2004L40.4717 42.1226C40.369 42.2255 40.2344 42.2769 40.0997 42.2769Z" fill="white"/>
<path d="M46.28 16.2743H35.8472C35.4998 16.2743 35.2183 16.556 35.2183 16.903V19.0652C35.2183 19.4127 35.4998 19.6939 35.8472 19.6939H46.28C46.6272 19.6939 46.9087 19.4127 46.9087 19.0652V16.903C46.9087 16.556 46.6272 16.2743 46.28 16.2743Z" fill="#839B97"/>
<path d="M38.6392 22.9364C38.6392 23.428 38.2404 23.8264 37.7488 23.8264H36.1086C35.617 23.8264 35.2183 23.428 35.2183 22.9364C35.2183 22.4443 35.617 22.0459 36.1086 22.0459H37.7488C38.2404 22.0459 38.6392 22.4443 38.6392 22.9364Z" fill="#FAFDFE"/>
<path d="M42.7102 22.9364C42.7102 23.428 42.3117 23.8264 41.8198 23.8264H40.1799C39.688 23.8264 39.2896 23.428 39.2896 22.9364C39.2896 22.4443 39.688 22.0459 40.1799 22.0459H41.8198C42.3117 22.0459 42.7102 22.4443 42.7102 22.9364Z" fill="#FAFDFE"/>
<path d="M46.7813 22.9364C46.7813 23.428 46.3825 23.8264 45.8909 23.8264H44.251C43.7591 23.8264 43.3604 23.428 43.3604 22.9364C43.3604 22.4443 43.7591 22.0459 44.251 22.0459H45.8909C46.3825 22.0459 46.7813 22.4443 46.7813 22.9364Z" fill="#FAFDFE"/>
<path d="M50.8527 22.9364C50.8527 23.428 50.4543 23.8264 49.9624 23.8264H48.3225C47.8308 23.8264 47.4321 23.428 47.4321 22.9364C47.4321 22.4443 47.8308 22.0459 48.3225 22.0459H49.9624C50.4543 22.0459 50.8527 22.4443 50.8527 22.9364Z" fill="#FAFDFE"/>
<path d="M32.0725 16.2744H22.1394C21.4848 16.2744 20.9541 16.8053 20.9541 17.4598V22.2255H33.2578V17.4598C33.2578 16.8053 32.7271 16.2744 32.0725 16.2744Z" fill="#FAFDFE"/>
</svg>
