<svg width="82" height="88" viewBox="0 0 82 88" fill="none" xmlns="http://www.w3.org/2000/svg">
<ellipse cx="41" cy="44.1087" rx="41" ry="41.0875" fill="currentColor"/>
<ellipse cx="20.0512" cy="80.6645" rx="6.88321" ry="6.94863" fill="currentColor"/>
<ellipse cx="2.39416" cy="81.5708" rx="2.39416" ry="2.41691" fill="currentColor"/>
<ellipse cx="78.4091" cy="73.1116" rx="3.59124" ry="3.62537" fill="currentColor"/>
<ellipse cx="15.2625" cy="9.96976" rx="4.48905" ry="4.53171" fill="currentColor"/>
<ellipse cx="21.2483" cy="1.51057" rx="1.49635" ry="1.51057" fill="currentColor"/>
<path d="M53.2649 17.1403L53.4596 10.0578L52.354 9.96971L52.0179 17.0104C50.6812 17.1803 48.8806 18.2881 46.4908 21.2646C44.1011 18.2881 42.2996 17.1803 40.9629 17.0104L40.6268 9.96971L39.5221 10.0578L39.7168 17.1403C38.1117 17.7313 37.5454 19.8226 37.5454 19.8226L37.8671 21.0195L40.8757 32.215H46.4908H52.106L55.1137 21.0195L55.4354 19.8226C55.4354 19.8226 54.8699 17.7313 53.2649 17.1403Z" fill="#7CC6FD"/>
<path d="M67.6824 69.2402C67.6658 69.1761 67.6492 69.1121 67.6326 69.0481C67.6197 68.9992 67.6068 68.9507 67.5939 68.9018C67.5846 68.8666 67.5745 68.8311 67.5653 68.7955C67.5459 68.7234 67.5275 68.6513 67.5081 68.5796C67.5045 68.5676 67.5017 68.5556 67.498 68.5437C67.4777 68.4685 67.4574 68.3935 67.4381 68.3186C67.4353 68.3098 67.4335 68.301 67.4307 68.2926C67.4086 68.2102 67.3865 68.128 67.3634 68.046C67.3634 68.045 67.3634 68.0439 67.3625 68.0424C67.2952 67.7942 67.2261 67.5472 67.1579 67.301C67.1579 67.2996 67.1569 67.2982 67.156 67.2964C61.3903 46.7019 51.918 34.6512 51.918 34.6512H41.0631C41.0631 34.6512 31.5909 46.7019 25.8242 67.2964C25.8233 67.2982 25.8233 67.2996 25.8233 67.301C25.7542 67.5472 25.686 67.7942 25.6177 68.0424C25.6177 68.0439 25.6178 68.045 25.6168 68.046C25.5947 68.128 25.5726 68.2102 25.5505 68.2926C25.5477 68.3017 25.5449 68.3112 25.5422 68.3207C25.5228 68.3949 25.5025 68.4691 25.4822 68.5434C25.4767 68.5659 25.4703 68.5884 25.4647 68.6109C25.4481 68.6724 25.4316 68.7337 25.4159 68.7952C25.403 68.8409 25.391 68.887 25.379 68.9327C25.3689 68.971 25.3587 69.0097 25.3486 69.0481C25.332 69.1121 25.3154 69.1761 25.2979 69.2402C25.2924 69.2609 25.2868 69.2817 25.2822 69.3024C26.134 69.7445 26.9728 70.5911 27.9941 70.971C28.0328 70.9851 28.0715 70.9988 28.1103 71.0118C28.1692 71.0312 28.2282 71.0491 28.2882 71.0652C28.3278 71.0758 28.3683 71.086 28.4089 71.0948C28.49 71.1131 28.5721 71.1282 28.6559 71.1395C28.7352 71.15 28.8154 71.1557 28.8974 71.1571C28.9251 71.1578 28.9518 71.1574 28.9795 71.1571C28.9933 71.1567 29.0071 71.1563 29.021 71.156C29.0763 71.1543 29.1316 71.1504 29.1878 71.1452C29.2164 71.1426 29.244 71.1395 29.2726 71.1359C29.4275 71.117 29.586 71.0863 29.7483 71.0474C29.7768 71.0403 29.8063 71.0329 29.8358 71.0252C29.8801 71.014 29.9252 71.0019 29.9695 70.9897C30.4608 70.8528 30.9733 70.6565 31.4941 70.4972C32.0297 70.333 32.5726 70.2077 33.1082 70.2253C33.1266 70.2261 33.145 70.2267 33.1635 70.2278C33.2003 70.2296 33.2372 70.2324 33.2741 70.2356C33.2796 70.2359 33.2842 70.2366 33.2897 70.2373C33.3054 70.2387 33.322 70.2405 33.3377 70.2423C34.0576 70.3298 34.7674 70.7846 35.5057 71.2049C35.5278 71.2172 35.549 71.2296 35.5712 71.2418C35.6366 71.2788 35.702 71.3154 35.7684 71.3513C35.8117 71.3751 35.856 71.3987 35.9002 71.4219C36.0542 71.5031 36.2109 71.5802 36.3685 71.6491C36.4137 71.6689 36.4588 71.6878 36.5049 71.7061C36.5731 71.7335 36.6413 71.7596 36.7105 71.7835C36.7335 71.7912 36.7566 71.799 36.7796 71.8067C37.0331 71.8894 37.293 71.945 37.5594 71.9598C37.6166 71.9629 37.6747 71.9636 37.7327 71.9622C37.7761 71.9612 37.8203 71.959 37.8636 71.9555C37.8931 71.9531 37.9226 71.9503 37.9512 71.9471C37.9659 71.9453 37.9807 71.9436 37.9954 71.9418C38.0249 71.9379 38.0544 71.9337 38.0839 71.9288C38.1429 71.9193 38.2019 71.908 38.2618 71.895C38.2766 71.8918 38.2913 71.8883 38.3061 71.8851C38.3955 71.8644 38.4858 71.8401 38.5762 71.813C39.1938 71.6284 39.8316 71.3087 40.4815 71.0646C41.0078 70.8662 41.5406 70.7178 42.0743 70.7314C42.0955 70.7322 42.1176 70.7332 42.1389 70.7343C43.5307 70.8117 44.965 72.1957 46.4906 72.1957C48.0161 72.1957 49.4495 70.8113 50.8414 70.7343C50.8635 70.7332 50.8847 70.7322 50.9068 70.7314C51.4406 70.7178 51.9733 70.8662 52.4997 71.0646C53.1486 71.3087 53.7874 71.6284 54.405 71.813C54.4953 71.8401 54.5848 71.8644 54.6742 71.8851C54.6889 71.8883 54.7046 71.8918 54.7193 71.895C54.7783 71.908 54.8373 71.9193 54.8963 71.9288C54.9258 71.9337 54.9562 71.9379 54.9848 71.9418C54.9996 71.9436 55.0143 71.9453 55.0291 71.9471C55.0586 71.9503 55.0881 71.9531 55.1166 71.9555C55.1609 71.959 55.2042 71.9612 55.2484 71.9622C55.3056 71.9636 55.3637 71.9629 55.4217 71.9598C56.196 71.9168 56.9123 71.5285 57.6045 71.1306C57.6921 71.0808 57.7778 71.0308 57.8635 70.9816C57.9705 70.9197 58.0774 70.8588 58.1843 70.7997C58.2267 70.7761 58.2691 70.7529 58.3115 70.7304C58.3539 70.7075 58.3963 70.685 58.4387 70.6632C58.8416 70.455 59.2407 70.2911 59.6435 70.2423C59.6592 70.2405 59.6748 70.2387 59.6905 70.2373C59.696 70.2366 59.7016 70.2359 59.7071 70.2356C59.743 70.2324 59.7808 70.2296 59.8177 70.2278C59.8362 70.2267 59.8546 70.2261 59.873 70.2253C60.4077 70.2077 60.9515 70.333 61.4871 70.4972C62.0079 70.6565 62.5204 70.8528 63.0117 70.9897C63.0559 71.0019 63.1002 71.014 63.1444 71.0252C63.1739 71.0329 63.2034 71.0403 63.2329 71.0474C63.3942 71.0863 63.5528 71.117 63.7086 71.1359C63.7371 71.1395 63.7648 71.1426 63.7924 71.1452C63.8487 71.1504 63.9049 71.1543 63.9602 71.156C63.974 71.1563 63.9879 71.1567 64.0008 71.1571C64.0284 71.1574 64.0561 71.1578 64.0837 71.1571C64.1648 71.1557 64.246 71.15 64.3252 71.1395C64.4091 71.1282 64.4911 71.1131 64.5723 71.0948C64.6119 71.086 64.6525 71.0758 64.6921 71.0652C64.752 71.0491 64.8119 71.0312 64.8709 71.0118C64.9096 70.9988 64.9484 70.9851 64.9871 70.971C66.0084 70.5911 66.8472 69.7445 67.699 69.3024C67.6934 69.2817 67.6879 69.2609 67.6824 69.2402Z" fill="#7CC6FD"/>
<path d="M42.1745 52.9936L42.1393 70.7343C42.1179 70.7332 42.0965 70.7322 42.0743 70.7315C41.541 70.7177 41.0084 70.8662 40.4819 71.0646L42.1745 52.9936Z" fill="#5FAFEC"/>
<path d="M36.6714 52.9937L33.3376 70.2423C33.3164 70.2398 33.2952 70.2377 33.274 70.2356C32.6852 70.1821 32.0846 70.3161 31.4937 70.4973L36.6714 52.9937Z" fill="#5FAFEC"/>
<path d="M52.4993 71.0646C51.9732 70.8663 51.4396 70.7179 50.9061 70.7316C50.8845 70.7323 50.863 70.7333 50.8414 70.7344L50.8066 52.9939L52.4993 71.0646Z" fill="#5FAFEC"/>
<path d="M61.4865 70.4973C60.8953 70.3161 60.2953 70.1821 59.7068 70.2356C59.6847 70.2377 59.6635 70.2399 59.6423 70.2423L56.3091 52.9937L61.4865 70.4973Z" fill="#5FAFEC"/>
<path d="M40.502 42.2076L42.5265 33.4566C42.535 33.4583 42.5435 33.4594 42.5512 33.4604C42.7587 33.4882 42.984 33.4355 43.2124 33.3585L40.502 42.2076Z" fill="#5FAFEC"/>
<path d="M43.8242 42.3701L44.8762 33.7508C44.8848 33.752 44.8927 33.753 44.9013 33.754C45.1348 33.7808 45.3699 33.7139 45.6003 33.6235L43.8242 42.3701Z" fill="#5FAFEC"/>
<path d="M52.4791 42.2075L50.4545 33.4565C50.4462 33.4582 50.4379 33.4592 50.4288 33.4603C50.2217 33.4881 49.9972 33.4353 49.7686 33.3583L52.4791 42.2075Z" fill="#5FAFEC"/>
<path d="M49.1564 42.3701L48.1044 33.7509C48.0963 33.752 48.0882 33.753 48.0793 33.754C47.8458 33.7808 47.6107 33.714 47.3804 33.6236L49.1564 42.3701Z" fill="#5FAFEC"/>
<path d="M51.9519 28.4242L50.1059 34.0906C50.0977 34.0899 50.0903 34.0889 50.0828 34.0882C49.8939 34.0706 49.6884 34.1043 49.4805 34.1547L51.9519 28.4242Z" fill="#5FAFEC"/>
<path d="M48.9214 28.3189L47.9623 33.9003C47.9543 33.8996 47.947 33.8989 47.939 33.8982C47.726 33.8806 47.5123 33.9239 47.3018 33.9826L48.9214 28.3189Z" fill="#5FAFEC"/>
<path d="M41.0288 28.4242L42.8747 34.0906C42.8825 34.0899 42.8902 34.0889 42.8979 34.0882C43.0866 34.0706 43.2923 34.1044 43.5003 34.1547L41.0288 28.4242Z" fill="#5FAFEC"/>
<path d="M44.0596 28.3189L45.0193 33.9003C45.0264 33.8996 45.0343 33.8989 45.0421 33.8982C45.2553 33.8806 45.4693 33.9238 45.6794 33.9826L44.0596 28.3189Z" fill="#5FAFEC"/>
<path d="M40.8755 32.2153V34.8969H52.1048V32.2153H40.8755Z" fill="#BBE2F9"/>
<path d="M37.6585 44.8373V63.3764C37.6585 63.6433 37.4489 63.8631 37.1823 63.8758L27.1644 64.3526L17.615 63.8774C17.344 63.8639 17.1333 63.6368 17.14 63.3656L17.3962 53.0593L17.1965 44.9616C17.1828 44.4042 16.4048 44.2842 16.2238 44.8116L15.3265 47.4251C15.2285 47.7106 14.9017 47.8448 14.6313 47.7106L9.68139 45.2531C9.40886 45.1178 9.31935 44.7725 9.49182 44.5218L15.4644 35.8419C16.2107 34.7573 17.443 34.1094 18.7596 34.1094H23.4442C23.6416 34.1094 23.8198 34.2248 23.8951 34.4073C24.3912 35.6095 25.2915 37.9459 27.6198 37.9459C30.3424 37.9459 31.1763 35.8772 31.8289 34.4016C31.9079 34.223 32.0853 34.1094 32.2806 34.1094H36.0141C37.3262 34.1094 38.5549 34.7528 39.3021 35.8314L45.3059 44.4968C45.4852 44.7557 45.3835 45.114 45.0948 45.2399L40.3095 47.3274C40.0548 47.4386 39.7583 47.3206 39.6495 47.0649L38.6186 44.6415C38.4055 44.1405 37.6585 44.2928 37.6585 44.8373Z" fill="#4D8FA4"/>
<path d="M33.5741 60.9206C31.9018 61.8644 24.7569 62.4309 19.1087 63.0857C18.5182 63.1542 18.5505 63.8844 19.144 63.9169L20.9033 64.0133L27.0229 64.3748L37.1974 63.8802C37.4609 63.8674 37.6691 63.6522 37.6731 63.3885L37.9887 42.762L37.7417 35.4256C37.7233 34.881 37.1832 34.8196 37.08 35.3546C36.549 38.1078 36.0021 41.9943 35.7857 42.3438C35.4125 42.9466 34.6835 60.2945 33.5741 60.9206Z" fill="#3B788B"/>
<path d="M43.402 45.836C43.4813 45.1601 39.9743 39.8743 37.623 37.1238C37.5094 36.991 37.4712 36.8103 37.5228 36.6438L37.9114 35.3905C37.7218 35.3766 37.5434 35.2497 37.4954 35.0209C37.4046 34.588 37.3577 34.2199 37.4397 34.1633C37.5822 34.065 38.1248 34.3856 38.4676 34.6178C38.5132 34.634 38.5559 34.6624 38.5912 34.7037L45.2478 44.3857C45.4166 44.6311 45.3365 44.9684 45.0727 45.1036C44.2197 45.5406 43.3939 45.9054 43.402 45.836Z" fill="#3B788B"/>
<path d="M14.0687 46.813L15.5624 44.7551C15.9093 44.2771 16.6491 44.6862 16.4286 45.2342L15.4901 47.5666C15.381 47.8376 15.0653 47.9591 14.8047 47.8302L14.2496 47.5557C13.9727 47.4188 13.8864 47.0643 14.0687 46.813Z" fill="#3B788B"/>
</svg>
