<svg width="92" height="85" viewBox="0 0 92 85" fill="none" xmlns="http://www.w3.org/2000/svg">
<ellipse cx="47.4933" cy="44.0071" rx="40.922" ry="40.9929" fill="currentColor"/>
<ellipse cx="6.87012" cy="28.0319" rx="6.87012" ry="6.93262" fill="currentColor"/>
<ellipse cx="14.0386" cy="14.1667" rx="3.28571" ry="3.3156" fill="currentColor"/>
<ellipse cx="6.87046" cy="14.7695" rx="1.4935" ry="1.50709" fill="currentColor"/>
<ellipse cx="74.9741" cy="76.2588" rx="6.87012" ry="6.93262" fill="currentColor"/>
<ellipse cx="88.7144" cy="72.039" rx="3.28571" ry="3.3156" fill="currentColor"/>
<ellipse cx="74.9744" cy="12.9611" rx="7.46752" ry="7.53546" fill="currentColor"/>
<ellipse cx="71.9867" cy="1.50709" rx="1.4935" ry="1.50709" fill="currentColor"/>
<path d="M81.8436 48.2231C81.8436 49.4756 80.8373 50.4912 79.5961 50.4912C78.3537 50.4912 77.3486 49.4756 77.3486 48.2231C77.3486 46.9699 78.3537 45.9551 79.5961 45.9551C80.8373 45.9551 81.8436 46.9699 81.8436 48.2231Z" fill="#D39C2D"/>
<path d="M44.4805 35.5919C44.633 36.2041 51.7248 69.2767 51.7248 69.2767L72.5217 69.2559C72.5217 69.2559 79.2419 36.1037 79.3866 35.4898L44.4805 35.5919Z" fill="#ADBCBB"/>
<path d="M73.888 35.5057C73.6611 36.5262 67.0269 69.2559 67.0269 69.2559L51.7246 69.2711V69.2767L72.5215 69.2559C72.5215 69.2559 79.2417 36.1037 79.3864 35.4898L73.888 35.5057Z" fill="#8F9D9C"/>
<path d="M79.6855 35.6876H44.1809C43.8863 35.6876 43.6494 35.4468 43.6494 35.151C43.6494 34.8545 43.8863 34.6145 44.1809 34.6145H79.6855C79.9787 34.6145 80.217 34.8545 80.217 35.151C80.217 35.4468 79.9787 35.6876 79.6855 35.6876Z" fill="#99ACAB"/>
<path d="M78.7573 40.6454H45.2836C44.9982 40.6454 44.7676 40.4119 44.7676 40.124V40.0938C44.7676 39.8061 44.9982 39.5724 45.2836 39.5724H78.7573C79.0414 39.5724 79.2733 39.8061 79.2733 40.0938V40.124C79.2733 40.4119 79.0414 40.6454 78.7573 40.6454Z" fill="#99ACAB"/>
<path d="M77.8594 44.1668H45.8669C45.5879 44.1668 45.3608 43.9387 45.3608 43.6573V43.6039C45.3608 43.3225 45.5879 43.0945 45.8669 43.0945H77.8594C78.1384 43.0945 78.3642 43.3225 78.3642 43.6039V43.6573C78.3642 43.9387 78.1384 44.1668 77.8594 44.1668Z" fill="#99ACAB"/>
<path d="M72.888 69.3979H51.2031C50.9726 69.3979 50.7852 69.2098 50.7852 68.9769V68.7466C50.7852 68.5137 50.9726 68.3256 51.2031 68.3256H72.888C73.1173 68.3256 73.3047 68.5137 73.3047 68.7466V68.9769C73.3047 69.2098 73.1173 69.3979 72.888 69.3979Z" fill="#99ACAB"/>
<path d="M46.8936 35.6875H77.8657L77.3647 38.1964L46.8936 35.6875Z" fill="#8F9D9C"/>
<path d="M46.8931 40.6453C47.3225 40.6453 76.435 40.6453 76.435 40.6453L76.0055 41.8293L46.8931 40.6453Z" fill="#8F9D9C"/>
<path d="M47.8955 44.1668H75.4331L75.0044 46.3766L47.8955 44.1668Z" fill="#8F9D9C"/>
<path d="M52.3635 51.4416C51.9854 51.4416 51.7231 51.1148 51.5639 50.8198C50.7895 49.3839 50.6417 47.7744 50.1926 46.2437C50.0002 45.5861 49.7505 44.9395 49.4812 44.2969L51.9877 44.5011C52.2466 45.7582 52.5731 47.0051 52.966 48.2376C53.2604 49.1584 53.58 50.19 53.0336 51.0199C52.895 51.2311 52.6693 51.4328 52.3818 51.4408C52.3761 51.4416 52.3692 51.4416 52.3635 51.4416ZM51.7288 43.0947H48.9612C48.6129 42.2967 48.2681 41.4988 47.9989 40.6904L51.4333 40.8299C51.5066 41.5872 51.6063 42.3422 51.7288 43.0947ZM51.3244 39.5727H47.6827C47.5785 39.1134 47.5086 38.6495 47.4845 38.1775C47.4387 37.2599 48.0035 36.898 48.6977 36.898C49.4847 36.898 50.4378 37.3628 50.8571 38.011C51.1664 38.4869 51.2695 39.0282 51.3244 39.5727Z" fill="#D1D8D7"/>
<path d="M51.4162 40.6456H47.9843C47.8677 40.291 47.7646 39.933 47.6831 39.5726H51.3256C51.3449 39.76 51.3585 39.9473 51.3732 40.1323C51.3868 40.3037 51.4004 40.475 51.4162 40.6456Z" fill="#A8BDBB"/>
<path d="M51.9229 44.1666H49.4284C49.2763 43.8087 49.1196 43.4516 48.9629 43.0945H51.7298C51.7889 43.4524 51.8536 43.8103 51.9229 44.1666Z" fill="#A8BDBB"/>
<path d="M51.4336 40.8296L47.9991 40.6901C47.9934 40.675 47.9889 40.6606 47.9844 40.6455C48.7804 40.6455 49.9694 40.6455 51.4166 40.6455C51.4223 40.7069 51.428 40.7682 51.4336 40.8296Z" fill="#93A3A1"/>
<path d="M51.9885 44.5009L49.4818 44.2968C49.4636 44.2529 49.4454 44.2099 49.4272 44.1668H51.9226C51.943 44.2784 51.9657 44.3893 51.9885 44.5009Z" fill="#93A3A1"/>
<path d="M62.9546 34.1421C62.8547 34.2592 62.7366 34.3652 62.5917 34.4147C62.4601 34.4585 62.3176 34.4521 62.18 34.4331C61.9693 34.4035 61.7574 34.3437 61.5845 34.2162C61.4127 34.0895 61.2861 33.8877 61.2873 33.6725C61.2885 33.4237 61.4566 33.2054 61.6502 33.0531C62.0826 32.7134 62.9875 32.397 63.2225 33.1439C63.3309 33.4867 63.186 33.8678 62.9546 34.1421ZM65.3465 34.3086C65.1833 33.1359 64.2662 32.1068 63.1275 31.8165C61.99 31.5264 60.6991 31.9936 60.0025 32.9478C59.7771 33.2571 59.6079 33.6199 59.5835 34.0033C59.5835 35.1218 60.2265 35.0955 61.1192 35.1027C62.1617 35.1106 63.203 35.1186 64.2443 35.1266C64.466 35.1282 64.6925 35.129 64.902 35.0548C65.1114 34.9814 65.3039 34.8173 65.3489 34.5989C65.3684 34.5031 65.3599 34.4052 65.3465 34.3086Z" fill="#99ACAB"/>
<path d="M79.647 48.989C79.5148 48.989 79.3812 48.9428 79.2738 48.8495L62.0048 34.01C61.7626 33.8019 61.7325 33.4337 61.9394 33.189C62.1462 32.9442 62.5116 32.9146 62.7538 33.1235L80.0216 47.9622C80.2651 48.1711 80.2939 48.5386 80.087 48.7841C79.9731 48.9188 79.8107 48.989 79.647 48.989Z" fill="#8F9D9C"/>
<path d="M80.9144 48.1149C80.9065 48.1149 80.8972 48.1149 80.8894 48.1139C80.7617 48.102 80.6604 47.9976 80.6025 47.8828C80.5446 47.7681 80.5209 47.6397 80.4788 47.5184C80.3591 47.1805 79.3209 46.64 79.3538 46.416C79.3748 46.274 79.4933 46.2206 79.6538 46.2206C80.0525 46.2206 80.717 46.5434 80.8499 46.6567C81.1459 46.9094 81.3328 47.3048 81.2802 47.6914C81.2512 47.8939 81.1117 48.1149 80.9144 48.1149Z" fill="#DDB25B"/>
<path d="M68.0156 38.5894L79.5964 48.5275V48.1145L68.0156 38.5894Z" fill="#8FAAA8"/>
<path d="M31.9707 73.4363L44.6802 31.7547L29.2298 26.9574L29.0978 27.8317L29.8804 29.3227L28.7137 30.3749L28.7188 30.3845L29.4963 31.8659L28.3369 32.9256L28.3271 32.9345L29.113 34.404L27.9479 35.4689L27.9437 35.4727L28.7277 36.9546L27.5583 38.0245L28.341 39.5155L27.1666 40.618L27.9493 42.109L26.78 43.1776L27.5571 44.7053L26.4 45.7629L26.3879 45.774L27.1745 47.2385L26.0077 48.3049L26.0053 48.3072L26.7887 49.7929L25.6159 50.8854L26.3985 52.3764L25.2426 53.3574L25.2681 53.4097L25.2293 53.4451L26.0119 54.9361L24.8427 56.0048L25.5787 57.8044L24.3905 58.999L25.1265 60.7987L23.9573 61.8673L24.723 63.7338L23.5537 64.8024L24.2496 66.6044L23.0804 67.6731L23.8164 69.4727L22.6472 70.5414L31.9707 73.4363Z" fill="#ADBCBB"/>
<path d="M37.3222 30.0194L27.8799 71.0259L25.0789 70.3692L31.3842 28.6271L37.3222 30.0194Z" fill="#D8E1E0"/>
<path d="M36.2523 32.4584L28.6725 25.986L30.2769 23.724L35.5892 28.1336L44.0842 30.7712L47.7402 20.7811L32.6112 13.0688L33.4865 10.1983L50.7017 19.0679L45.5699 33.3981L36.2523 32.4584Z" fill="#EFD1A2"/>
<path d="M30.3079 18.8398C29.6154 21.1109 29.0074 23.4639 28.4111 26.1962L30.1774 27.6199L30.9186 28.2217L36.3557 32.614L42.067 33.248L44.2081 33.4824L45.7983 33.6583C47.2494 29.9587 48.5464 26.2597 49.6734 22.5637C50.0364 21.3732 50.382 20.1822 50.709 18.9928L50.2071 18.7387C49.0756 19.0719 48.0407 19.6063 47.064 20.2762C46.3377 21.4297 45.7604 22.7663 45.2575 24.2239L43.5508 29.8211L43.1489 29.623L33.5167 24.9012L32.5195 24.4107L34.385 18.8872C34.7252 17.5991 34.9649 16.0648 35.2772 14.4649C35.3785 13.2494 34.9169 11.9227 34.2 10.551L33.4311 10.1557C32.1649 13.3083 31.1706 16.0104 30.3079 18.8398ZM28.9765 25.6015L36.9747 31.4649L41.4223 31.7637C41.2749 31.5717 41.2171 31.3332 41.2858 31.1081C41.4083 30.706 41.8887 30.4933 42.3645 30.6411C42.4233 30.6593 42.4807 30.682 42.5314 30.7076C42.8999 30.9002 43.104 31.2863 42.9964 31.6392C42.9711 31.7223 42.9308 31.7969 42.8784 31.8613L44.6658 31.9815L50.1961 19.0971L50.5035 19.1925L45.6756 33.3083L36.5539 32.3959L28.8088 26.1514L28.9765 25.6015ZM33.3415 26.9544C33.2189 27.3564 32.733 27.5674 32.2628 27.4214C32.145 27.3849 32.0397 27.3277 31.9437 27.2588C31.6731 27.0525 31.5382 26.727 31.6308 26.4233C31.7534 26.0212 32.2323 25.8129 32.7082 25.9607C32.7668 25.9789 32.8244 26.0017 32.8751 26.0272C33.2436 26.2198 33.4491 26.6015 33.3415 26.9544ZM38.0069 30.711C37.8829 31.1176 37.3986 31.3241 36.9228 31.1764C36.4524 31.0303 36.1669 30.5847 36.2909 30.1782C36.4134 29.7762 36.8978 29.5696 37.3682 29.7157C37.844 29.8634 38.1294 30.309 38.0069 30.711Z" fill="#D39C2D"/>
<path d="M32.9051 25.8274C32.8547 25.8008 32.7973 25.7775 32.7387 25.7593C32.2627 25.6115 31.7717 25.8598 31.6341 26.3111C31.5301 26.6522 31.6552 27.0094 31.9217 27.2294C32.0164 27.3027 32.1208 27.3626 32.2386 27.3992C32.7088 27.5452 33.2071 27.2936 33.3447 26.8423C33.4655 26.4461 33.2709 26.0288 32.9051 25.8274Z" fill="#004D5C"/>
<path d="M38.023 30.5743C38.1639 30.1123 37.8933 29.6181 37.4175 29.4703C36.947 29.3243 36.4479 29.5795 36.307 30.0415C36.1646 30.5087 36.4352 31.0029 36.9056 31.149C37.3814 31.2967 37.8806 31.0415 38.023 30.5743Z" fill="#004D5C"/>
<path d="M42.5686 30.4256C42.5184 30.3985 42.4612 30.375 42.4023 30.3568C41.9266 30.209 41.4288 30.4791 41.2849 30.9508C41.1411 31.4225 41.404 31.923 41.8797 32.0707C41.9385 32.0889 41.9989 32.102 42.0556 32.1081C42.4714 32.1454 42.8693 31.896 42.9956 31.4819C43.1218 31.0679 42.9333 30.6306 42.5686 30.4256Z" fill="#004D5C"/>
</svg>
