<svg width="23" height="20" viewBox="0 0 23 20" fill="none" xmlns="http://www.w3.org/2000/svg">
<path d="M6.31746 2.66846H2.26874C1.52574 2.66846 0.920654 3.26199 0.920654 4.0006V18.6673C0.920654 19.406 1.52574 19.9995 2.26874 19.9995H6.31746C7.06492 19.9995 7.66555 19.4016 7.66555 18.6673V4.0006C7.66555 3.26199 7.06492 2.66846 6.31746 2.66846ZM2.94501 15.9987C2.57128 15.9987 2.26874 15.6997 2.26874 15.3304C2.26874 14.9611 2.57128 14.6621 2.94501 14.6621C3.31874 14.6621 3.62128 14.9611 3.62128 15.3304C3.62128 15.6997 3.31874 15.9987 2.94501 15.9987ZM6.31746 8.00142H2.26874V6.66928H6.31746V8.00142ZM6.31746 5.33274H2.26874V4.0006H6.31746V5.33274Z" fill="#00A0AB"/>
<path d="M15.0867 17.3307V15.9985H11.038V17.3307C10.2906 17.3307 9.68994 17.9286 9.68994 18.6628H16.4348C16.4348 17.9286 15.8342 17.3307 15.0867 17.3307Z" fill="#00A0AB"/>
<path d="M21.1598 0H4.96943C4.22197 0 3.62134 0.597924 3.62134 1.33214H4.96943H9.01814H21.1598V11.9981H9.01814V14.6667H21.1598C21.9073 14.6667 22.5079 14.0688 22.5079 13.3346V1.33214C22.5079 0.597924 21.9029 0 21.1598 0ZM13.0624 13.9985C12.6887 13.9985 12.3861 13.6995 12.3861 13.3302C12.3861 12.9609 12.6887 12.6619 13.0624 12.6619C13.4361 12.6619 13.7387 12.9609 13.7387 13.3302C13.7387 13.6995 13.4361 13.9985 13.0624 13.9985Z" fill="#00A0AB"/>
</svg>
