<svg width="26" height="29" viewBox="0 0 26 29" fill="none" xmlns="http://www.w3.org/2000/svg">
<path d="M13.1278 4.95497C14.6322 5.06613 15.0404 3.76618 15.0565 3.1023C15.2879 2.91704 15.5387 3.02511 15.6351 3.1023C15.6351 4.80676 16.7923 5.04761 17.3709 4.95497C17.7181 5.2514 17.5156 5.51077 17.3709 5.60341C16.098 5.49225 15.6833 6.69957 15.6351 7.31713C15.3651 7.76177 15.0404 7.50239 14.9118 7.31713C14.989 5.94615 13.7546 5.60341 13.1278 5.60341C12.8963 5.41814 13.0314 5.09392 13.1278 4.95497Z" fill="#00A0AB"/>
<path d="M13.1278 11.955C14.6322 12.0661 15.0404 10.7662 15.0565 10.1023C15.2879 9.91704 15.5387 10.0251 15.6351 10.1023C15.6351 11.8068 16.7923 12.0476 17.3709 11.955C17.7181 12.2514 17.5156 12.5108 17.3709 12.6034C16.098 12.4922 15.6833 13.6996 15.6351 14.3171C15.3651 14.7618 15.0404 14.5024 14.9118 14.3171C14.989 12.9462 13.7546 12.6034 13.1278 12.6034C12.8963 12.4181 13.0314 12.0939 13.1278 11.955Z" fill="#00A0AB"/>
<path d="M18.1278 15.955C19.6322 16.0661 20.0404 14.7662 20.0565 14.1023C20.2879 13.917 20.5387 14.0251 20.6351 14.1023C20.6351 15.8068 21.7923 16.0476 22.3709 15.955C22.7181 16.2514 22.5156 16.5108 22.3709 16.6034C21.098 16.4922 20.6833 17.6996 20.6351 18.3171C20.3651 18.7618 20.0404 18.5024 19.9118 18.3171C19.989 16.9462 18.7546 16.6034 18.1278 16.6034C17.8963 16.4181 18.0314 16.0939 18.1278 15.955Z" fill="#00A0AB"/>
<path fill-rule="evenodd" clip-rule="evenodd" d="M12.0395 1.36032C11.3749 1.59554 10.7225 1.89465 10.09 2.25981C4.51744 5.47713 2.60815 12.6027 5.82546 18.1753C9.04277 23.7478 16.1684 25.6571 21.7409 22.4398C23.1289 21.6384 24.2896 20.5946 25.2005 19.3927C20.0103 21.2299 14.0866 19.1687 11.2345 14.2287C8.81854 10.0441 9.29341 4.98384 12.0395 1.36032Z" fill="#00A0AB"/>
</svg>
