<svg width="23" height="17" viewBox="0 0 23 17" fill="none" xmlns="http://www.w3.org/2000/svg">
<path d="M18.8471 16.9999C18.328 16.9999 17.9819 16.6538 17.9819 16.1347V15.2695H18.8471C20.2314 15.2695 20.5775 14.8369 20.5775 14.8369V16.1347C20.5775 16.6538 20.2314 16.9999 19.7123 16.9999H18.8471Z" fill="#00A0AB"/>
<path d="M4.13887 16.9999C3.61976 16.9999 3.27368 16.6538 3.27368 16.1347V14.8369C3.27368 14.8369 3.61976 15.2695 5.00407 15.2695H5.86926V16.1347C5.86926 16.6538 5.52318 16.9999 5.00407 16.9999H4.13887Z" fill="#00A0AB"/>
<path d="M23 7.91524C23 6.79049 22.1348 5.92529 21.0101 5.92529C20.1449 5.92529 19.4527 6.44441 19.1066 7.22308L18.2414 9.38606C18.1549 9.29954 15.2998 8.43435 12.0121 8.43435C8.72433 8.43435 5.78267 9.29954 5.69615 9.38606L4.83096 7.39612C4.48488 6.53093 3.79273 5.92529 2.84102 5.92529C1.71627 5.92529 0.851074 6.79049 0.851074 7.91524C0.851074 8.86695 1.45671 9.5591 2.3219 9.81866L2.66798 13.0199C3.10058 14.4042 5.004 14.4042 5.004 14.4042H18.8471C18.8471 14.4042 20.7505 14.4042 21.1831 13.0199L21.5292 9.81866C22.3944 9.64562 23 8.86695 23 7.91524Z" fill="#00A0AB"/>
<path d="M2.8411 4.8873C4.13889 4.8873 5.35016 5.75249 5.69624 6.96376L6.12883 7.91548C6.99403 7.5694 10.0222 7.30984 11.9256 7.30984C13.829 7.30984 16.7707 7.5694 17.6359 7.91548L18.155 6.79072C18.5876 5.66597 19.7124 4.8873 21.0101 4.8873C21.0967 4.8873 21.1832 4.8873 21.2697 4.8873C21.2697 2.55128 19.3663 0.734375 17.1168 0.734375C16.8572 0.734375 6.99403 0.734375 6.73447 0.734375C4.48497 0.734375 2.58154 2.6378 2.58154 4.8873C2.66806 4.8873 2.75458 4.8873 2.8411 4.8873Z" fill="#00A0AB"/>
</svg>
