<svg width="20" height="20" viewBox="0 0 20 20" fill="none" xmlns="http://www.w3.org/2000/svg">
<path d="M10.4413 1.6162C10.6586 1.31751 10.6231 0.679214 10.5954 0.118658C10.5954 0.094108 10.5915 0.0695581 10.5915 0.0450082C10.2833 0.0163666 9.97518 0 9.65913 0C8.45816 0 7.30855 0.229133 6.24585 0.646481C7.00436 1.02291 8.17372 1.67349 9.47741 2.63093C9.92382 2.23404 10.2596 1.86579 10.4413 1.6162Z" fill="#00A0AB"/>
<path d="M15.332 7.3243C14.858 7.38159 14.455 7.45933 14.1113 7.5739C15.7508 10.5403 16.3908 14.2883 16.5488 17.0052C18.1764 15.2908 19.2075 12.9708 19.3063 10.4012C18.1843 8.97324 16.7029 7.16064 15.332 7.3243Z" fill="#00A0AB"/>
<path d="M5.57828 4.76256C6.73184 4.51297 7.81429 3.9115 8.67947 3.27729C6.87801 1.99251 5.3768 1.32557 5.07655 1.19873C3.20399 2.24619 1.71068 3.9115 0.841553 5.93277C1.97141 5.46632 3.19609 5.22901 4.40101 4.99578C4.78816 4.92214 5.19112 4.84439 5.57828 4.76256Z" fill="#00A0AB"/>
<path d="M12.2507 5.05297C12.3534 5.15935 12.4562 5.26982 12.5589 5.3803C12.9342 5.78946 13.2779 6.23546 13.59 6.71009C14.0443 6.53005 14.5816 6.4073 15.2255 6.32956C16.7386 6.15362 18.0857 7.39339 19.2393 8.76001C18.9904 6.68963 18.1331 4.81156 16.8531 3.33447C16.1539 3.4204 15.3756 3.5677 14.5855 3.8132C14.064 3.97277 13.2384 4.41058 12.2507 5.05297Z" fill="#00A0AB"/>
<path d="M10.9825 10.2169C11.3775 8.82572 11.8358 7.82736 12.7247 7.17678C12.456 6.77989 12.1716 6.40755 11.8595 6.06794C11.7173 5.91246 11.5711 5.76107 11.4249 5.61377C7.85758 8.12605 2.97469 12.7455 2.53223 16.7472C4.01369 18.4288 6.04428 19.5786 8.3277 19.9059C9.16127 18.1915 9.94348 14.7054 10.4057 12.631C10.6309 11.6326 10.8245 10.7733 10.9825 10.2169Z" fill="#00A0AB"/>
<path d="M6.93719 8.01141C8.18161 6.82483 9.4932 5.761 10.6942 4.90584C10.2952 4.53759 9.89221 4.20208 9.49715 3.89111C8.50161 4.66853 7.19397 5.43367 5.77177 5.74054C5.37276 5.82646 4.96586 5.90421 4.5708 5.98195C3.05378 6.27245 1.59603 6.55887 0.367402 7.26673C0.130369 8.13825 0 9.05478 0 10.004C0 12.1276 0.639991 14.0957 1.73035 15.716C2.44145 12.815 4.86709 9.99177 6.93719 8.01141Z" fill="#00A0AB"/>
<path d="M11.5278 4.33704C12.6774 3.58009 13.6651 3.05226 14.309 2.85586C14.8858 2.67583 15.4507 2.54899 15.988 2.45079C14.7475 1.33786 13.2344 0.539988 11.5634 0.196289C11.5989 0.895962 11.6147 1.6611 11.2118 2.21757C11.0182 2.48352 10.6942 2.84359 10.2676 3.24048C10.6863 3.5719 11.1051 3.94015 11.5278 4.33704Z" fill="#00A0AB"/>
<path d="M11.9069 10.4996C11.7568 11.0274 11.5671 11.8744 11.3459 12.8564C10.698 15.7532 10.0738 18.3433 9.34692 19.9922C9.44964 19.9963 9.55235 20.0004 9.65507 20.0004C11.9069 20.0004 13.973 19.2025 15.6165 17.8645C15.5533 15.0208 14.8935 11.0028 13.2382 8.02002C12.5982 8.51511 12.2506 9.29252 11.9069 10.4996Z" fill="#00A0AB"/>
</svg>
