<svg width="26" height="26" viewBox="0 0 26 26" fill="none" xmlns="http://www.w3.org/2000/svg">
<path d="M14.7168 1.32612C14.7168 2.05852 13.5326 4.48603 13.2451 4.4135C12.9577 4.46531 11.7734 2.05852 11.7734 1.32612C11.7734 0.593726 12.4323 0 13.2451 0C14.0579 0 14.7168 0.593726 14.7168 1.32612Z" fill="#00A0AB"/>
<path d="M22.406 5.7237C21.8868 6.24281 19.3322 7.12924 19.1811 6.87538C18.9419 6.70964 19.8137 4.16963 20.3328 3.65052C20.8519 3.13141 21.7368 3.17469 22.3093 3.74718C22.8818 4.31967 22.9251 5.20459 22.406 5.7237Z" fill="#00A0AB"/>
<path d="M24.6739 14.2264C23.9415 14.2264 21.514 13.2396 21.5865 13C21.5347 12.7605 23.9415 11.7736 24.6739 11.7736C25.4063 11.7736 26 12.3227 26 13C26 13.6774 25.4063 14.2264 24.6739 14.2264Z" fill="#00A0AB"/>
<path d="M20.2777 22.3519C19.7586 21.8328 18.8721 19.2781 19.126 19.127C19.2917 18.8878 21.8317 19.7596 22.3508 20.2787C22.87 20.7978 22.8267 21.6827 22.2542 22.2552C21.6817 22.8277 20.7968 22.871 20.2777 22.3519Z" fill="#00A0AB"/>
<path d="M11.7736 24.6739C11.7736 23.9415 12.9579 21.514 13.2453 21.5865C13.5328 21.5347 14.717 23.9415 14.717 24.6739C14.717 25.4063 14.0581 26 13.2453 26C12.4325 26 11.7736 25.4063 11.7736 24.6739Z" fill="#00A0AB"/>
<path d="M3.70464 20.2788C4.22375 19.7596 6.77844 18.8732 6.9295 19.1271C7.16867 19.2928 6.29693 21.8328 5.77782 22.3519C5.25871 22.871 4.37379 22.8278 3.8013 22.2553C3.22881 21.6828 3.18553 20.7979 3.70464 20.2788Z" fill="#00A0AB"/>
<path d="M1.32612 11.7736C2.05852 11.7736 4.48603 12.9579 4.4135 13.2453C4.46531 13.5328 2.05852 14.717 1.32612 14.717C0.593726 14.717 -2.88015e-08 14.0581 -6.433e-08 13.2453C-9.98584e-08 12.4325 0.593725 11.7736 1.32612 11.7736Z" fill="#00A0AB"/>
<path d="M5.74292 3.61256C6.25227 4.14125 7.09095 6.71201 6.83432 6.85831C6.66415 7.09436 4.14083 6.17544 3.63148 5.64675C3.12214 5.11806 3.18189 4.23411 3.76495 3.67238C4.34801 3.11065 5.23358 3.08387 5.74292 3.61256Z" fill="#00A0AB"/>
<path d="M21.0942 13.0001C21.0942 17.4705 17.4702 21.0944 12.9999 21.0944C8.52948 21.0944 4.90552 17.4705 4.90552 13.0001C4.90552 8.52969 8.52948 4.90573 12.9999 4.90573C17.4702 4.90573 21.0942 8.52969 21.0942 13.0001Z" fill="#00A0AB"/>
</svg>
