<svg width="18" height="18" viewBox="0 0 18 18" fill="none" xmlns="http://www.w3.org/2000/svg">
<path fill-rule="evenodd" clip-rule="evenodd" d="M1.12179 2.42203C2.29093 0.623632 4.29143 0.000277338 5.76797 4.66746e-08C6.3509 -0.000109387 6.9037 0.192234 7.35003 0.404591C7.80866 0.622799 8.2381 0.902643 8.59525 1.16416C8.76784 1.29053 8.92854 1.41631 9.07308 1.53445C9.4141 1.2961 9.85334 1.0281 10.3665 0.802603C11.6475 0.239722 13.5118 -0.0989157 15.3784 1.13159C18.3179 3.06942 18.3982 6.56157 17.4893 9.18268C17.2511 9.86975 16.7283 10.6281 16.1709 11.3297C15.5871 12.0647 14.863 12.8617 14.1068 13.642C12.593 15.2041 10.892 16.7593 9.78372 17.7181C9.3415 18.1007 8.69944 18.093 8.26574 17.6999C7.30305 16.8273 5.79924 15.4253 4.40909 14.0479C3.05911 12.7103 1.69722 11.2814 1.12182 10.3964C-0.373932 8.09572 -0.373938 4.72278 1.12179 2.42203ZM8.22233 3.99738L8.22192 3.99698L8.21122 3.98645C8.20075 3.97621 8.18375 3.95972 8.1608 3.93786C8.11483 3.89409 8.0454 3.82925 7.95706 3.75039C7.77906 3.59152 7.53087 3.38171 7.24785 3.17448C6.96161 2.96489 6.66101 2.77365 6.37711 2.63857C6.08092 2.49765 5.87873 2.45452 5.76839 2.45455C4.79467 2.45473 3.66159 2.88257 3.06416 3.80155C2.10974 5.26966 2.10978 7.54884 3.06415 9.01677C3.4688 9.63917 4.6251 10.8797 6.02471 12.2665C7.0609 13.2932 8.1655 14.3376 9.0498 15.1546C10.0563 14.2534 11.3164 13.0722 12.457 11.8952C13.1845 11.1446 13.8488 10.4105 14.3641 9.7618C14.9059 9.07966 15.193 8.60141 15.2815 8.34633C16.006 6.25673 15.7264 4.26302 14.1256 3.2077C13.1337 2.55383 12.1395 2.68615 11.2766 3.06532C10.844 3.25543 10.4753 3.49733 10.2128 3.69503C10.0831 3.79273 9.9834 3.87661 9.91909 3.93313C9.88703 3.96131 9.86408 3.98242 9.85092 3.99473L9.83872 4.00628L9.83964 4.00537L9.84065 4.00437L9.84125 4.00378C9.38662 4.45261 8.6752 4.4502 8.22335 3.9984C8.22331 3.99836 8.22326 3.99831 8.22322 3.99827L8.22286 3.99791L8.22262 3.99766C8.22252 3.99757 8.22243 3.99748 8.22233 3.99738Z" fill="#2C2C2C"/>
<path fill-rule="evenodd" clip-rule="evenodd" d="M9.05667 2.04491C8.86682 1.88184 8.63277 1.69105 8.37089 1.4993C8.02556 1.24644 7.61759 0.981362 7.18809 0.77701C6.76678 0.576559 6.27241 0.409085 5.76824 0.40918C4.37552 0.409441 2.51959 1.00021 1.44573 2.65204C0.0402169 4.81401 0.040228 8.00466 1.44575 10.1665C1.99269 11.0078 3.32032 12.4053 4.67857 13.7511C6.0636 15.1234 7.56297 16.5213 8.52237 17.3909C8.81151 17.653 9.23955 17.6582 9.53436 17.4031C10.6362 16.4498 12.3283 14.9027 13.8321 13.351C14.5835 12.5756 15.2976 11.7891 15.87 11.0685C16.4247 10.3701 16.9083 9.65845 17.1215 9.04338C17.9997 6.51085 17.8862 3.26844 15.1698 1.4777C13.449 0.343298 11.7297 0.647549 10.5184 1.17981C9.91354 1.4456 9.41496 1.77499 9.06883 2.03573C9.06476 2.0388 9.06071 2.04186 9.05667 2.04491ZM8.49343 3.7022C8.49341 3.70217 8.49346 3.70222 8.49343 3.7022C8.79466 4.00362 9.26956 4.00575 9.57272 3.70645L8.49343 3.7022ZM8.49343 3.7022L8.49134 3.70012L8.47887 3.68785C8.46719 3.67643 8.4489 3.65868 8.42458 3.63553C8.37589 3.58917 8.30332 3.5214 8.21143 3.43939C8.02678 3.27458 7.76854 3.05619 7.47263 2.83952C7.17457 2.62127 6.85249 2.41526 6.53947 2.26633C6.21826 2.1135 5.95763 2.04551 5.76853 2.04554C4.71101 2.04574 3.43336 2.50617 2.74064 3.57172C1.696 5.1786 1.69604 7.64007 2.74064 9.24679C3.17375 9.91296 4.36431 11.1849 5.75564 12.5635C6.89785 13.6952 8.12208 14.8476 9.04568 15.6961C10.0949 14.7664 11.4837 13.4747 12.7322 12.1865C13.4644 11.4308 14.1387 10.6863 14.6655 10.0232C15.2099 9.33782 15.5362 8.81289 15.6497 8.48581C16.4049 6.30762 16.1586 4.06417 14.3346 2.86177C13.1969 2.1118 12.0577 2.2785 11.1251 2.68829C10.6581 2.89353 10.2634 3.15294 9.98421 3.36324C9.84564 3.46763 9.7382 3.55789 9.66741 3.62011C9.63208 3.65116 9.60608 3.67505 9.59009 3.69L9.57379 3.70544L9.57272 3.70645" fill="white"/>
</svg>
