<svg width="22" height="19" viewBox="0 0 22 19" fill="none" xmlns="http://www.w3.org/2000/svg">
    <path d="M15.95 0C14.036 0 12.199 0.838692 11 2.16403C9.801 0.838692 7.964 0 6.05 0C2.662 0 0 2.50572 0 5.69482C0 9.60872 3.74 12.7978 9.405 17.6436L11 19L12.595 17.6332C18.26 12.7978 22 9.60872 22 5.69482C22 2.50572 19.338 0 15.95 0ZM11.11 16.1008L11 16.2044L10.89 16.1008C5.654 11.6381 2.2 8.68719 2.2 5.69482C2.2 3.62398 3.85 2.07084 6.05 2.07084C7.744 2.07084 9.394 3.09591 9.977 4.51444H12.034C12.606 3.09591 14.256 2.07084 15.95 2.07084C18.15 2.07084 19.8 3.62398 19.8 5.69482C19.8 8.68719 16.346 11.6381 11.11 16.1008Z" fill="currentColor"/>
</svg>

