<svg width="24" height="22" viewBox="0 0 24 22" fill="none" xmlns="http://www.w3.org/2000/svg">
<path d="M16.9999 11.927C13.6561 15.6204 9.5 22 9.5 22C9.5 22 6.55294 17.1087 4.73842 14.5133C2.9239 11.918 0.91325 10.0516 0 9.34074C0 9.34074 0.689806 8.12296 0.80845 7.29892C0.988106 6.05115 0.80845 4.82606 0.80845 4.82606C0.80845 4.82606 3.59311 7.14465 5.21001 8.79626C6.82691 10.4479 9.16244 13.5605 9.16244 13.5605C9.16244 13.5605 13.4553 8.91741 15.8771 6.79981C21.2218 2.12632 24 0 24 0C24 0 23.7754 0.560933 23.198 2.8523C22.695 4.84875 22.6142 6.20996 22.6142 6.20996C22.6142 6.20996 20.6149 7.93416 16.9999 11.927Z" fill="currentColor"/>
</svg>
