<svg width="100%" height="100%" viewBox="0 0 276 145" fill="none" xmlns="http://www.w3.org/2000/svg">
<path d="M58.5806 134.909H34.0992L23.1699 110.753H22.9514L20.5469 134.909H0L5.46461 78.0035H26.0115L23.8257 100.301H24.0443L38.908 78.0035H62.2965L41.7496 104.714L58.5806 134.909Z" fill="currentColor"/>
<path d="M192.364 134.909H173.911L178.819 78.0035H197.272L192.364 134.909Z" fill="currentColor"/>
<path d="M271.427 134.909H246.945L236.016 110.753H235.798L233.393 134.909H212.846L218.311 78.0035H238.858L236.672 100.301H236.891L251.754 78.0035H275.143L254.596 104.714L271.427 134.909Z" fill="currentColor"/>
<path d="M155.066 80.2032C133.558 103.513 112.868 133.37 107.371 145C100.981 132.866 91.6207 115.698 79.7339 97.2709C67.8471 78.8437 57.1489 68.2708 46.8966 59.0572C46.8966 59.0572 47.9664 55.3719 46.3023 50.2969C44.6381 45.2219 39.8636 38.2639 37.8329 36.099C38.2787 36.3507 40.6336 38.0171 43.6277 40.1771C48.2339 43.5 52.0475 47.3263 55.6631 51.052C55.7621 50.5989 55.6631 49.2453 55.616 47.8774C55.3294 39.5615 51.5122 32.1718 51.5122 32.1718C51.5122 32.1718 67.403 45.6899 82.557 60.7188C100.387 78.4018 108.411 90.4739 108.411 90.4739C108.411 90.4739 115.412 75.8559 137.385 52.5624C168.588 19.4842 194.441 4.68218 194.441 4.68218C194.441 4.68218 165.913 27.6406 147.786 45.9167C134.526 59.2856 123.269 75.3697 123.269 75.3697C123.269 75.3697 143.592 50.2969 169.776 28.0938C193.488 7.98686 207.665 0 207.665 0C207.665 0 206.081 2.56771 205.437 6.4948C205.144 8.28264 206.328 10.875 206.328 10.875C206.328 10.875 198.602 17.3271 182.109 32.1718C170.074 43.0044 161.901 52.5624 161.901 52.5624C174.234 41.3854 194.441 26.1302 210.191 16.6145C210.191 16.6145 201.623 24.1666 196.373 32.1718C191.402 39.7514 191.567 45.6141 191.618 47.404L191.618 47.427C191.618 47.427 173.045 60.7188 155.066 80.2032Z" fill="url(#paint0_linear_36_21009)"/>
<defs>
<linearGradient id="paint0_linear_36_21009" x1="124.012" y1="0" x2="124.012" y2="145" gradientUnits="userSpaceOnUse">
<stop stop-color="#52B9C5"/>
<stop offset="1" stop-color="#00A0AB"/>
</linearGradient>
</defs>
</svg>
