<svg width="18" height="20" viewBox="0 0 18 20" fill="none" xmlns="http://www.w3.org/2000/svg">
<path d="M2 1C1.44772 1 1 1.44772 1 2V18C1 18.5523 1.44772 19 2 19H11C11.2652 19 11.5196 18.8946 11.7071 18.7071L16.7071 13.7071C16.8946 13.5196 17 13.2652 17 13V2C17 1.44772 16.5523 1 16 1H2Z" stroke="white" stroke-width="2" stroke-linecap="round" stroke-linejoin="round"/>
<path d="M16.7071 13.7071C16.9931 13.4211 17.0787 12.991 16.9239 12.6173C16.7691 12.2436 16.4045 12 16 12H11C10.4477 12 10 12.4477 10 13V18C10 18.4045 10.2436 18.7691 10.6173 18.9239C10.991 19.0787 11.4211 18.9931 11.7071 18.7071L16.7071 13.7071Z" stroke="white" stroke-width="2" stroke-linecap="round" stroke-linejoin="round"/>
</svg>
