<svg width="21" height="22" viewBox="0 0 21 22" fill="none" xmlns="http://www.w3.org/2000/svg">
<path d="M19.3598 7.13682C18.9874 6 18.9874 6 18.4999 4.5C18.0124 3.5 16.2483 2.84312 16.2483 2.84312C15.0037 2.37894 13.8723 2.14685 13.8723 2.14685V0.754298C12.854 0.174069 11.7791 0 11.0437 0C10.7608 0 10.2517 0 10.0254 0C9.28992 0.0580229 8.21505 0.174069 7.19674 0.754298V2.14685C7.19674 2.14685 6.0653 2.37894 4.82071 2.84312C4.82071 2.76562 2.97608 3.7063 2.41241 4.5C2.00108 5.7063 1.7658 7.13682 1.7658 7.13682C1.43741 8 0.634351 14.9119 0.860641 20.366H1.1435V20.4821C1.1435 20.8302 1.42636 21.0623 1.7658 21.0623H3.18011C3.51954 21.0623 3.8024 20.8302 3.8024 20.4821V20.366H4.08526C4.08526 20.366 3.8024 11.7787 5.27328 9.57378V17.5809V18.2772V20.25C5.27328 20.25 7.98876 21.0043 10.2516 21.1203V1.2765C10.2516 1.2765 9.00706 1.33453 8.21505 1.04441C8.04533 1.10244 8.21505 0.522206 9.91222 0.522206C10.1951 0.522206 10.7042 0.522206 10.9305 0.522206C12.6277 0.522206 12.854 1.04441 12.854 1.04441C12.1185 1.39255 10.8739 1.2765 10.8739 1.2765V21.1203C13.1368 21.0043 15.8523 20.25 15.8523 20.25V18.3352V17.639V9.57378C17.3232 11.7787 17.0403 20.366 17.0403 20.366H17.3232V20.4821C17.3232 20.8302 17.6061 21.0623 17.9455 21.0623H19.3598C19.6992 21.0623 19.9821 20.8302 19.9821 20.4821V20.366H20.265C20.4912 14.9119 19.8689 10.038 19.3598 7.13682Z" fill="#00A0AB"/>
</svg>
