<svg width="22" height="22" viewBox="0 0 22 22" fill="none" xmlns="http://www.w3.org/2000/svg">
<path d="M1.5 4.99976L1.051 4.77977L0.966519 4.95219L1.01916 5.13683L1.5 4.99976ZM1.5 4.99976C1.01916 5.13683 1.0192 5.137 1.01926 5.13718L1.01939 5.13764L1.01975 5.1389L1.02086 5.14275L1.02468 5.15575L1.03879 5.20252C1.05114 5.24277 1.06945 5.30097 1.09416 5.37583C1.14358 5.52556 1.21864 5.74203 1.32293 6.01505C1.53145 6.561 1.85709 7.33377 2.32863 8.25161C3.27129 10.0865 4.79992 12.5068 7.14645 14.8533C9.56976 17.2766 12.109 18.8141 14.0491 19.7428C15.0196 20.2073 15.8422 20.5205 16.4287 20.7166C16.7217 20.8146 16.9572 20.8838 17.1241 20.9282C17.2069 20.9503 17.2757 20.967 17.3279 20.9782C17.3529 20.9836 17.3801 20.9889 17.4056 20.9928C17.4169 20.9946 17.4383 20.9976 17.4634 20.9992C17.4748 20.9999 17.5 21.0012 17.5315 20.9991C17.5472 20.998 17.5746 20.9955 17.6079 20.9881C17.6347 20.9821 17.7033 20.9651 17.7773 20.9158C18.3164 20.5564 19.2426 19.7873 19.916 18.7771C20.2119 18.3333 20.4748 17.8053 20.6603 17.3992C20.7541 17.194 20.8301 17.0153 20.8829 16.8876C20.9093 16.8236 20.93 16.7723 20.9442 16.7365L20.9606 16.6949L20.965 16.6836L20.9662 16.6804L20.9666 16.6794L20.9667 16.6791L20.9668 16.679L20.5 16.4998L20.9668 16.6789L21.1172 16.287L20.7572 16.071L15.7573 13.071L15.5001 12.9167L15.2428 13.071L13.0125 14.4092C12.8755 14.315 12.6854 14.1794 12.4516 14.0003C11.9331 13.6031 11.1999 12.9925 10.3536 12.1462C9.62054 11.4131 8.8825 10.5526 8.32453 9.87064C8.04634 9.53063 7.81456 9.23704 7.65254 9.02872C7.63544 9.00673 7.61911 8.9857 7.6036 8.96566L8.9288 6.757L9.08315 6.49976L8.9288 6.24251L5.9288 1.24251L5.78315 0.999756H5.50005C5.29441 0.999756 4.96199 1.004 4.47351 1.23539C4.0071 1.45632 3.41912 1.87359 2.6465 2.6462C2.10833 3.18437 1.71287 3.7116 1.45115 4.10546C1.32008 4.30271 1.22195 4.46743 1.15571 4.5846C1.12257 4.64322 1.09737 4.69002 1.07997 4.72315C1.07127 4.73972 1.06451 4.75287 1.05969 4.76238L1.0539 4.77389L1.05209 4.77754L1.05145 4.77884L1.0512 4.77935L1.05109 4.77957C1.05104 4.77967 1.051 4.77977 1.5 4.99976Z" fill="white" stroke="white"/>
</svg>
