<svg width="23" height="18" viewBox="0 0 23 18" fill="none" xmlns="http://www.w3.org/2000/svg">
<mask id="path-1-inside-1_17_1694" fill="white">
<path fill-rule="evenodd" clip-rule="evenodd" d="M7.62505 0C6.52048 0 5.62505 0.895431 5.62505 2V2.24984H2C0.89543 2.24984 0 3.14527 0 4.24984V16C0 17.1046 0.895428 18 2 18H20.5002C21.6048 18 22.5002 17.1046 22.5002 16V4.24984C22.5002 3.14527 21.6048 2.24984 20.5002 2.24984H16.8752V2C16.8752 0.895431 15.9797 0 14.8752 0H7.62505Z"/>
</mask>
<path d="M5.62505 2.24984V3.24984H6.62505V2.24984H5.62505ZM16.8752 2.24984H15.8752V3.24984H16.8752V2.24984ZM6.62505 2C6.62505 1.44772 7.07277 1 7.62505 1V-1C5.9682 -1 4.62505 0.343146 4.62505 2H6.62505ZM6.62505 2.24984V2H4.62505V2.24984H6.62505ZM2 3.24984H5.62505V1.24984H2V3.24984ZM1 4.24984C1 3.69755 1.44772 3.24984 2 3.24984V1.24984C0.343145 1.24984 -1 2.59299 -1 4.24984H1ZM1 16V4.24984H-1V16H1ZM2 17C1.44771 17 1 16.5523 1 16H-1C-1 17.6568 0.343143 19 2 19V17ZM20.5002 17H2V19H20.5002V17ZM21.5002 16C21.5002 16.5523 21.0525 17 20.5002 17V19C22.1571 19 23.5002 17.6568 23.5002 16H21.5002ZM21.5002 4.24984V16H23.5002V4.24984H21.5002ZM20.5002 3.24984C21.0525 3.24984 21.5002 3.69755 21.5002 4.24984H23.5002C23.5002 2.59299 22.1571 1.24984 20.5002 1.24984V3.24984ZM16.8752 3.24984H20.5002V1.24984H16.8752V3.24984ZM15.8752 2V2.24984H17.8752V2H15.8752ZM14.8752 1C15.4274 1 15.8752 1.44771 15.8752 2H17.8752C17.8752 0.343146 16.532 -1 14.8752 -1V1ZM7.62505 1H14.8752V-1H7.62505V1Z" fill="#F7F7F7" mask="url(#path-1-inside-1_17_1694)"/>
<circle cx="11.2501" cy="10.1251" r="5.12505" stroke="#F7F7F7"/>
<circle r="0.625011" transform="matrix(-1 0 0 1 19.1255 5.62526)" stroke="#F7F7F7"/>
</svg>
