<svg width="21" height="22" viewBox="0 0 21 22" fill="none" xmlns="http://www.w3.org/2000/svg">
<path fill-rule="evenodd" clip-rule="evenodd" d="M1.27386 6.78959C0.544313 7.33833 0.932397 8.49989 1.84528 8.49989C2.37028 8.49989 2.79588 8.92549 2.79588 9.4505V20.9998C2.79588 21.5521 3.2436 21.9998 3.79588 21.9998H17.2042C17.7565 21.9998 18.2042 21.5521 18.2042 20.9998V9.49989C18.2042 8.9476 18.652 8.49989 19.2042 8.49989H19.4026C20.3732 8.49989 20.7747 7.25625 19.9873 6.68867L11.0974 0.280582C10.7422 0.0244891 10.2616 0.0293709 9.91158 0.292627L1.27386 6.78959ZM10.5001 6.59131C11.032 6.59131 11.4631 6.16015 11.4631 5.62829C11.4631 5.09642 11.032 4.66526 10.5001 4.66526C9.96823 4.66526 9.53707 5.09642 9.53707 5.62829C9.53707 6.16015 9.96823 6.59131 10.5001 6.59131ZM11.4631 10.4801C11.4631 9.92779 11.9108 9.48007 12.4631 9.48007H14.3152C14.8674 9.48007 15.3152 9.92779 15.3152 10.4801V12.3322C15.3152 12.8844 14.8674 13.3322 14.3152 13.3322H12.4631C11.9108 13.3322 11.4631 12.8844 11.4631 12.3322V10.4801ZM12.4631 15.2587C11.9108 15.2587 11.4631 15.7064 11.4631 16.2587V18.1108C11.4631 18.6631 11.9108 19.1108 12.4631 19.1108H14.3152C14.8674 19.1108 15.3152 18.6631 15.3152 18.1108V16.2587C15.3152 15.7064 14.8674 15.2587 14.3152 15.2587H12.4631ZM5.68496 16.2587C5.68496 15.7064 6.13267 15.2587 6.68496 15.2587H8.53704C9.08933 15.2587 9.53704 15.7064 9.53704 16.2587V18.1108C9.53704 18.6631 9.08933 19.1108 8.53704 19.1108H6.68495C6.13267 19.1108 5.68496 18.6631 5.68496 18.1108V16.2587ZM6.68496 9.48007C6.13267 9.48007 5.68496 9.92779 5.68496 10.4801V12.3322C5.68496 12.8844 6.13267 13.3322 6.68495 13.3322H8.53704C9.08933 13.3322 9.53704 12.8844 9.53704 12.3322V10.4801C9.53704 9.92779 9.08933 9.48007 8.53704 9.48007H6.68496Z" fill="#00A0AB"/>
</svg>
