<svg width="24" height="24" viewBox="0 0 24 24" fill="none" xmlns="http://www.w3.org/2000/svg">
<g clip-path="url(#clip0_441_1594)">
<path fill-rule="evenodd" clip-rule="evenodd" d="M11.5731 4.45369C11.1825 4.06316 10.5494 4.06316 10.1589 4.45369L8.40883 6.20372C8.0183 6.59425 8.0183 7.22741 8.40883 7.61793L15.6963 14.9054C16.0868 15.2959 16.72 15.2959 17.1105 14.9054L18.8605 13.1554C19.2511 12.7648 19.2511 12.1317 18.8605 11.7412L11.5731 4.45369ZM10.5716 6.71525C10.2559 6.39951 10.2559 5.8876 10.5716 5.57186C10.8873 5.25612 11.3993 5.25612 11.715 5.57186L17.5467 11.4036C17.8624 11.7193 17.8624 12.2312 17.5467 12.547C17.231 12.8627 16.7191 12.8627 16.4033 12.547L10.5716 6.71525Z" fill="#00A0AB"/>
<path d="M17.4999 13.4997L18.7766 14.8209L16.0079 17.5897L10.866 12.4478L8.88831 14.4254" stroke="#00A0AB" stroke-linecap="round" stroke-linejoin="round"/>
<rect x="8.49292" y="12.4482" width="3.35619" height="8.94984" rx="1" transform="rotate(45 8.49292 12.4482)" fill="#00A0AB"/>
<path d="M18.0696 10.1588L12.7598 4.849C12.3693 4.45848 12.3693 3.82531 12.7598 3.43479L15.301 0.893584C15.6915 0.50306 16.2094 0.588404 16.1252 1.13422C16.0741 1.46536 16.0081 1.91357 16.0081 2.55966C16.0081 3.23806 16.0081 3.33468 16.507 3.84736C16.692 4.0374 16.9488 4.14707 17.2127 4.12214C17.8219 4.06463 18.3415 3.89146 18.7767 3.74636C19.7943 3.40714 19.9393 3.35882 20.4588 3.85082C20.6514 4.03318 20.769 4.295 20.7023 4.55171C20.5504 5.13689 20.0856 5.60172 19.5678 6.11951C18.935 6.75236 19.1722 7.30617 19.5678 7.70163C19.7565 7.89022 20.043 7.82857 20.2145 7.76573C20.3129 7.72966 20.4107 7.69105 20.5141 7.67364C20.6264 7.6547 20.789 7.62986 20.9655 7.6112C21.5147 7.55316 21.6244 8.01825 21.2338 8.40878L19.4838 10.1588C19.0933 10.5493 18.4601 10.5493 18.0696 10.1588Z" fill="#00A0AB"/>
</g>
<defs>
<clipPath id="clip0_441_1594">
<rect width="24" height="24" fill="white"/>
</clipPath>
</defs>
</svg>
