<svg width="24" height="26" viewBox="0 0 24 26" fill="none" xmlns="http://www.w3.org/2000/svg">
<path fill-rule="evenodd" clip-rule="evenodd" d="M10.172 1.90167C9.90343 1.90167 9.67423 2.09372 9.63008 2.35576L9.18548 4.99444C9.10293 5.48436 8.7991 5.91033 8.36017 6.15154L7.49402 6.62752C7.0824 6.85372 6.59261 6.89497 6.14825 6.74084L3.70876 5.8947C3.45924 5.80816 3.18279 5.90971 3.05086 6.13637L1.17211 9.36409C1.04044 9.5903 1.08997 9.87717 1.29008 10.0473L3.00549 11.506C3.36971 11.8157 3.57923 12.2672 3.57923 12.7423V14.331C3.57923 14.7864 3.3866 15.2212 3.048 15.5298L1.56255 16.8839C1.37171 17.0579 1.32997 17.3402 1.46247 17.561L3.31808 20.6523C3.45572 20.8816 3.74122 20.9783 3.99202 20.8804L6.06674 20.0711C6.56313 19.8774 7.12358 19.9335 7.57074 20.2215L8.75649 20.9853C9.17571 21.2553 9.44825 21.699 9.49733 22.1915L9.69023 24.1268C9.71795 24.4049 9.95442 24.6169 10.237 24.6169H14.1571C14.4086 24.6169 14.628 24.448 14.6897 24.2068L15.3396 21.6675C15.4527 21.2254 15.748 20.8504 16.1536 20.6335L17.1384 20.1069C17.523 19.9013 17.9746 19.8552 18.3935 19.9789L20.3927 20.5692C20.6387 20.6419 20.9028 20.5363 21.0287 20.3149L22.8306 17.1462C22.9514 16.9338 22.9145 16.6678 22.7403 16.4955L21.0567 14.8301C20.7072 14.4844 20.533 14.0017 20.5821 13.5151L20.7332 12.0209C20.7735 11.6227 20.9604 11.253 21.2584 10.9824L22.7171 9.65718C22.9022 9.48905 22.9484 9.21814 22.8293 8.99929L21.2829 6.15863C21.1548 5.9232 20.8725 5.81498 20.6174 5.90345L18.2739 6.71629C17.7692 6.89136 17.2099 6.81326 16.7739 6.50682L15.7435 5.78261C15.3929 5.53617 15.1535 5.16389 15.0766 4.74527L14.6359 2.34789C14.5884 2.08949 14.3609 1.90167 14.0954 1.90167H10.172ZM8.54627 2.17708C8.67872 1.39098 9.36631 0.814819 10.172 0.814819H14.0954C14.8919 0.814819 15.5744 1.37828 15.7169 2.15346L16.1576 4.55085C16.1832 4.69039 16.263 4.81448 16.3799 4.89663L17.4103 5.62084C17.5557 5.72299 17.7421 5.74902 17.9103 5.69067L20.2538 4.87783C21.0191 4.61239 21.8659 4.93707 22.2503 5.64335L23.7967 8.48401C24.1541 9.14056 24.0156 9.95329 23.4604 10.4577L22.0016 11.7829C21.9022 11.8731 21.8399 11.9963 21.8265 12.129L21.6755 13.6233C21.6591 13.7855 21.7171 13.9464 21.8336 14.0616L23.5172 15.727C24.0399 16.2439 24.1506 17.0418 23.7883 17.679L21.9863 20.8478C21.6087 21.5118 20.8165 21.8286 20.0784 21.6107L18.0793 21.0204C17.9396 20.9791 17.7891 20.9945 17.6609 21.0631L16.6761 21.5896C16.5409 21.6619 16.4425 21.7869 16.4047 21.9343L15.7548 24.4735C15.5697 25.197 14.9116 25.7037 14.1571 25.7037H10.237C9.38934 25.7037 8.67993 25.0678 8.59677 24.2334L8.40388 22.2981C8.38751 22.134 8.29667 21.9861 8.15693 21.896L6.97117 21.1323C6.82212 21.0363 6.6353 21.0176 6.46984 21.0822L4.39512 21.8915C3.64273 22.185 2.78622 21.8951 2.3733 21.2072L0.517698 18.1158C0.120201 17.4536 0.24541 16.6066 0.817945 16.0847L2.30339 14.7306C2.41626 14.6277 2.48047 14.4828 2.48047 14.331V12.7423C2.48047 12.5839 2.41063 12.4334 2.28922 12.3302L0.573818 10.8715C-0.0265201 10.361 -0.175114 9.50043 0.219902 8.82179L2.09865 5.59407C2.49445 4.91408 3.32378 4.60945 4.07233 4.86908L6.51183 5.71522C6.65995 5.76659 6.82321 5.75284 6.96042 5.67744L7.82657 5.20146C7.97288 5.12106 8.07415 4.97907 8.10167 4.81576L8.54627 2.17708Z" fill="#00A0AB"/>
<path fill-rule="evenodd" clip-rule="evenodd" d="M12.0001 17.4832C14.3329 17.4832 16.224 15.5921 16.224 13.2593C16.224 10.9265 14.3329 9.03536 12.0001 9.03536C9.66728 9.03536 7.77617 10.9265 7.77617 13.2593C7.77617 15.5921 9.66728 17.4832 12.0001 17.4832ZM12.0001 18.5926C14.9456 18.5926 17.3334 16.2048 17.3334 13.2593C17.3334 10.3138 14.9456 7.92594 12.0001 7.92594C9.05456 7.92594 6.66675 10.3138 6.66675 13.2593C6.66675 16.2048 9.05456 18.5926 12.0001 18.5926Z" fill="#00A0AB"/>
</svg>
