<svg width="36" height="36" viewBox="0 0 36 36" fill="none" xmlns="http://www.w3.org/2000/svg">
<path d="M0 18.1714C0 4.48941 13.4855 0 18.7013 0L19.7095 0.685714L20.4011 1.02857L17.6349 1.71429C17.6349 1.71429 18.4238 2.2036 19.018 2.4C20.0553 2.74286 21.7842 3.08571 21.7842 3.08571C21.7842 3.08571 19.3638 3.42857 17.9806 3.77143C16.4697 4.14596 15.9059 4.45714 15.9059 4.45714C15.9059 4.45714 16.1833 5.07497 16.9433 5.82857C17.2891 6.17143 17.905 6.62723 17.8415 6.62723C11.3891 6.62723 6.23377 12.1855 6.23377 18.599C6.23377 24.1614 10.5329 29.9294 18.2714 30.1432C24.073 30.3035 26.985 27.2119 29.0456 24.3429C30.1204 22.8464 30.6487 20.3403 30.7745 19.5429C31.0822 17.5937 30.7745 16.1143 30.7745 16.1143C30.7745 16.1143 31.5821 17.369 31.1688 20.2286C30.3691 25.7624 26.2794 28.4571 26.2794 28.4571C26.2794 28.4571 31.0763 26.0571 31.8119 20.5714C32.564 14.962 31.4661 12.3429 31.4661 12.3429C31.4661 12.3429 32.321 13.4876 32.8492 16.1143C33.2791 18.2521 33.1135 21.24 33.1135 21.24C33.1135 21.24 34.5532 19.08 34.5532 16.56V13.32C34.5532 13.32 36.1172 15.4772 35.993 19.5429C35.6619 30.3745 26.6547 36 17.8415 36C9.02821 36 0 29.9294 0 18.1714Z" fill="url(#paint0_linear_2807_1)"/>
<defs>
<linearGradient id="paint0_linear_2807_1" x1="0.9375" y1="-9" x2="52.3229" y2="23.0459" gradientUnits="userSpaceOnUse">
<stop stop-color="#00A0AB"/>
<stop offset="1" stop-color="white"/>
</linearGradient>
</defs>
</svg>
