<svg width="22" height="20" viewBox="0 0 22 20" fill="none" xmlns="http://www.w3.org/2000/svg">
<path d="M11.1307 0C9.46106 0 9.04365 1.0436 9.39148 1.73928H12.522C12.8699 1.73918 12.9133 0 11.1307 0Z" fill="#00A0AB"/>
<path fill-rule="evenodd" clip-rule="evenodd" d="M15.5104 2.04123C14.871 1.84188 14.2022 1.73042 13.4233 1.61528V9.21736C13.4233 9.40947 13.2676 9.5652 13.0755 9.5652C12.8834 9.5652 12.7277 9.40947 12.7277 9.21736V1.51693C12.072 1.43469 10.8204 1.32098 9.24929 1.44807V9.21736C9.24929 9.40947 9.09356 9.5652 8.90145 9.5652C8.70935 9.5652 8.55361 9.40947 8.55361 9.21736V1.51851C8.43897 1.53247 8.32299 1.54777 8.20576 1.5645C7.53171 1.66071 6.96428 1.76229 6.46659 1.89431V5.04332C6.46659 5.23543 6.31086 5.39116 6.11876 5.39116C5.92665 5.39116 5.77092 5.23543 5.77092 5.04332V2.1171C4.84588 2.47349 4.15056 3.02184 3.33604 3.99927C2.04852 5.5443 0.760992 8.69778 0.576022 11.6405C0.549425 12.0637 0.81955 12.4421 1.2179 12.5873C3.2286 13.3201 6.31925 14.4344 10.9884 14.4344C15.8542 14.4344 18.0825 13.628 19.9945 12.9361C20.3491 12.8078 20.6929 12.6834 21.0405 12.5688C21.4688 12.4276 21.7746 12.0345 21.7524 11.5841C21.6542 9.59847 21.1239 6.48237 18.9887 4.34711C17.9239 3.28228 17.0649 2.67803 16.206 2.30064V5.04332C16.206 5.23543 16.0503 5.39116 15.8582 5.39116C15.6661 5.39116 15.5104 5.23543 15.5104 5.04332V2.04123ZM10.6406 19.9998C2.90979 19.9998 -0.181188 17.4881 0.00816524 14.4645C0.044879 13.8783 0.673512 13.5805 1.22603 13.7799C3.23656 14.5053 6.62621 15.4779 10.9884 15.4779C16.957 15.4779 20.0564 14.0782 21.2194 13.553C21.5898 13.3857 21.7638 13.3072 21.7714 13.3909C22.1192 17.2171 21.4235 19.9998 10.6406 19.9998Z" fill="#00A0AB"/>
</svg>
